Brana-Regular.ufo
<glyph name="exclam" format="2">
  <advance width="298"/>
  <unicode hex="0021"/>
  <outline>
    <contour>
      <point x="163" y="100" type="qcurve" smooth="yes"/>
      <point x="140" y="100"/>
      <point x="124" y="84" type="qcurve" smooth="yes"/>
      <point x="108" y="68"/>
      <point x="108" y="44" type="qcurve" smooth="yes"/>
      <point x="108" y="21"/>
      <point x="124" y="5" type="qcurve" smooth="yes"/>
      <point x="143" y="-12"/>
      <point x="163" y="-12" type="qcurve" smooth="yes"/>
      <point x="185" y="-12"/>
      <point x="200" y="5" type="qcurve"/>
      <point x="217" y="22"/>
      <point x="217" y="44" type="qcurve" smooth="yes"/>
      <point x="217" y="67"/>
      <point x="200" y="84" type="qcurve"/>
      <point x="187" y="100"/>
    </contour>
    <contour>
      <point x="170" y="180" type="line"/>
      <point x="214" y="574" type="line"/>
      <point x="217" y="594"/>
      <point x="217" y="607" type="qcurve" smooth="yes"/>
      <point x="217" y="643"/>
      <point x="202" y="662" type="qcurve" smooth="yes"/>
      <point x="187" y="680"/>
      <point x="164" y="680" type="qcurve" smooth="yes"/>
      <point x="141" y="680"/>
      <point x="124" y="662" type="qcurve" smooth="yes"/>
      <point x="108" y="643"/>
      <point x="108" y="612" type="qcurve" smooth="yes"/>
      <point x="108" y="588"/>
      <point x="113" y="574" type="qcurve"/>
      <point x="148" y="180" type="line"/>
    </contour>
  </outline>
</glyph>
<glyph name="quotedbl" format="2">
  <advance width="367"/>
  <unicode hex="0022"/>
  <outline>
    <contour>
      <point x="94" y="396" type="line"/>
      <point x="117" y="396" type="line"/>
      <point x="140" y="539" type="line"/>
      <point x="142" y="543" type="line"/>
      <point x="152" y="618"/>
      <point x="152" y="628" type="qcurve" smooth="yes"/>
      <point x="152" y="652"/>
      <point x="139" y="666" type="qcurve" smooth="yes"/>
      <point x="125" y="680"/>
      <point x="107" y="680" type="qcurve" smooth="yes"/>
      <point x="87" y="680"/>
      <point x="75" y="666" type="qcurve" smooth="yes"/>
      <point x="64" y="652"/>
      <point x="64" y="621" type="qcurve" smooth="yes"/>
      <point x="64" y="595"/>
      <point x="71" y="540" type="qcurve"/>
    </contour>
    <contour>
      <point x="263" y="396" type="line"/>
      <point x="287" y="396" type="line"/>
      <point x="311" y="539" type="line"/>
      <point x="319" y="593"/>
      <point x="319" y="628" type="qcurve" smooth="yes"/>
      <point x="319" y="651"/>
      <point x="306" y="666" type="qcurve"/>
      <point x="290" y="680"/>
      <point x="275" y="680" type="qcurve" smooth="yes"/>
      <point x="258" y="680"/>
      <point x="242" y="666" type="qcurve"/>
      <point x="230" y="653"/>
      <point x="230" y="621" type="qcurve" smooth="yes"/>
      <point x="230" y="601"/>
      <point x="231" y="597" type="qcurve" smooth="yes"/>
      <point x="239" y="538" type="line"/>
    </contour>
  </outline>
</glyph>
<glyph name="numbersign" format="2">
  <advance width="489"/>
  <unicode hex="0023"/>
  <outline>
    <contour>
      <point x="145" y="256" type="line"/>
      <point x="175" y="416" type="line"/>
      <point x="335" y="416" type="line"/>
      <point x="302" y="256" type="line"/>
    </contour>
    <contour>
      <point x="55" y="-12" type="line"/>
      <point x="95" y="-12" type="line"/>
      <point x="138" y="216" type="line"/>
      <point x="296" y="216" type="line"/>
      <point x="252" y="-12" type="line"/>
      <point x="292" y="-12" type="line"/>
      <point x="336" y="216" type="line"/>
      <point x="456" y="216" type="line"/>
      <point x="456" y="256" type="line"/>
      <point x="342" y="256" type="line"/>
      <point x="373" y="416" type="line"/>
      <point x="456" y="416" type="line"/>
      <point x="456" y="456" type="line"/>
      <point x="381" y="456" type="line"/>
      <point x="424" y="676" type="line"/>
      <point x="384" y="676" type="line"/>
      <point x="341" y="456" type="line"/>
      <point x="183" y="456" type="line"/>
      <point x="226" y="676" type="line"/>
      <point x="186" y="676" type="line"/>
      <point x="144" y="456" type="line"/>
      <point x="20" y="456" type="line"/>
      <point x="20" y="416" type="line"/>
      <point x="137" y="416" type="line"/>
      <point x="105" y="256" type="line"/>
      <point x="20" y="256" type="line"/>
      <point x="20" y="216" type="line"/>
      <point x="98" y="216" type="line"/>
    </contour>
  </outline>
</glyph>
<glyph name="dollar" format="2">
  <advance width="474"/>
  <unicode hex="0024"/>
  <outline>
    <contour>
      <point x="248" y="20" type="line"/>
      <point x="248" y="284" type="line"/>
      <point x="325" y="229"/>
      <point x="341" y="203" type="qcurve"/>
      <point x="360" y="177"/>
      <point x="360" y="142" type="qcurve" smooth="yes"/>
      <point x="360" y="113"/>
      <point x="346" y="83" type="qcurve"/>
      <point x="330" y="55"/>
      <point x="302" y="38" type="qcurve"/>
      <point x="286" y="26"/>
      <point x="248" y="20" type="qcurve"/>
    </contour>
    <contour>
      <point x="217" y="416" type="line"/>
      <point x="165" y="451"/>
      <point x="145" y="483" type="qcurve" smooth="yes"/>
      <point x="124" y="515"/>
      <point x="124" y="549" type="qcurve" smooth="yes"/>
      <point x="124" y="588"/>
      <point x="148" y="613" type="qcurve"/>
      <point x="167" y="638"/>
      <point x="217" y="644" type="qcurve"/>
    </contour>
    <contour>
      <point x="50" y="164" type="line"/>
      <point x="50" y="27" type="line"/>
      <point x="95" y="7"/>
      <point x="134" y="-2" type="qcurve"/>
      <point x="183" y="-11"/>
      <point x="217" y="-12" type="qcurve"/>
      <point x="217" y="-72" type="line"/>
      <point x="248" y="-72" type="line"/>
      <point x="248" y="-12" type="line"/>
      <point x="334" y="-5"/>
      <point x="385" y="48" type="qcurve" smooth="yes"/>
      <point x="434" y="100"/>
      <point x="434" y="166" type="qcurve" smooth="yes"/>
      <point x="434" y="226"/>
      <point x="401" y="268" type="qcurve"/>
      <point x="364" y="311"/>
      <point x="248" y="395" type="qcurve"/>
      <point x="248" y="645" type="line"/>
      <point x="313" y="638"/>
      <point x="347" y="602" type="qcurve" smooth="yes"/>
      <point x="379" y="568"/>
      <point x="387" y="488" type="qcurve"/>
      <point x="407" y="488" type="line"/>
      <point x="407" y="634" type="line"/>
      <point x="331" y="664"/>
      <point x="315" y="667" type="qcurve"/>
      <point x="286" y="675"/>
      <point x="248" y="676" type="qcurve"/>
      <point x="248" y="724" type="line"/>
      <point x="217" y="724" type="line"/>
      <point x="217" y="676" type="line"/>
      <point x="136" y="667"/>
      <point x="94" y="622" type="qcurve" smooth="yes"/>
      <point x="50" y="575"/>
      <point x="50" y="517" type="qcurve" smooth="yes"/>
      <point x="50" y="464"/>
      <point x="76" y="426" type="qcurve" smooth="yes"/>
      <point x="109" y="377"/>
      <point x="217" y="306" type="qcurve"/>
      <point x="217" y="20" type="line"/>
      <point x="149" y="27"/>
      <point x="110" y="63" type="qcurve"/>
      <point x="74" y="100"/>
      <point x="69" y="164" type="qcurve"/>
    </contour>
  </outline>
</glyph>
<glyph name="percent" format="2">
  <advance width="798"/>
  <unicode hex="0025"/>
  <outline>
    <contour>
      <point x="632" y="308" type="line"/>
      <point x="653" y="308"/>
      <point x="668" y="283" type="qcurve" smooth="yes"/>
      <point x="689" y="246"/>
      <point x="689" y="154" type="qcurve" smooth="yes"/>
      <point x="689" y="66"/>
      <point x="668" y="31" type="qcurve"/>
      <point x="653" y="4"/>
      <point x="632" y="4" type="qcurve" smooth="yes"/>
      <point x="609" y="4"/>
      <point x="593" y="29" type="qcurve"/>
      <point x="573" y="64"/>
      <point x="573" y="152" type="qcurve" smooth="yes"/>
      <point x="573" y="247"/>
      <point x="593" y="282" type="qcurve"/>
      <point x="610" y="308"/>
      <point x="632" y="308" type="qcurve"/>
    </contour>
    <contour>
      <point x="630" y="332" type="line"/>
      <point x="599" y="332"/>
      <point x="566" y="311" type="qcurve"/>
      <point x="537" y="290"/>
      <point x="517" y="247" type="qcurve"/>
      <point x="500" y="207"/>
      <point x="500" y="152" type="qcurve" smooth="yes"/>
      <point x="500" y="96"/>
      <point x="517" y="58" type="qcurve"/>
      <point x="537" y="17"/>
      <point x="566" y="-6" type="qcurve" smooth="yes"/>
      <point x="595" y="-28"/>
      <point x="632" y="-28" type="qcurve" smooth="yes"/>
      <point x="688" y="-28"/>
      <point x="724" y="18" type="qcurve"/>
      <point x="763" y="65"/>
      <point x="763" y="152" type="qcurve" smooth="yes"/>
      <point x="763" y="198"/>
      <point x="746" y="246" type="qcurve"/>
      <point x="729" y="287"/>
      <point x="695" y="310" type="qcurve"/>
      <point x="667" y="332"/>
      <point x="630" y="332" type="qcurve"/>
    </contour>
    <contour>
      <point x="163" y="648" type="line"/>
      <point x="186" y="648"/>
      <point x="199" y="623" type="qcurve" smooth="yes"/>
      <point x="221" y="583"/>
      <point x="221" y="494" type="qcurve" smooth="yes"/>
      <point x="221" y="409"/>
      <point x="199" y="369" type="qcurve"/>
      <point x="183" y="344"/>
      <point x="162" y="344" type="qcurve" smooth="yes"/>
      <point x="148" y="344"/>
      <point x="139" y="353" type="qcurve"/>
      <point x="123" y="366"/>
      <point x="114" y="394" type="qcurve"/>
      <point x="104" y="431"/>
      <point x="104" y="497" type="qcurve" smooth="yes"/>
      <point x="104" y="588"/>
      <point x="122" y="619" type="qcurve"/>
      <point x="142" y="648"/>
      <point x="163" y="648" type="qcurve"/>
    </contour>
    <contour>
      <point x="165" y="680" type="line"/>
      <point x="132" y="680"/>
      <point x="99" y="659" type="qcurve"/>
      <point x="64" y="632"/>
      <point x="50" y="594" type="qcurve"/>
      <point x="31" y="550"/>
      <point x="31" y="499" type="qcurve" smooth="yes"/>
      <point x="31" y="447"/>
      <point x="50" y="405" type="qcurve"/>
      <point x="65" y="366"/>
      <point x="98" y="342" type="qcurve"/>
      <point x="126" y="320"/>
      <point x="164" y="320" type="qcurve" smooth="yes"/>
      <point x="216" y="320"/>
      <point x="257" y="367" type="qcurve"/>
      <point x="293" y="414"/>
      <point x="293" y="499" type="qcurve" smooth="yes"/>
      <point x="293" y="573"/>
      <point x="261" y="625" type="qcurve" smooth="yes"/>
      <point x="227" y="680"/>
      <point x="165" y="680" type="qcurve"/>
    </contour>
    <contour>
      <point x="650" y="680" type="line"/>
      <point x="605" y="680" type="line"/>
      <point x="137" y="-28" type="line"/>
      <point x="183" y="-28" type="line"/>
    </contour>
  </outline>
</glyph>
<glyph name="ampersand" format="2">
  <advance width="757"/>
  <unicode hex="0026"/>
  <outline>
    <contour>
      <point x="390" y="112" type="qcurve"/>
      <point x="341" y="73"/>
      <point x="313" y="60" type="qcurve" smooth="yes"/>
      <point x="286" y="48"/>
      <point x="256" y="48" type="qcurve" smooth="yes"/>
      <point x="198" y="48"/>
      <point x="167" y="88" type="qcurve"/>
      <point x="134" y="126"/>
      <point x="134" y="179" type="qcurve" smooth="yes"/>
      <point x="134" y="226"/>
      <point x="162" y="266" type="qcurve" smooth="yes"/>
      <point x="190" y="305"/>
      <point x="248" y="340" type="qcurve"/>
      <point x="270" y="289"/>
      <point x="302" y="240" type="qcurve"/>
      <point x="312" y="221"/>
    </contour>
    <contour>
      <point x="311" y="415" type="qcurve"/>
      <point x="304" y="435"/>
      <point x="301" y="448" type="qcurve" smooth="yes"/>
      <point x="297" y="462" type="line" smooth="yes"/>
      <point x="285" y="502"/>
      <point x="284" y="504" type="qcurve" smooth="yes"/>
      <point x="277" y="528"/>
      <point x="277" y="559" type="qcurve" smooth="yes"/>
      <point x="277" y="589"/>
      <point x="297" y="618" type="qcurve" smooth="yes"/>
      <point x="318" y="648"/>
      <point x="357" y="648" type="qcurve" smooth="yes"/>
      <point x="387" y="648"/>
      <point x="407" y="625" type="qcurve" smooth="yes"/>
      <point x="428" y="603"/>
      <point x="428" y="565" type="qcurve" smooth="yes"/>
      <point x="428" y="520"/>
      <point x="398" y="482" type="qcurve" smooth="yes"/>
      <point x="368" y="443"/>
    </contour>
    <contour>
      <point x="497" y="428" type="line"/>
      <point x="497" y="408" type="line"/>
      <point x="518" y="407"/>
      <point x="528" y="393" type="qcurve" smooth="yes"/>
      <point x="541" y="377"/>
      <point x="541" y="354" type="qcurve" smooth="yes"/>
      <point x="541" y="287"/>
      <point x="457" y="183" type="qcurve"/>
      <point x="387" y="286"/>
      <point x="328" y="386" type="qcurve"/>
      <point x="419" y="435"/>
      <point x="451" y="471" type="qcurve" smooth="yes"/>
      <point x="486" y="512"/>
      <point x="486" y="561" type="qcurve" smooth="yes"/>
      <point x="486" y="611"/>
      <point x="451" y="646" type="qcurve" smooth="yes"/>
      <point x="417" y="680"/>
      <point x="360" y="680" type="qcurve" smooth="yes"/>
      <point x="298" y="680"/>
      <point x="254" y="646" type="qcurve" smooth="yes"/>
      <point x="196" y="603"/>
      <point x="196" y="518" type="qcurve" smooth="yes"/>
      <point x="196" y="486"/>
      <point x="203" y="456" type="qcurve"/>
      <point x="211" y="415"/>
      <point x="231" y="372" type="qcurve"/>
      <point x="119" y="309"/>
      <point x="77" y="251" type="qcurve"/>
      <point x="38" y="194"/>
      <point x="38" y="133" type="qcurve" smooth="yes"/>
      <point x="38" y="75"/>
      <point x="83" y="31" type="qcurve" smooth="yes"/>
      <point x="128" y="-12"/>
      <point x="207" y="-12" type="qcurve" smooth="yes"/>
      <point x="262" y="-12"/>
      <point x="308" y="9" type="qcurve" smooth="yes"/>
      <point x="359" y="32"/>
      <point x="415" y="84" type="qcurve"/>
      <point x="458" y="34"/>
      <point x="500" y="10" type="qcurve"/>
      <point x="535" y="-12"/>
      <point x="579" y="-12" type="qcurve" smooth="yes"/>
      <point x="630" y="-12"/>
      <point x="667" y="21" type="qcurve" smooth="yes"/>
      <point x="705" y="54"/>
      <point x="723" y="123" type="qcurve"/>
      <point x="705" y="136" type="line"/>
      <point x="695" y="99"/>
      <point x="674" y="83" type="qcurve"/>
      <point x="654" y="64"/>
      <point x="618" y="64" type="qcurve" smooth="yes"/>
      <point x="586" y="64"/>
      <point x="554" y="85" type="qcurve"/>
      <point x="519" y="106"/>
      <point x="480" y="156" type="qcurve"/>
      <point x="526" y="214"/>
      <point x="574" y="298" type="qcurve" smooth="yes"/>
      <point x="619" y="376"/>
      <point x="635" y="390" type="qcurve"/>
      <point x="655" y="405"/>
      <point x="695" y="408" type="qcurve"/>
      <point x="695" y="428" type="line"/>
    </contour>
  </outline>
</glyph>
<glyph name="quotesingle" format="2">
  <advance width="328"/>
  <unicode hex="0027"/>
  <outline>
    <contour>
      <point x="67" y="365" type="line"/>
      <point x="90" y="370" type="line"/>
      <point x="118" y="526" type="line"/>
      <point x="118" y="539" type="line"/>
      <point x="120" y="544"/>
      <point x="120" y="545" type="qcurve"/>
      <point x="120" y="544"/>
      <point x="122" y="544" type="qcurve"/>
      <point x="123" y="555"/>
      <point x="125" y="570" type="qcurve" smooth="yes"/>
      <point x="129" y="600"/>
      <point x="129" y="612" type="qcurve" smooth="yes"/>
      <point x="129" y="623"/>
      <point x="127" y="636" type="qcurve"/>
      <point x="128" y="635"/>
      <point x="129" y="635" type="qcurve"/>
      <point x="129" y="636"/>
      <point x="120" y="649" type="qcurve"/>
      <point x="109" y="663"/>
      <point x="104" y="668" type="qcurve"/>
      <point x="93" y="668"/>
      <point x="77" y="671" type="qcurve"/>
      <point x="66" y="672"/>
      <point x="63" y="672" type="qcurve" smooth="yes"/>
      <point x="46" y="672"/>
      <point x="32" y="658" type="qcurve"/>
      <point x="21" y="644"/>
      <point x="21" y="613" type="qcurve" smooth="yes"/>
      <point x="21" y="586"/>
      <point x="31" y="532" type="qcurve"/>
    </contour>
  </outline>
</glyph>
<glyph name="parenleft" format="2">
  <advance width="331"/>
  <unicode hex="0028"/>
  <outline>
    <contour>
      <point x="298" y="-196" type="line"/>
      <point x="248" y="-161"/>
      <point x="219" y="-124" type="qcurve" smooth="yes"/>
      <point x="190" y="-88"/>
      <point x="170" y="-46" type="qcurve"/>
      <point x="153" y="-2"/>
      <point x="140" y="63" type="qcurve"/>
      <point x="124" y="151"/>
      <point x="124" y="253" type="qcurve" smooth="yes"/>
      <point x="124" y="352"/>
      <point x="143" y="439" type="qcurve" smooth="yes"/>
      <point x="163" y="530"/>
      <point x="200" y="585" type="qcurve" smooth="yes"/>
      <point x="240" y="644"/>
      <point x="298" y="676" type="qcurve"/>
      <point x="298" y="696" type="line"/>
      <point x="184" y="644"/>
      <point x="108" y="517" type="qcurve" smooth="yes"/>
      <point x="35" y="395"/>
      <point x="35" y="240" type="qcurve" smooth="yes"/>
      <point x="35" y="136"/>
      <point x="73" y="39" type="qcurve" smooth="yes"/>
      <point x="111" y="-59"/>
      <point x="178" y="-129" type="qcurve"/>
      <point x="228" y="-179"/>
      <point x="298" y="-216" type="qcurve"/>
    </contour>
  </outline>
</glyph>
<glyph name="parenright" format="2">
  <advance width="327"/>
  <unicode hex="0029"/>
  <outline>
    <contour>
      <point x="23" y="676" type="line"/>
      <point x="70" y="643"/>
      <point x="104" y="604" type="qcurve"/>
      <point x="131" y="567"/>
      <point x="152" y="526" type="qcurve"/>
      <point x="169" y="487"/>
      <point x="182" y="418" type="qcurve"/>
      <point x="197" y="325"/>
      <point x="197" y="227" type="qcurve" smooth="yes"/>
      <point x="197" y="124"/>
      <point x="178" y="42" type="qcurve"/>
      <point x="161" y="-46"/>
      <point x="121" y="-105" type="qcurve" smooth="yes"/>
      <point x="82" y="-163"/>
      <point x="23" y="-196" type="qcurve"/>
      <point x="23" y="-216" type="line"/>
      <point x="140" y="-164"/>
      <point x="213" y="-37" type="qcurve" smooth="yes"/>
      <point x="287" y="91"/>
      <point x="287" y="241" type="qcurve" smooth="yes"/>
      <point x="287" y="342"/>
      <point x="248" y="442" type="qcurve"/>
      <point x="212" y="540"/>
      <point x="144" y="609" type="qcurve"/>
      <point x="97" y="659"/>
      <point x="23" y="696" type="qcurve"/>
    </contour>
  </outline>
</glyph>
<glyph name="asterisk" format="2">
  <advance width="470"/>
  <unicode hex="002A"/>
  <outline>
    <contour>
      <point x="236" y="508" type="qcurve"/>
      <point x="214" y="524"/>
      <point x="183" y="557" type="qcurve"/>
      <point x="160" y="586"/>
      <point x="139" y="598" type="qcurve"/>
      <point x="125" y="608"/>
      <point x="105" y="608" type="qcurve" smooth="yes"/>
      <point x="94" y="608"/>
      <point x="80" y="597" type="qcurve"/>
      <point x="69" y="586"/>
      <point x="69" y="573" type="qcurve" smooth="yes"/>
      <point x="69" y="551"/>
      <point x="90" y="534" type="qcurve"/>
      <point x="105" y="525"/>
      <point x="164" y="511" type="qcurve"/>
      <point x="202" y="503"/>
      <point x="226" y="490" type="qcurve"/>
      <point x="197" y="478"/>
      <point x="167" y="472" type="qcurve" smooth="yes"/>
      <point x="123" y="462"/>
      <point x="108" y="456" type="qcurve"/>
      <point x="90" y="446"/>
      <point x="79" y="434" type="qcurve"/>
      <point x="69" y="419"/>
      <point x="69" y="408" type="qcurve" smooth="yes"/>
      <point x="69" y="395"/>
      <point x="81" y="384" type="qcurve" smooth="yes"/>
      <point x="93" y="372"/>
      <point x="108" y="372" type="qcurve" smooth="yes"/>
      <point x="120" y="372"/>
      <point x="134" y="380" type="qcurve" smooth="yes"/>
      <point x="152" y="391"/>
      <point x="187" y="431" type="qcurve" smooth="yes"/>
      <point x="207" y="454"/>
      <point x="236" y="473" type="qcurve"/>
      <point x="236" y="454"/>
      <point x="231" y="437" type="qcurve"/>
      <point x="231" y="436" type="line"/>
      <point x="227" y="417"/>
      <point x="222" y="406" type="qcurve"/>
      <point x="222" y="404"/>
      <point x="221" y="400" type="qcurve" smooth="yes"/>
      <point x="220" y="397" type="line"/>
      <point x="219" y="394" type="line"/>
      <point x="218" y="393"/>
      <point x="218" y="391" type="qcurve"/>
      <point x="206" y="354"/>
      <point x="206" y="333" type="qcurve" smooth="yes"/>
      <point x="206" y="309"/>
      <point x="216" y="299" type="qcurve" smooth="yes"/>
      <point x="231" y="284"/>
      <point x="248" y="284" type="qcurve" smooth="yes"/>
      <point x="258" y="284"/>
      <point x="272" y="298" type="qcurve"/>
      <point x="284" y="312"/>
      <point x="284" y="332" type="qcurve" smooth="yes"/>
      <point x="284" y="359"/>
      <point x="266" y="413" type="qcurve" smooth="yes"/>
      <point x="256" y="446"/>
      <point x="256" y="473" type="qcurve"/>
      <point x="286" y="449"/>
      <point x="303" y="428" type="qcurve"/>
      <point x="336" y="392"/>
      <point x="350" y="383" type="qcurve" smooth="yes"/>
      <point x="370" y="372"/>
      <point x="383" y="372" type="qcurve" smooth="yes"/>
      <point x="393" y="372"/>
      <point x="407" y="383" type="qcurve"/>
      <point x="418" y="394"/>
      <point x="418" y="408" type="qcurve" smooth="yes"/>
      <point x="418" y="427"/>
      <point x="401" y="444" type="qcurve" smooth="yes"/>
      <point x="383" y="461"/>
      <point x="326" y="471" type="qcurve" smooth="yes"/>
      <point x="287" y="478"/>
      <point x="264" y="491" type="qcurve"/>
      <point x="290" y="504"/>
      <point x="326" y="510" type="qcurve"/>
      <point x="388" y="523"/>
      <point x="402" y="539" type="qcurve"/>
      <point x="418" y="552"/>
      <point x="418" y="571" type="qcurve" smooth="yes"/>
      <point x="418" y="586"/>
      <point x="407" y="597" type="qcurve"/>
      <point x="393" y="608"/>
      <point x="381" y="608" type="qcurve" smooth="yes"/>
      <point x="367" y="608"/>
      <point x="350" y="599" type="qcurve" smooth="yes"/>
      <point x="337" y="592"/>
      <point x="302" y="551" type="qcurve" smooth="yes"/>
      <point x="284" y="529"/>
      <point x="256" y="509" type="qcurve"/>
      <point x="262" y="557"/>
      <point x="271" y="583" type="qcurve" smooth="yes"/>
      <point x="284" y="624"/>
      <point x="284" y="644" type="qcurve" smooth="yes"/>
      <point x="284" y="667"/>
      <point x="273" y="683" type="qcurve" smooth="yes"/>
      <point x="263" y="696"/>
      <point x="248" y="696" type="qcurve" smooth="yes"/>
      <point x="228" y="696"/>
      <point x="218" y="683" type="qcurve"/>
      <point x="206" y="670"/>
      <point x="206" y="642" type="qcurve" smooth="yes"/>
      <point x="206" y="631"/>
      <point x="222" y="575" type="qcurve"/>
      <point x="236" y="541"/>
    </contour>
  </outline>
</glyph>
<glyph name="plus" format="2">
  <advance width="548"/>
  <unicode hex="002B"/>
  <outline>
    <contour>
      <point x="252" y="72" type="line"/>
      <point x="291" y="72" type="line"/>
      <point x="291" y="312" type="line"/>
      <point x="523" y="312" type="line"/>
      <point x="523" y="352" type="line"/>
      <point x="291" y="352" type="line"/>
      <point x="291" y="592" type="line"/>
      <point x="252" y="592" type="line"/>
      <point x="252" y="352" type="line"/>
      <point x="20" y="352" type="line"/>
      <point x="20" y="312" type="line"/>
      <point x="252" y="312" type="line"/>
    </contour>
  </outline>
</glyph>
<glyph name="comma" format="2">
  <advance width="243"/>
  <unicode hex="002C"/>
  <outline>
    <contour>
      <point x="46" y="-164" type="line"/>
      <point x="124" y="-138"/>
      <point x="157" y="-96" type="qcurve" smooth="yes"/>
      <point x="190" y="-53"/>
      <point x="190" y="-2" type="qcurve" smooth="yes"/>
      <point x="190" y="39"/>
      <point x="165" y="72" type="qcurve"/>
      <point x="141" y="100"/>
      <point x="108" y="100" type="qcurve" smooth="yes"/>
      <point x="86" y="100"/>
      <point x="64" y="83" type="qcurve"/>
      <point x="46" y="65"/>
      <point x="46" y="42" type="qcurve" smooth="yes"/>
      <point x="46" y="16"/>
      <point x="59" y="3" type="qcurve"/>
      <point x="73" y="-12"/>
      <point x="97" y="-12" type="qcurve" smooth="yes"/>
      <point x="107" y="-12"/>
      <point x="114" y="-8" type="qcurve"/>
      <point x="130" y="2"/>
      <point x="137" y="2" type="qcurve" smooth="yes"/>
      <point x="140" y="2"/>
      <point x="143" y="-2" type="qcurve"/>
      <point x="148" y="-7"/>
      <point x="148" y="-18" type="qcurve" smooth="yes"/>
      <point x="148" y="-58"/>
      <point x="121" y="-92" type="qcurve"/>
      <point x="96" y="-127"/>
      <point x="46" y="-143" type="qcurve"/>
    </contour>
  </outline>
</glyph>
<glyph name="hyphen" format="2">
  <advance width="308"/>
  <unicode hex="002D"/>
  <outline>
    <contour>
      <point x="35" y="260" type="line"/>
      <point x="35" y="188" type="line"/>
      <point x="279" y="188" type="line"/>
      <point x="279" y="260" type="line"/>
    </contour>
  </outline>
</glyph>
<glyph name="period" format="2">
  <advance width="243"/>
  <unicode hex="002E"/>
  <outline>
    <contour>
      <point x="124" y="100" type="qcurve" smooth="yes"/>
      <point x="102" y="100"/>
      <point x="86" y="84" type="qcurve" smooth="yes"/>
      <point x="69" y="67"/>
      <point x="69" y="44" type="qcurve" smooth="yes"/>
      <point x="69" y="22"/>
      <point x="86" y="5" type="qcurve" smooth="yes"/>
      <point x="103" y="-12"/>
      <point x="124" y="-12" type="qcurve" smooth="yes"/>
      <point x="145" y="-12"/>
      <point x="162" y="5" type="qcurve" smooth="yes"/>
      <point x="178" y="21"/>
      <point x="178" y="44" type="qcurve" smooth="yes"/>
      <point x="178" y="68"/>
      <point x="163" y="84" type="qcurve" smooth="yes"/>
      <point x="149" y="100"/>
    </contour>
  </outline>
</glyph>
<glyph name="slash" format="2">
  <advance width="275"/>
  <unicode hex="002F"/>
  <outline>
    <contour>
      <point x="273" y="696" type="line"/>
      <point x="232" y="696" type="line"/>
      <point x="0" y="-12" type="line"/>
      <point x="41" y="-12" type="line"/>
    </contour>
  </outline>
</glyph>
<glyph name="zero" format="2">
  <advance width="479"/>
  <unicode hex="0030"/>
  <outline>
    <contour>
      <point x="128" y="315" type="line"/>
      <point x="128" y="398"/>
      <point x="140" y="489" type="qcurve" smooth="yes"/>
      <point x="152" y="574"/>
      <point x="187" y="618" type="qcurve"/>
      <point x="214" y="648"/>
      <point x="244" y="648" type="qcurve" smooth="yes"/>
      <point x="276" y="648"/>
      <point x="293" y="632" type="qcurve"/>
      <point x="321" y="609"/>
      <point x="337" y="551" type="qcurve" smooth="yes"/>
      <point x="360" y="470"/>
      <point x="360" y="360" type="qcurve" smooth="yes"/>
      <point x="360" y="202"/>
      <point x="338" y="120" type="qcurve" smooth="yes"/>
      <point x="324" y="67"/>
      <point x="296" y="40" type="qcurve"/>
      <point x="269" y="16"/>
      <point x="242" y="16" type="qcurve" smooth="yes"/>
      <point x="187" y="16"/>
      <point x="160" y="90" type="qcurve" smooth="yes"/>
      <point x="128" y="180"/>
      <point x="128" y="315" type="qcurve"/>
    </contour>
    <contour>
      <point x="39" y="327" type="line"/>
      <point x="39" y="196"/>
      <point x="90" y="100" type="qcurve" smooth="yes"/>
      <point x="150" y="-12"/>
      <point x="241" y="-12" type="qcurve" smooth="yes"/>
      <point x="290" y="-12"/>
      <point x="337" y="25" type="qcurve" smooth="yes"/>
      <point x="386" y="63"/>
      <point x="417" y="142" type="qcurve" smooth="yes"/>
      <point x="449" y="224"/>
      <point x="449" y="337" type="qcurve" smooth="yes"/>
      <point x="449" y="504"/>
      <point x="376" y="598" type="qcurve"/>
      <point x="319" y="676"/>
      <point x="246" y="676" type="qcurve" smooth="yes"/>
      <point x="204" y="676"/>
      <point x="158" y="644" type="qcurve"/>
      <point x="107" y="605"/>
      <point x="71" y="523" type="qcurve"/>
      <point x="39" y="441"/>
      <point x="39" y="327" type="qcurve"/>
    </contour>
  </outline>
</glyph>
<glyph name="one" format="2">
  <advance width="507"/>
  <unicode hex="0031"/>
  <outline>
    <contour>
      <point x="113" y="596" type="line"/>
      <point x="119" y="580" type="line"/>
      <point x="151" y="595"/>
      <point x="167" y="595" type="qcurve" smooth="yes"/>
      <point x="183" y="595"/>
      <point x="189" y="588" type="qcurve"/>
      <point x="200" y="579"/>
      <point x="200" y="565" type="qcurve"/>
      <point x="204" y="550"/>
      <point x="204" y="472" type="qcurve" smooth="yes"/>
      <point x="204" y="116" type="line" smooth="yes"/>
      <point x="204" y="52"/>
      <point x="200" y="44" type="qcurve"/>
      <point x="194" y="31"/>
      <point x="182" y="24" type="qcurve"/>
      <point x="171" y="18"/>
      <point x="124" y="16" type="qcurve"/>
      <point x="124" y="0" type="line"/>
      <point x="365" y="0" type="line"/>
      <point x="365" y="16" type="line"/>
      <point x="321" y="18"/>
      <point x="306" y="25" type="qcurve"/>
      <point x="292" y="32"/>
      <point x="287" y="46" type="qcurve"/>
      <point x="283" y="59"/>
      <point x="283" y="116" type="qcurve" smooth="yes"/>
      <point x="283" y="676" type="line"/>
      <point x="267" y="676" type="line"/>
    </contour>
  </outline>
</glyph>
<glyph name="two" format="2">
  <advance width="493"/>
  <unicode hex="0032"/>
  <outline>
    <contour>
      <point x="442" y="130" type="line"/>
      <point x="422" y="130" type="line"/>
      <point x="410" y="109"/>
      <point x="394" y="96" type="qcurve" smooth="yes"/>
      <point x="379" y="85"/>
      <point x="357" y="80" type="qcurve"/>
      <point x="345" y="76"/>
      <point x="288" y="76" type="qcurve" smooth="yes"/>
      <point x="123" y="76" type="line"/>
      <point x="179" y="132"/>
      <point x="267" y="234" type="qcurve" smooth="yes"/>
      <point x="346" y="324"/>
      <point x="381" y="401" type="qcurve"/>
      <point x="402" y="455"/>
      <point x="402" y="502" type="qcurve" smooth="yes"/>
      <point x="402" y="572"/>
      <point x="350" y="624" type="qcurve"/>
      <point x="300" y="676"/>
      <point x="219" y="676" type="qcurve" smooth="yes"/>
      <point x="146" y="676"/>
      <point x="95" y="628" type="qcurve"/>
      <point x="44" y="574"/>
      <point x="35" y="488" type="qcurve"/>
      <point x="51" y="488" type="line"/>
      <point x="71" y="544"/>
      <point x="108" y="572" type="qcurve" smooth="yes"/>
      <point x="143" y="600"/>
      <point x="194" y="600" type="qcurve" smooth="yes"/>
      <point x="248" y="600"/>
      <point x="284" y="560" type="qcurve" smooth="yes"/>
      <point x="321" y="520"/>
      <point x="321" y="457" type="qcurve" smooth="yes"/>
      <point x="321" y="374"/>
      <point x="253" y="276" type="qcurve"/>
      <point x="186" y="176"/>
      <point x="20" y="19" type="qcurve"/>
      <point x="20" y="0" type="line"/>
      <point x="397" y="0" type="line"/>
    </contour>
  </outline>
</glyph>
<glyph name="three" format="2">
  <advance width="484"/>
  <unicode hex="0033"/>
  <outline>
    <contour>
      <point x="46" y="536" type="line"/>
      <point x="61" y="528" type="line"/>
      <point x="115" y="608"/>
      <point x="187" y="608" type="qcurve" smooth="yes"/>
      <point x="233" y="608"/>
      <point x="263" y="578" type="qcurve" smooth="yes"/>
      <point x="293" y="547"/>
      <point x="293" y="497" type="qcurve" smooth="yes"/>
      <point x="293" y="457"/>
      <point x="277" y="426" type="qcurve"/>
      <point x="260" y="396"/>
      <point x="222" y="372" type="qcurve"/>
      <point x="183" y="349"/>
      <point x="148" y="344" type="qcurve"/>
      <point x="148" y="328" type="line"/>
      <point x="163" y="328" type="line" smooth="yes"/>
      <point x="203" y="328"/>
      <point x="233" y="312" type="qcurve"/>
      <point x="271" y="295"/>
      <point x="287" y="277" type="qcurve"/>
      <point x="303" y="264"/>
      <point x="312" y="236" type="qcurve"/>
      <point x="329" y="199"/>
      <point x="329" y="161" type="qcurve" smooth="yes"/>
      <point x="329" y="107"/>
      <point x="293" y="71" type="qcurve"/>
      <point x="260" y="32"/>
      <point x="212" y="32" type="qcurve" smooth="yes"/>
      <point x="201" y="32"/>
      <point x="174" y="37" type="qcurve"/>
      <point x="165" y="39"/>
      <point x="135" y="55" type="qcurve"/>
      <point x="112" y="70"/>
      <point x="99" y="72" type="qcurve"/>
      <point x="92" y="76"/>
      <point x="77" y="76" type="qcurve" smooth="yes"/>
      <point x="59" y="76"/>
      <point x="50" y="66" type="qcurve"/>
      <point x="39" y="55"/>
      <point x="39" y="40" type="qcurve" smooth="yes"/>
      <point x="39" y="21"/>
      <point x="61" y="5" type="qcurve"/>
      <point x="87" y="-12"/>
      <point x="150" y="-12" type="qcurve" smooth="yes"/>
      <point x="284" y="-12"/>
      <point x="350" y="70" type="qcurve" smooth="yes"/>
      <point x="402" y="134"/>
      <point x="402" y="219" type="qcurve" smooth="yes"/>
      <point x="402" y="278"/>
      <point x="372" y="324" type="qcurve" smooth="yes"/>
      <point x="342" y="368"/>
      <point x="283" y="392" type="qcurve"/>
      <point x="372" y="469"/>
      <point x="372" y="542" type="qcurve" smooth="yes"/>
      <point x="372" y="585"/>
      <point x="341" y="624" type="qcurve" smooth="yes"/>
      <point x="301" y="676"/>
      <point x="222" y="676" type="qcurve" smooth="yes"/>
      <point x="159" y="676"/>
      <point x="117" y="640" type="qcurve" smooth="yes"/>
      <point x="76" y="604"/>
      <point x="46" y="536" type="qcurve"/>
    </contour>
  </outline>
</glyph>
<glyph name="four" format="2">
  <advance width="489"/>
  <unicode hex="0034"/>
  <outline>
    <contour>
      <point x="287" y="244" type="line"/>
      <point x="61" y="244" type="line"/>
      <point x="287" y="576" type="line"/>
    </contour>
    <contour>
      <point x="449" y="244" type="line"/>
      <point x="365" y="244" type="line"/>
      <point x="365" y="676" type="line"/>
      <point x="312" y="676" type="line"/>
      <point x="15" y="237" type="line"/>
      <point x="15" y="176" type="line"/>
      <point x="287" y="176" type="line"/>
      <point x="287" y="0" type="line"/>
      <point x="365" y="0" type="line"/>
      <point x="365" y="176" type="line"/>
      <point x="449" y="176" type="line"/>
    </contour>
  </outline>
</glyph>
<glyph name="five" format="2">
  <advance width="489"/>
  <unicode hex="0035"/>
  <outline>
    <contour>
      <point x="418" y="664" type="line"/>
      <point x="190" y="664" type="line"/>
      <point x="68" y="404" type="line"/>
      <point x="162" y="401"/>
      <point x="209" y="379" type="qcurve"/>
      <point x="274" y="351"/>
      <point x="311" y="298" type="qcurve"/>
      <point x="348" y="248"/>
      <point x="348" y="185" type="qcurve" smooth="yes"/>
      <point x="348" y="124"/>
      <point x="307" y="80" type="qcurve"/>
      <point x="263" y="36"/>
      <point x="212" y="36" type="qcurve"/>
      <point x="177" y="38"/>
      <point x="139" y="64" type="qcurve" smooth="yes"/>
      <point x="124" y="75"/>
      <point x="109" y="84" type="qcurve" smooth="yes"/>
      <point x="102" y="88"/>
      <point x="88" y="88" type="qcurve" smooth="yes"/>
      <point x="70" y="88"/>
      <point x="60" y="78" type="qcurve" smooth="yes"/>
      <point x="50" y="66"/>
      <point x="50" y="53" type="qcurve" smooth="yes"/>
      <point x="50" y="29"/>
      <point x="77" y="9" type="qcurve" smooth="yes"/>
      <point x="104" y="-12"/>
      <point x="160" y="-12" type="qcurve" smooth="yes"/>
      <point x="217" y="-12"/>
      <point x="271" y="15" type="qcurve"/>
      <point x="310" y="33"/>
      <point x="338" y="64" type="qcurve"/>
      <point x="372" y="98"/>
      <point x="390" y="139" type="qcurve"/>
      <point x="410" y="178"/>
      <point x="410" y="235" type="qcurve" smooth="yes"/>
      <point x="410" y="325"/>
      <point x="347" y="389" type="qcurve" smooth="yes"/>
      <point x="273" y="464"/>
      <point x="144" y="484" type="qcurve"/>
      <point x="189" y="580" type="line"/>
      <point x="381" y="580" type="line"/>
    </contour>
  </outline>
</glyph>
<glyph name="six" format="2">
  <advance width="493"/>
  <unicode hex="0036"/>
  <outline>
    <contour>
      <point x="135" y="335" type="qcurve"/>
      <point x="173" y="360"/>
      <point x="196" y="368" type="qcurve" smooth="yes"/>
      <point x="222" y="376"/>
      <point x="234" y="376" type="qcurve" smooth="yes"/>
      <point x="292" y="376"/>
      <point x="325" y="315" type="qcurve"/>
      <point x="356" y="252"/>
      <point x="356" y="170" type="qcurve" smooth="yes"/>
      <point x="356" y="96"/>
      <point x="325" y="56" type="qcurve"/>
      <point x="292" y="16"/>
      <point x="252" y="16" type="qcurve" smooth="yes"/>
      <point x="220" y="16"/>
      <point x="194" y="39" type="qcurve"/>
      <point x="161" y="71"/>
      <point x="144" y="126" type="qcurve" smooth="yes"/>
      <point x="128" y="178"/>
      <point x="128" y="228" type="qcurve" smooth="yes"/>
      <point x="128" y="273"/>
    </contour>
    <contour>
      <point x="426" y="676" type="line"/>
      <point x="398" y="676" type="line" smooth="yes"/>
      <point x="351" y="676"/>
      <point x="292" y="655" type="qcurve" smooth="yes"/>
      <point x="234" y="633"/>
      <point x="169" y="571" type="qcurve"/>
      <point x="107" y="508"/>
      <point x="73" y="429" type="qcurve" smooth="yes"/>
      <point x="39" y="351"/>
      <point x="39" y="260" type="qcurve" smooth="yes"/>
      <point x="39" y="119"/>
      <point x="128" y="33" type="qcurve"/>
      <point x="173" y="-12"/>
      <point x="239" y="-12" type="qcurve" smooth="yes"/>
      <point x="335" y="-12"/>
      <point x="394" y="71" type="qcurve"/>
      <point x="442" y="142"/>
      <point x="442" y="224" type="qcurve" smooth="yes"/>
      <point x="442" y="310"/>
      <point x="394" y="365" type="qcurve"/>
      <point x="348" y="420"/>
      <point x="279" y="420" type="qcurve" smooth="yes"/>
      <point x="213" y="420"/>
      <point x="143" y="370" type="qcurve"/>
      <point x="166" y="447"/>
      <point x="186" y="485" type="qcurve" smooth="yes"/>
      <point x="209" y="530"/>
      <point x="248" y="572" type="qcurve"/>
      <point x="291" y="614"/>
      <point x="326" y="631" type="qcurve"/>
      <point x="360" y="650"/>
      <point x="426" y="656" type="qcurve"/>
    </contour>
  </outline>
</glyph>
<glyph name="seven" format="2">
  <advance width="497"/>
  <unicode hex="0037"/>
  <outline>
    <contour>
      <point x="97" y="664" type="line"/>
      <point x="39" y="511" type="line"/>
      <point x="51" y="506" type="line"/>
      <point x="77" y="552"/>
      <point x="115" y="575" type="qcurve" smooth="yes"/>
      <point x="135" y="588"/>
      <point x="190" y="588" type="qcurve" smooth="yes"/>
      <point x="365" y="588" type="line"/>
      <point x="175" y="-12" type="line"/>
      <point x="229" y="-12" type="line"/>
      <point x="435" y="646" type="line"/>
      <point x="435" y="664" type="line"/>
    </contour>
  </outline>
</glyph>
<glyph name="eight" format="2">
  <advance width="493"/>
  <unicode hex="0038"/>
  <outline>
    <contour>
      <point x="209" y="316" type="qcurve"/>
      <point x="310" y="234"/>
      <point x="346" y="181" type="qcurve" smooth="yes"/>
      <point x="365" y="153"/>
      <point x="365" y="118" type="qcurve" smooth="yes"/>
      <point x="365" y="75"/>
      <point x="332" y="46" type="qcurve"/>
      <point x="302" y="16"/>
      <point x="251" y="16" type="qcurve" smooth="yes"/>
      <point x="202" y="16"/>
      <point x="165" y="54" type="qcurve"/>
      <point x="132" y="92"/>
      <point x="132" y="154" type="qcurve" smooth="yes"/>
      <point x="132" y="199"/>
      <point x="150" y="242" type="qcurve"/>
      <point x="171" y="285"/>
    </contour>
    <contour>
      <point x="261" y="387" type="qcurve"/>
      <point x="184" y="453" type="line"/>
      <point x="161" y="476"/>
      <point x="148" y="502" type="qcurve" smooth="yes"/>
      <point x="135" y="529"/>
      <point x="135" y="552" type="qcurve" smooth="yes"/>
      <point x="135" y="591"/>
      <point x="167" y="620" type="qcurve"/>
      <point x="195" y="648"/>
      <point x="244" y="648" type="qcurve" smooth="yes"/>
      <point x="290" y="648"/>
      <point x="320" y="619" type="qcurve" smooth="yes"/>
      <point x="348" y="591"/>
      <point x="348" y="539" type="qcurve" smooth="yes"/>
      <point x="348" y="499"/>
      <point x="332" y="470" type="qcurve"/>
      <point x="320" y="443"/>
    </contour>
    <contour>
      <point x="186" y="334" type="qcurve"/>
      <point x="115" y="281"/>
      <point x="87" y="239" type="qcurve" smooth="yes"/>
      <point x="59" y="198"/>
      <point x="59" y="151" type="qcurve" smooth="yes"/>
      <point x="59" y="93"/>
      <point x="99" y="47" type="qcurve" smooth="yes"/>
      <point x="152" y="-12"/>
      <point x="242" y="-12" type="qcurve" smooth="yes"/>
      <point x="322" y="-12"/>
      <point x="378" y="38" type="qcurve"/>
      <point x="429" y="88"/>
      <point x="429" y="158" type="qcurve" smooth="yes"/>
      <point x="429" y="216"/>
      <point x="394" y="263" type="qcurve" smooth="yes"/>
      <point x="366" y="301"/>
      <point x="283" y="368" type="qcurve"/>
      <point x="367" y="425"/>
      <point x="390" y="459" type="qcurve"/>
      <point x="415" y="500"/>
      <point x="415" y="534" type="qcurve" smooth="yes"/>
      <point x="415" y="590"/>
      <point x="367" y="633" type="qcurve" smooth="yes"/>
      <point x="321" y="676"/>
      <point x="242" y="676" type="qcurve" smooth="yes"/>
      <point x="160" y="676"/>
      <point x="114" y="630" type="qcurve" smooth="yes"/>
      <point x="66" y="584"/>
      <point x="66" y="519" type="qcurve" smooth="yes"/>
      <point x="66" y="475"/>
      <point x="88" y="438" type="qcurve"/>
      <point x="106" y="403"/>
    </contour>
  </outline>
</glyph>
<glyph name="nine" format="2">
  <advance width="493"/>
  <unicode hex="0039"/>
  <outline>
    <contour>
      <point x="346" y="329" type="qcurve"/>
      <point x="324" y="310"/>
      <point x="293" y="299" type="qcurve"/>
      <point x="255" y="288"/>
      <point x="241" y="288" type="qcurve" smooth="yes"/>
      <point x="200" y="288"/>
      <point x="165" y="330" type="qcurve"/>
      <point x="124" y="389"/>
      <point x="124" y="492" type="qcurve" smooth="yes"/>
      <point x="124" y="572"/>
      <point x="157" y="609" type="qcurve"/>
      <point x="186" y="648"/>
      <point x="229" y="648" type="qcurve" smooth="yes"/>
      <point x="261" y="648"/>
      <point x="293" y="619" type="qcurve"/>
      <point x="322" y="587"/>
      <point x="337" y="534" type="qcurve" smooth="yes"/>
      <point x="352" y="479"/>
      <point x="352" y="431" type="qcurve" smooth="yes"/>
      <point x="352" y="394"/>
    </contour>
    <contour>
      <point x="55" y="-12" type="line"/>
      <point x="81" y="-12" type="line" smooth="yes"/>
      <point x="173" y="-12"/>
      <point x="244" y="40" type="qcurve"/>
      <point x="337" y="103"/>
      <point x="390" y="198" type="qcurve" smooth="yes"/>
      <point x="442" y="294"/>
      <point x="442" y="403" type="qcurve" smooth="yes"/>
      <point x="442" y="527"/>
      <point x="373" y="609" type="qcurve" smooth="yes"/>
      <point x="318" y="676"/>
      <point x="239" y="676" type="qcurve" smooth="yes"/>
      <point x="144" y="676"/>
      <point x="87" y="594" type="qcurve" smooth="yes"/>
      <point x="39" y="527"/>
      <point x="39" y="440" type="qcurve" smooth="yes"/>
      <point x="39" y="351"/>
      <point x="87" y="298" type="qcurve" smooth="yes"/>
      <point x="137" y="244"/>
      <point x="203" y="244" type="qcurve" smooth="yes"/>
      <point x="266" y="244"/>
      <point x="337" y="293" type="qcurve"/>
      <point x="319" y="210"/>
      <point x="268" y="136" type="qcurve"/>
      <point x="220" y="62"/>
      <point x="167" y="34" type="qcurve" smooth="yes"/>
      <point x="116" y="6"/>
      <point x="55" y="4" type="qcurve"/>
    </contour>
  </outline>
</glyph>
<glyph name="colon" format="2">
  <advance width="284"/>
  <unicode hex="003A"/>
  <outline>
    <contour>
      <point x="139" y="100" type="line"/>
      <point x="117" y="100"/>
      <point x="101" y="84" type="qcurve" smooth="yes"/>
      <point x="86" y="69"/>
      <point x="86" y="44" type="qcurve" smooth="yes"/>
      <point x="86" y="22"/>
      <point x="101" y="5" type="qcurve"/>
      <point x="118" y="-12"/>
      <point x="139" y="-12" type="qcurve" smooth="yes"/>
      <point x="163" y="-12"/>
      <point x="178" y="5" type="qcurve" smooth="yes"/>
      <point x="194" y="23"/>
      <point x="194" y="44" type="qcurve" smooth="yes"/>
      <point x="194" y="66"/>
      <point x="178" y="84" type="qcurve"/>
      <point x="165" y="100"/>
      <point x="139" y="100" type="qcurve"/>
    </contour>
    <contour>
      <point x="139" y="460" type="line"/>
      <point x="117" y="460"/>
      <point x="101" y="444" type="qcurve" smooth="yes"/>
      <point x="86" y="429"/>
      <point x="86" y="404" type="qcurve" smooth="yes"/>
      <point x="86" y="382"/>
      <point x="101" y="365" type="qcurve"/>
      <point x="120" y="348"/>
      <point x="139" y="348" type="qcurve" smooth="yes"/>
      <point x="161" y="348"/>
      <point x="178" y="365" type="qcurve"/>
      <point x="194" y="383"/>
      <point x="194" y="404" type="qcurve" smooth="yes"/>
      <point x="194" y="426"/>
      <point x="178" y="444" type="qcurve"/>
      <point x="165" y="460"/>
      <point x="139" y="460" type="qcurve"/>
    </contour>
  </outline>
</glyph>
<glyph name="semicolon" format="2">
  <advance width="275"/>
  <unicode hex="003B"/>
  <outline>
    <contour>
      <point x="69" y="-164" type="line"/>
      <point x="146" y="-139"/>
      <point x="178" y="-96" type="qcurve"/>
      <point x="213" y="-54"/>
      <point x="213" y="-2" type="qcurve" smooth="yes"/>
      <point x="213" y="44"/>
      <point x="188" y="72" type="qcurve" smooth="yes"/>
      <point x="164" y="100"/>
      <point x="132" y="100" type="qcurve" smooth="yes"/>
      <point x="108" y="100"/>
      <point x="88" y="83" type="qcurve" smooth="yes"/>
      <point x="69" y="66"/>
      <point x="69" y="42" type="qcurve" smooth="yes"/>
      <point x="69" y="17"/>
      <point x="84" y="3" type="qcurve" smooth="yes"/>
      <point x="98" y="-12"/>
      <point x="119" y="-12" type="qcurve" smooth="yes"/>
      <point x="129" y="-12"/>
      <point x="138" y="-6" type="qcurve" smooth="yes"/>
      <point x="157" y="8"/>
      <point x="160" y="8" type="qcurve" smooth="yes"/>
      <point x="163" y="8"/>
      <point x="167" y="4" type="qcurve"/>
      <point x="170" y="-4"/>
      <point x="170" y="-13" type="qcurve" smooth="yes"/>
      <point x="170" y="-54"/>
      <point x="144" y="-89" type="qcurve" smooth="yes"/>
      <point x="119" y="-125"/>
      <point x="69" y="-142" type="qcurve"/>
    </contour>
    <contour>
      <point x="135" y="460" type="qcurve" smooth="yes"/>
      <point x="111" y="460"/>
      <point x="98" y="444" type="qcurve"/>
      <point x="81" y="427"/>
      <point x="81" y="404" type="qcurve" smooth="yes"/>
      <point x="81" y="382"/>
      <point x="98" y="365" type="qcurve" smooth="yes"/>
      <point x="117" y="348"/>
      <point x="135" y="348" type="qcurve" smooth="yes"/>
      <point x="157" y="348"/>
      <point x="174" y="365" type="qcurve" smooth="yes"/>
      <point x="190" y="381"/>
      <point x="190" y="404" type="qcurve" smooth="yes"/>
      <point x="190" y="428"/>
      <point x="174" y="444" type="qcurve"/>
      <point x="160" y="460"/>
    </contour>
  </outline>
</glyph>
<glyph name="less" format="2">
  <advance width="548"/>
  <unicode hex="003C"/>
  <outline>
    <contour>
      <point x="20" y="344" type="line"/>
      <point x="20" y="324" type="line"/>
      <point x="530" y="92" type="line"/>
      <point x="530" y="135" type="line"/>
      <point x="94" y="334" type="line"/>
      <point x="530" y="533" type="line"/>
      <point x="530" y="576" type="line"/>
    </contour>
  </outline>
</glyph>
<glyph name="equal" format="2">
  <advance width="548"/>
  <unicode hex="003D"/>
  <outline>
    <contour>
      <point x="20" y="272" type="line"/>
      <point x="20" y="232" type="line"/>
      <point x="526" y="232" type="line"/>
      <point x="526" y="272" type="line"/>
    </contour>
    <contour>
      <point x="20" y="432" type="line"/>
      <point x="20" y="392" type="line"/>
      <point x="526" y="392" type="line"/>
      <point x="526" y="432" type="line"/>
    </contour>
  </outline>
</glyph>
<glyph name="greater" format="2">
  <advance width="544"/>
  <unicode hex="003E"/>
  <outline>
    <contour>
      <point x="526" y="324" type="line"/>
      <point x="526" y="344" type="line"/>
      <point x="15" y="576" type="line"/>
      <point x="15" y="533" type="line"/>
      <point x="454" y="334" type="line"/>
      <point x="15" y="135" type="line"/>
      <point x="15" y="92" type="line"/>
    </contour>
  </outline>
</glyph>
<glyph name="question" format="2">
  <advance width="434"/>
  <unicode hex="003F"/>
  <outline>
    <contour>
      <point x="210" y="100" type="qcurve" smooth="yes"/>
      <point x="186" y="100"/>
      <point x="173" y="84" type="qcurve"/>
      <point x="157" y="68"/>
      <point x="157" y="44" type="qcurve" smooth="yes"/>
      <point x="157" y="21"/>
      <point x="173" y="5" type="qcurve" smooth="yes"/>
      <point x="189" y="-12"/>
      <point x="210" y="-12" type="qcurve" smooth="yes"/>
      <point x="233" y="-12"/>
      <point x="248" y="5" type="qcurve"/>
      <point x="266" y="22"/>
      <point x="266" y="44" type="qcurve" smooth="yes"/>
      <point x="266" y="68"/>
      <point x="248" y="84" type="qcurve"/>
      <point x="236" y="100"/>
    </contour>
    <contour>
      <point x="217" y="160" type="line"/>
      <point x="220" y="214"/>
      <point x="237" y="252" type="qcurve" smooth="yes"/>
      <point x="247" y="277"/>
      <point x="321" y="365" type="qcurve"/>
      <point x="368" y="418"/>
      <point x="381" y="454" type="qcurve"/>
      <point x="397" y="490"/>
      <point x="397" y="527" type="qcurve" smooth="yes"/>
      <point x="397" y="578"/>
      <point x="362" y="622" type="qcurve" smooth="yes"/>
      <point x="316" y="680"/>
      <point x="214" y="680" type="qcurve" smooth="yes"/>
      <point x="135" y="680"/>
      <point x="88" y="638" type="qcurve" smooth="yes"/>
      <point x="41" y="595"/>
      <point x="41" y="540" type="qcurve" smooth="yes"/>
      <point x="41" y="504"/>
      <point x="56" y="484" type="qcurve"/>
      <point x="76" y="464"/>
      <point x="93" y="464" type="qcurve" smooth="yes"/>
      <point x="109" y="464"/>
      <point x="119" y="476" type="qcurve" smooth="yes"/>
      <point x="130" y="489"/>
      <point x="130" y="504" type="qcurve" smooth="yes"/>
      <point x="130" y="516"/>
      <point x="117" y="544" type="qcurve"/>
      <point x="103" y="568"/>
      <point x="103" y="586" type="qcurve" smooth="yes"/>
      <point x="103" y="610"/>
      <point x="127" y="629" type="qcurve" smooth="yes"/>
      <point x="149" y="648"/>
      <point x="196" y="648" type="qcurve" smooth="yes"/>
      <point x="246" y="648"/>
      <point x="282" y="613" type="qcurve" smooth="yes"/>
      <point x="316" y="579"/>
      <point x="316" y="516" type="qcurve" smooth="yes"/>
      <point x="316" y="488"/>
      <point x="306" y="458" type="qcurve"/>
      <point x="298" y="429"/>
      <point x="266" y="374" type="qcurve" smooth="yes"/>
      <point x="225" y="303"/>
      <point x="213" y="262" type="qcurve" smooth="yes"/>
      <point x="203" y="230"/>
      <point x="197" y="160" type="qcurve"/>
    </contour>
  </outline>
</glyph>
<glyph name="at" format="2">
  <advance width="887"/>
  <unicode hex="0040"/>
  <outline>
    <contour>
      <point x="501" y="452" type="line"/>
      <point x="528" y="452"/>
      <point x="544" y="433" type="qcurve" smooth="yes"/>
      <point x="561" y="413"/>
      <point x="561" y="382" type="qcurve" smooth="yes"/>
      <point x="561" y="333"/>
      <point x="534" y="255" type="qcurve" smooth="yes"/>
      <point x="517" y="208"/>
      <point x="484" y="165" type="qcurve"/>
      <point x="455" y="124"/>
      <point x="421" y="98" type="qcurve"/>
      <point x="395" y="76"/>
      <point x="363" y="76" type="qcurve" smooth="yes"/>
      <point x="344" y="76"/>
      <point x="327" y="96" type="qcurve" smooth="yes"/>
      <point x="311" y="115"/>
      <point x="311" y="146" type="qcurve" smooth="yes"/>
      <point x="311" y="190"/>
      <point x="338" y="260" type="qcurve"/>
      <point x="379" y="361"/>
      <point x="429" y="413" type="qcurve" smooth="yes"/>
      <point x="468" y="452"/>
      <point x="501" y="452" type="qcurve"/>
    </contour>
    <contour>
      <point x="671" y="468" type="line"/>
      <point x="594" y="460" type="line"/>
      <point x="579" y="407" type="line"/>
      <point x="571" y="439"/>
      <point x="550" y="456" type="qcurve"/>
      <point x="533" y="472"/>
      <point x="497" y="472" type="qcurve" smooth="yes"/>
      <point x="452" y="472"/>
      <point x="400" y="432" type="qcurve" smooth="yes"/>
      <point x="326" y="377"/>
      <point x="281" y="289" type="qcurve" smooth="yes"/>
      <point x="236" y="201"/>
      <point x="236" y="130" type="qcurve" smooth="yes"/>
      <point x="236" y="76"/>
      <point x="262" y="47" type="qcurve"/>
      <point x="286" y="16"/>
      <point x="320" y="16" type="qcurve" smooth="yes"/>
      <point x="354" y="16"/>
      <point x="394" y="43" type="qcurve" smooth="yes"/>
      <point x="436" y="71"/>
      <point x="504" y="158" type="qcurve"/>
      <point x="495" y="106"/>
      <point x="495" y="84" type="qcurve" smooth="yes"/>
      <point x="495" y="53"/>
      <point x="514" y="34" type="qcurve"/>
      <point x="534" y="16"/>
      <point x="570" y="16" type="qcurve" smooth="yes"/>
      <point x="637" y="16"/>
      <point x="698" y="56" type="qcurve" smooth="yes"/>
      <point x="760" y="98"/>
      <point x="797" y="184" type="qcurve" smooth="yes"/>
      <point x="836" y="273"/>
      <point x="836" y="361" type="qcurve" smooth="yes"/>
      <point x="836" y="453"/>
      <point x="794" y="532" type="qcurve"/>
      <point x="753" y="613"/>
      <point x="674" y="654" type="qcurve" smooth="yes"/>
      <point x="596" y="696"/>
      <point x="496" y="696" type="qcurve" smooth="yes"/>
      <point x="376" y="696"/>
      <point x="271" y="633" type="qcurve"/>
      <point x="164" y="567"/>
      <point x="105" y="457" type="qcurve"/>
      <point x="46" y="344"/>
      <point x="46" y="213" type="qcurve" smooth="yes"/>
      <point x="46" y="94"/>
      <point x="99" y="-11" type="qcurve"/>
      <point x="156" y="-116"/>
      <point x="249" y="-169" type="qcurve" smooth="yes"/>
      <point x="344" y="-224"/>
      <point x="460" y="-224" type="qcurve" smooth="yes"/>
      <point x="606" y="-224"/>
      <point x="716" y="-136" type="qcurve"/>
      <point x="831" y="-47"/>
      <point x="871" y="88" type="qcurve"/>
      <point x="846" y="88" type="line"/>
      <point x="789" y="-48"/>
      <point x="689" y="-121" type="qcurve"/>
      <point x="586" y="-192"/>
      <point x="462" y="-192" type="qcurve" smooth="yes"/>
      <point x="365" y="-192"/>
      <point x="274" y="-145" type="qcurve" smooth="yes"/>
      <point x="186" y="-99"/>
      <point x="138" y="-4" type="qcurve"/>
      <point x="89" y="87"/>
      <point x="89" y="202" type="qcurve" smooth="yes"/>
      <point x="89" y="324"/>
      <point x="143" y="438" type="qcurve"/>
      <point x="202" y="551"/>
      <point x="293" y="612" type="qcurve"/>
      <point x="388" y="672"/>
      <point x="496" y="672" type="qcurve" smooth="yes"/>
      <point x="579" y="672"/>
      <point x="655" y="634" type="qcurve"/>
      <point x="725" y="597"/>
      <point x="767" y="525" type="qcurve"/>
      <point x="806" y="449"/>
      <point x="806" y="369" type="qcurve" smooth="yes"/>
      <point x="806" y="282"/>
      <point x="771" y="201" type="qcurve"/>
      <point x="739" y="123"/>
      <point x="689" y="84" type="qcurve"/>
      <point x="640" y="48"/>
      <point x="605" y="48" type="qcurve" smooth="yes"/>
      <point x="591" y="48"/>
      <point x="579" y="60" type="qcurve"/>
      <point x="570" y="71"/>
      <point x="570" y="87" type="qcurve" smooth="yes"/>
      <point x="570" y="104"/>
      <point x="576" y="137" type="qcurve"/>
      <point x="586" y="183"/>
      <point x="615" y="276" type="qcurve"/>
    </contour>
  </outline>
</glyph>
<glyph name="A" format="2">
  <advance width="707"/>
  <unicode hex="0041"/>
  <outline>
    <contour>
      <point x="429" y="256" type="line"/>
      <point x="210" y="256" type="line"/>
      <point x="323" y="524" type="line"/>
    </contour>
    <contour>
      <point x="445" y="220" type="line"/>
      <point x="482" y="127" type="line"/>
      <point x="500" y="79"/>
      <point x="500" y="57" type="qcurve" smooth="yes"/>
      <point x="500" y="41"/>
      <point x="486" y="30" type="qcurve" smooth="yes"/>
      <point x="472" y="18"/>
      <point x="435" y="16" type="qcurve"/>
      <point x="435" y="0" type="line"/>
      <point x="688" y="0" type="line"/>
      <point x="688" y="16" type="line"/>
      <point x="651" y="19"/>
      <point x="626" y="39" type="qcurve"/>
      <point x="602" y="62"/>
      <point x="578" y="126" type="qcurve"/>
      <point x="358" y="680" type="line"/>
      <point x="342" y="680" type="line"/>
      <point x="113" y="134" type="line"/>
      <point x="82" y="57"/>
      <point x="59" y="36" type="qcurve" smooth="yes"/>
      <point x="45" y="23"/>
      <point x="6" y="16" type="qcurve"/>
      <point x="6" y="0" type="line"/>
      <point x="209" y="0" type="line"/>
      <point x="209" y="16" type="line"/>
      <point x="164" y="20"/>
      <point x="149" y="32" type="qcurve" smooth="yes"/>
      <point x="134" y="43"/>
      <point x="134" y="58" type="qcurve" smooth="yes"/>
      <point x="134" y="80"/>
      <point x="152" y="117" type="qcurve"/>
      <point x="194" y="220" type="line"/>
    </contour>
  </outline>
</glyph>
<glyph name="B" format="2">
  <advance width="635"/>
  <unicode hex="0042"/>
  <outline>
    <contour>
      <point x="196" y="45" type="line"/>
      <point x="196" y="320" type="line"/>
      <point x="210" y="322"/>
      <point x="230" y="323" type="qcurve"/>
      <point x="241" y="324"/>
      <point x="279" y="324" type="qcurve" smooth="yes"/>
      <point x="345" y="324"/>
      <point x="394" y="304" type="qcurve"/>
      <point x="438" y="282"/>
      <point x="461" y="247" type="qcurve" smooth="yes"/>
      <point x="482" y="214"/>
      <point x="482" y="172" type="qcurve" smooth="yes"/>
      <point x="482" y="113"/>
      <point x="437" y="72" type="qcurve" smooth="yes"/>
      <point x="394" y="32"/>
      <point x="306" y="32" type="qcurve" smooth="yes"/>
      <point x="242" y="32"/>
      <point x="196" y="45" type="qcurve"/>
    </contour>
    <contour>
      <point x="196" y="363" type="line"/>
      <point x="196" y="621" type="line"/>
      <point x="240" y="632"/>
      <point x="279" y="632" type="qcurve" smooth="yes"/>
      <point x="363" y="632"/>
      <point x="410" y="591" type="qcurve"/>
      <point x="455" y="549"/>
      <point x="455" y="490" type="qcurve" smooth="yes"/>
      <point x="455" y="453"/>
      <point x="440" y="420" type="qcurve"/>
      <point x="423" y="386"/>
      <point x="390" y="372" type="qcurve"/>
      <point x="360" y="356"/>
      <point x="286" y="356" type="qcurve" smooth="yes"/>
      <point x="262" y="356"/>
      <point x="248" y="357" type="qcurve"/>
      <point x="245" y="358"/>
      <point x="236" y="358" type="qcurve" smooth="yes"/>
      <point x="232" y="358" type="line"/>
      <point x="207" y="360"/>
      <point x="196" y="363" type="qcurve"/>
    </contour>
    <contour>
      <point x="445" y="337" type="line"/>
      <point x="500" y="357"/>
      <point x="528" y="397" type="qcurve" smooth="yes"/>
      <point x="556" y="437"/>
      <point x="556" y="486" type="qcurve" smooth="yes"/>
      <point x="556" y="546"/>
      <point x="519" y="590" type="qcurve"/>
      <point x="484" y="635"/>
      <point x="411" y="652" type="qcurve"/>
      <point x="369" y="664"/>
      <point x="288" y="664" type="qcurve" smooth="yes"/>
      <point x="14" y="664" type="line"/>
      <point x="14" y="648" type="line"/>
      <point x="38" y="648" type="line" smooth="yes"/>
      <point x="76" y="648"/>
      <point x="94" y="626" type="qcurve" smooth="yes"/>
      <point x="107" y="610"/>
      <point x="107" y="548" type="qcurve" smooth="yes"/>
      <point x="107" y="116" type="line" smooth="yes"/>
      <point x="107" y="61"/>
      <point x="95" y="43" type="qcurve"/>
      <point x="80" y="16"/>
      <point x="38" y="16" type="qcurve" smooth="yes"/>
      <point x="14" y="16" type="line"/>
      <point x="14" y="0" type="line"/>
      <point x="317" y="0" type="line" smooth="yes"/>
      <point x="425" y="0"/>
      <point x="477" y="21" type="qcurve" smooth="yes"/>
      <point x="530" y="41"/>
      <point x="561" y="87" type="qcurve" smooth="yes"/>
      <point x="590" y="129"/>
      <point x="590" y="181" type="qcurve" smooth="yes"/>
      <point x="590" y="246"/>
      <point x="545" y="291" type="qcurve"/>
      <point x="509" y="324"/>
      <point x="445" y="337" type="qcurve"/>
    </contour>
  </outline>
</glyph>
<glyph name="C" format="2">
  <advance width="638"/>
  <unicode hex="0043"/>
  <outline>
    <contour>
      <point x="573" y="680" type="line"/>
      <point x="558" y="680" type="line"/>
      <point x="555" y="662"/>
      <point x="540" y="645" type="qcurve" smooth="yes"/>
      <point x="533" y="636"/>
      <point x="519" y="636" type="qcurve" smooth="yes"/>
      <point x="507" y="636"/>
      <point x="491" y="646" type="qcurve"/>
      <point x="427" y="680"/>
      <point x="356" y="680" type="qcurve" smooth="yes"/>
      <point x="264" y="680"/>
      <point x="194" y="634" type="qcurve"/>
      <point x="121" y="589"/>
      <point x="77" y="505" type="qcurve"/>
      <point x="35" y="420"/>
      <point x="35" y="322" type="qcurve" smooth="yes"/>
      <point x="35" y="198"/>
      <point x="99" y="107" type="qcurve"/>
      <point x="188" y="-16"/>
      <point x="346" y="-16" type="qcurve" smooth="yes"/>
      <point x="435" y="-16"/>
      <point x="496" y="26" type="qcurve"/>
      <point x="558" y="63"/>
      <point x="608" y="156" type="qcurve"/>
      <point x="593" y="164" type="line"/>
      <point x="538" y="86"/>
      <point x="490" y="56" type="qcurve" smooth="yes"/>
      <point x="446" y="28"/>
      <point x="381" y="28" type="qcurve" smooth="yes"/>
      <point x="311" y="28"/>
      <point x="254" y="64" type="qcurve" smooth="yes"/>
      <point x="200" y="99"/>
      <point x="170" y="166" type="qcurve"/>
      <point x="143" y="234"/>
      <point x="143" y="323" type="qcurve" smooth="yes"/>
      <point x="143" y="434"/>
      <point x="173" y="507" type="qcurve" smooth="yes"/>
      <point x="202" y="581"/>
      <point x="252" y="615" type="qcurve" smooth="yes"/>
      <point x="303" y="648"/>
      <point x="365" y="648" type="qcurve" smooth="yes"/>
      <point x="442" y="648"/>
      <point x="491" y="602" type="qcurve"/>
      <point x="545" y="554"/>
      <point x="573" y="452" type="qcurve"/>
      <point x="589" y="452" type="line"/>
    </contour>
  </outline>
</glyph>
<glyph name="D" format="2">
  <advance width="693"/>
  <unicode hex="0044"/>
  <outline>
    <contour>
      <point x="197" y="46" type="line"/>
      <point x="197" y="614" type="line"/>
      <point x="261" y="628"/>
      <point x="297" y="628" type="qcurve" smooth="yes"/>
      <point x="409" y="628"/>
      <point x="484" y="548" type="qcurve" smooth="yes"/>
      <point x="558" y="468"/>
      <point x="558" y="330" type="qcurve" smooth="yes"/>
      <point x="558" y="195"/>
      <point x="484" y="113" type="qcurve" smooth="yes"/>
      <point x="411" y="32"/>
      <point x="301" y="32" type="qcurve" smooth="yes"/>
      <point x="269" y="32"/>
      <point x="197" y="46" type="qcurve"/>
    </contour>
    <contour>
      <point x="15" y="0" type="line"/>
      <point x="303" y="0" type="line" smooth="yes"/>
      <point x="491" y="0"/>
      <point x="583" y="104" type="qcurve"/>
      <point x="667" y="196"/>
      <point x="667" y="335" type="qcurve" smooth="yes"/>
      <point x="667" y="438"/>
      <point x="620" y="518" type="qcurve" smooth="yes"/>
      <point x="573" y="596"/>
      <point x="500" y="630" type="qcurve" smooth="yes"/>
      <point x="426" y="664"/>
      <point x="279" y="664" type="qcurve" smooth="yes"/>
      <point x="15" y="664" type="line"/>
      <point x="15" y="648" type="line"/>
      <point x="40" y="648" type="line" smooth="yes"/>
      <point x="79" y="648"/>
      <point x="95" y="626" type="qcurve"/>
      <point x="108" y="612"/>
      <point x="108" y="548" type="qcurve" smooth="yes"/>
      <point x="108" y="116" type="line" smooth="yes"/>
      <point x="108" y="59"/>
      <point x="98" y="43" type="qcurve" smooth="yes"/>
      <point x="82" y="16"/>
      <point x="40" y="16" type="qcurve" smooth="yes"/>
      <point x="15" y="16" type="line"/>
    </contour>
  </outline>
</glyph>
<glyph name="E" format="2">
  <advance width="592"/>
  <unicode hex="0045"/>
  <outline>
    <contour>
      <point x="202" y="628" type="line"/>
      <point x="376" y="628" type="line" smooth="yes"/>
      <point x="428" y="628"/>
      <point x="442" y="621" type="qcurve"/>
      <point x="467" y="611"/>
      <point x="477" y="592" type="qcurve"/>
      <point x="491" y="570"/>
      <point x="500" y="520" type="qcurve"/>
      <point x="519" y="520" type="line"/>
      <point x="511" y="664" type="line"/>
      <point x="20" y="664" type="line"/>
      <point x="20" y="648" type="line"/>
      <point x="41" y="648" type="line" smooth="yes"/>
      <point x="82" y="648"/>
      <point x="99" y="628" type="qcurve" smooth="yes"/>
      <point x="113" y="612"/>
      <point x="113" y="548" type="qcurve" smooth="yes"/>
      <point x="113" y="116" type="line" smooth="yes"/>
      <point x="113" y="69"/>
      <point x="108" y="51" type="qcurve"/>
      <point x="100" y="34"/>
      <point x="86" y="27" type="qcurve" smooth="yes"/>
      <point x="62" y="16"/>
      <point x="41" y="16" type="qcurve" smooth="yes"/>
      <point x="20" y="16" type="line"/>
      <point x="20" y="0" type="line"/>
      <point x="514" y="0" type="line"/>
      <point x="570" y="168" type="line"/>
      <point x="550" y="168" type="line"/>
      <point x="516" y="101"/>
      <point x="491" y="75" type="qcurve"/>
      <point x="464" y="51"/>
      <point x="442" y="44" type="qcurve"/>
      <point x="410" y="36"/>
      <point x="363" y="36" type="qcurve" smooth="yes"/>
      <point x="254" y="36" type="line" smooth="yes"/>
      <point x="227" y="36"/>
      <point x="218" y="42" type="qcurve" smooth="yes"/>
      <point x="210" y="46"/>
      <point x="204" y="57" type="qcurve"/>
      <point x="202" y="66"/>
      <point x="202" y="110" type="qcurve" smooth="yes"/>
      <point x="202" y="328" type="line"/>
      <point x="341" y="328" type="line" smooth="yes"/>
      <point x="379" y="328"/>
      <point x="398" y="319" type="qcurve"/>
      <point x="416" y="307"/>
      <point x="425" y="292" type="qcurve" smooth="yes"/>
      <point x="433" y="276"/>
      <point x="437" y="232" type="qcurve"/>
      <point x="454" y="232" type="line"/>
      <point x="454" y="460" type="line"/>
      <point x="437" y="460" type="line"/>
      <point x="436" y="404"/>
      <point x="411" y="381" type="qcurve" smooth="yes"/>
      <point x="391" y="364"/>
      <point x="341" y="364" type="qcurve" smooth="yes"/>
      <point x="202" y="364" type="line"/>
    </contour>
  </outline>
</glyph>
<glyph name="F" format="2">
  <advance width="531"/>
  <unicode hex="0046"/>
  <outline>
    <contour>
      <point x="190" y="628" type="line"/>
      <point x="332" y="628" type="line" smooth="yes"/>
      <point x="386" y="628"/>
      <point x="408" y="619" type="qcurve"/>
      <point x="433" y="608"/>
      <point x="446" y="588" type="qcurve" smooth="yes"/>
      <point x="459" y="569"/>
      <point x="469" y="520" type="qcurve"/>
      <point x="487" y="520" type="line"/>
      <point x="481" y="664" type="line"/>
      <point x="8" y="664" type="line"/>
      <point x="8" y="648" type="line"/>
      <point x="31" y="648" type="line" smooth="yes"/>
      <point x="56" y="648"/>
      <point x="75" y="636" type="qcurve"/>
      <point x="89" y="628"/>
      <point x="95" y="615" type="qcurve"/>
      <point x="100" y="600"/>
      <point x="100" y="548" type="qcurve" smooth="yes"/>
      <point x="100" y="116" type="line" smooth="yes"/>
      <point x="100" y="57"/>
      <point x="89" y="40" type="qcurve" smooth="yes"/>
      <point x="73" y="16"/>
      <point x="31" y="16" type="qcurve" smooth="yes"/>
      <point x="8" y="16" type="line"/>
      <point x="8" y="0" type="line"/>
      <point x="283" y="0" type="line"/>
      <point x="283" y="16" type="line"/>
      <point x="259" y="16" type="line" smooth="yes"/>
      <point x="237" y="16"/>
      <point x="216" y="28" type="qcurve" smooth="yes"/>
      <point x="202" y="36"/>
      <point x="196" y="49" type="qcurve"/>
      <point x="190" y="63"/>
      <point x="190" y="116" type="qcurve" smooth="yes"/>
      <point x="190" y="328" type="line"/>
      <point x="302" y="328" type="line" smooth="yes"/>
      <point x="336" y="328"/>
      <point x="351" y="319" type="qcurve"/>
      <point x="369" y="310"/>
      <point x="377" y="291" type="qcurve"/>
      <point x="387" y="274"/>
      <point x="387" y="232" type="qcurve"/>
      <point x="402" y="232" type="line"/>
      <point x="402" y="460" type="line"/>
      <point x="387" y="460" type="line"/>
      <point x="384" y="404"/>
      <point x="362" y="383" type="qcurve"/>
      <point x="345" y="364"/>
      <point x="302" y="364" type="qcurve" smooth="yes"/>
      <point x="190" y="364" type="line"/>
    </contour>
  </outline>
</glyph>
<glyph name="G" format="2">
  <advance width="703"/>
  <unicode hex="0047"/>
  <outline>
    <contour>
      <point x="589" y="680" type="line"/>
      <point x="573" y="680" type="line"/>
      <point x="572" y="653"/>
      <point x="565" y="648" type="qcurve"/>
      <point x="557" y="640"/>
      <point x="550" y="640" type="qcurve" smooth="yes"/>
      <point x="535" y="640"/>
      <point x="515" y="650" type="qcurve"/>
      <point x="477" y="663"/>
      <point x="435" y="675" type="qcurve"/>
      <point x="393" y="680"/>
      <point x="372" y="680" type="qcurve" smooth="yes"/>
      <point x="273" y="680"/>
      <point x="206" y="637" type="qcurve"/>
      <point x="124" y="587"/>
      <point x="76" y="490" type="qcurve"/>
      <point x="35" y="411"/>
      <point x="35" y="322" type="qcurve" smooth="yes"/>
      <point x="35" y="200"/>
      <point x="107" y="108" type="qcurve"/>
      <point x="201" y="-16"/>
      <point x="388" y="-16" type="qcurve" smooth="yes"/>
      <point x="444" y="-16"/>
      <point x="505" y="-2" type="qcurve"/>
      <point x="555" y="12"/>
      <point x="612" y="43" type="qcurve"/>
      <point x="612" y="248" type="line" smooth="yes"/>
      <point x="612" y="305"/>
      <point x="622" y="322" type="qcurve" smooth="yes"/>
      <point x="637" y="348"/>
      <point x="674" y="348" type="qcurve" smooth="yes"/>
      <point x="685" y="348" type="line"/>
      <point x="685" y="364" type="line"/>
      <point x="437" y="364" type="line"/>
      <point x="437" y="348" type="line"/>
      <point x="474" y="348"/>
      <point x="493" y="340" type="qcurve" smooth="yes"/>
      <point x="510" y="332"/>
      <point x="516" y="316" type="qcurve" smooth="yes"/>
      <point x="523" y="298"/>
      <point x="523" y="248" type="qcurve" smooth="yes"/>
      <point x="523" y="53" type="line"/>
      <point x="493" y="35"/>
      <point x="459" y="26" type="qcurve"/>
      <point x="432" y="16"/>
      <point x="390" y="16" type="qcurve" smooth="yes"/>
      <point x="325" y="16"/>
      <point x="272" y="53" type="qcurve" smooth="yes"/>
      <point x="214" y="92"/>
      <point x="178" y="169" type="qcurve"/>
      <point x="143" y="251"/>
      <point x="143" y="343" type="qcurve" smooth="yes"/>
      <point x="143" y="462"/>
      <point x="196" y="547" type="qcurve" smooth="yes"/>
      <point x="259" y="648"/>
      <point x="380" y="648" type="qcurve" smooth="yes"/>
      <point x="468" y="648"/>
      <point x="525" y="591" type="qcurve" smooth="yes"/>
      <point x="565" y="550"/>
      <point x="589" y="472" type="qcurve"/>
      <point x="604" y="472" type="line"/>
    </contour>
  </outline>
</glyph>
<glyph name="H" format="2">
  <advance width="703"/>
  <unicode hex="0048"/>
  <outline>
    <contour>
      <point x="197" y="356" type="line"/>
      <point x="197" y="548" type="line" smooth="yes"/>
      <point x="197" y="595"/>
      <point x="203" y="613" type="qcurve" smooth="yes"/>
      <point x="209" y="629"/>
      <point x="223" y="637" type="qcurve"/>
      <point x="250" y="648"/>
      <point x="267" y="648" type="qcurve" smooth="yes"/>
      <point x="291" y="648" type="line"/>
      <point x="291" y="664" type="line"/>
      <point x="15" y="664" type="line"/>
      <point x="15" y="648" type="line"/>
      <point x="39" y="648" type="line" smooth="yes"/>
      <point x="61" y="648"/>
      <point x="83" y="636" type="qcurve" smooth="yes"/>
      <point x="97" y="629"/>
      <point x="104" y="615" type="qcurve"/>
      <point x="108" y="600"/>
      <point x="108" y="548" type="qcurve" smooth="yes"/>
      <point x="108" y="116" type="line" smooth="yes"/>
      <point x="108" y="57"/>
      <point x="97" y="40" type="qcurve" smooth="yes"/>
      <point x="81" y="16"/>
      <point x="39" y="16" type="qcurve" smooth="yes"/>
      <point x="15" y="16" type="line"/>
      <point x="15" y="0" type="line"/>
      <point x="291" y="0" type="line"/>
      <point x="291" y="16" type="line"/>
      <point x="267" y="16" type="line" smooth="yes"/>
      <point x="246" y="16"/>
      <point x="223" y="28" type="qcurve" smooth="yes"/>
      <point x="209" y="36"/>
      <point x="203" y="49" type="qcurve"/>
      <point x="197" y="67"/>
      <point x="197" y="116" type="qcurve" smooth="yes"/>
      <point x="197" y="320" type="line"/>
      <point x="500" y="320" type="line"/>
      <point x="500" y="116" type="line" smooth="yes"/>
      <point x="500" y="58"/>
      <point x="487" y="40" type="qcurve" smooth="yes"/>
      <point x="471" y="16"/>
      <point x="429" y="16" type="qcurve" smooth="yes"/>
      <point x="407" y="16" type="line"/>
      <point x="407" y="0" type="line"/>
      <point x="681" y="0" type="line"/>
      <point x="681" y="16" type="line"/>
      <point x="658" y="16" type="line" smooth="yes"/>
      <point x="638" y="16"/>
      <point x="615" y="28" type="qcurve"/>
      <point x="597" y="39"/>
      <point x="594" y="49" type="qcurve" smooth="yes"/>
      <point x="589" y="64"/>
      <point x="589" y="116" type="qcurve" smooth="yes"/>
      <point x="589" y="548" type="line" smooth="yes"/>
      <point x="589" y="598"/>
      <point x="594" y="613" type="qcurve"/>
      <point x="597" y="630"/>
      <point x="615" y="637" type="qcurve" smooth="yes"/>
      <point x="640" y="648"/>
      <point x="658" y="648" type="qcurve" smooth="yes"/>
      <point x="681" y="648" type="line"/>
      <point x="681" y="664" type="line"/>
      <point x="407" y="664" type="line"/>
      <point x="407" y="648" type="line"/>
      <point x="429" y="648" type="line" smooth="yes"/>
      <point x="457" y="648"/>
      <point x="473" y="636" type="qcurve"/>
      <point x="491" y="629"/>
      <point x="494" y="615" type="qcurve"/>
      <point x="500" y="599"/>
      <point x="500" y="548" type="qcurve" smooth="yes"/>
      <point x="500" y="356" type="line"/>
    </contour>
  </outline>
</glyph>
<glyph name="I" format="2">
  <advance width="323"/>
  <unicode hex="0049"/>
  <outline>
    <contour>
      <point x="298" y="16" type="line"/>
      <point x="275" y="16" type="line" smooth="yes"/>
      <point x="254" y="16"/>
      <point x="231" y="28" type="qcurve" smooth="yes"/>
      <point x="213" y="38"/>
      <point x="212" y="49" type="qcurve"/>
      <point x="204" y="67"/>
      <point x="204" y="116" type="qcurve" smooth="yes"/>
      <point x="204" y="548" type="line" smooth="yes"/>
      <point x="204" y="605"/>
      <point x="217" y="624" type="qcurve"/>
      <point x="237" y="648"/>
      <point x="275" y="648" type="qcurve" smooth="yes"/>
      <point x="298" y="648" type="line"/>
      <point x="298" y="664" type="line"/>
      <point x="23" y="664" type="line"/>
      <point x="23" y="648" type="line"/>
      <point x="46" y="648" type="line" smooth="yes"/>
      <point x="71" y="648"/>
      <point x="90" y="636" type="qcurve" smooth="yes"/>
      <point x="107" y="625"/>
      <point x="110" y="615" type="qcurve"/>
      <point x="117" y="600"/>
      <point x="117" y="548" type="qcurve" smooth="yes"/>
      <point x="117" y="116" type="line" smooth="yes"/>
      <point x="117" y="56"/>
      <point x="104" y="40" type="qcurve"/>
      <point x="88" y="16"/>
      <point x="46" y="16" type="qcurve" smooth="yes"/>
      <point x="23" y="16" type="line"/>
      <point x="23" y="0" type="line"/>
      <point x="298" y="0" type="line"/>
    </contour>
  </outline>
</glyph>
<glyph name="J" format="2">
  <advance width="378"/>
  <unicode hex="004A"/>
  <outline>
    <contour>
      <point x="97" y="648" type="line"/>
      <point x="120" y="648" type="line" smooth="yes"/>
      <point x="145" y="648"/>
      <point x="164" y="636" type="qcurve"/>
      <point x="180" y="628"/>
      <point x="184" y="615" type="qcurve" smooth="yes"/>
      <point x="190" y="597"/>
      <point x="190" y="548" type="qcurve" smooth="yes"/>
      <point x="190" y="90" type="line" smooth="yes"/>
      <point x="190" y="53"/>
      <point x="178" y="33" type="qcurve"/>
      <point x="169" y="16"/>
      <point x="154" y="16" type="qcurve" smooth="yes"/>
      <point x="135" y="16"/>
      <point x="125" y="44" type="qcurve" smooth="yes"/>
      <point x="108" y="92"/>
      <point x="95" y="101" type="qcurve"/>
      <point x="81" y="112"/>
      <point x="68" y="112" type="qcurve" smooth="yes"/>
      <point x="46" y="112"/>
      <point x="31" y="97" type="qcurve"/>
      <point x="20" y="85"/>
      <point x="20" y="60" type="qcurve" smooth="yes"/>
      <point x="20" y="29"/>
      <point x="45" y="7" type="qcurve" smooth="yes"/>
      <point x="71" y="-16"/>
      <point x="114" y="-16" type="qcurve" smooth="yes"/>
      <point x="168" y="-16"/>
      <point x="209" y="19" type="qcurve" smooth="yes"/>
      <point x="250" y="55"/>
      <point x="263" y="100" type="qcurve"/>
      <point x="279" y="145"/>
      <point x="279" y="222" type="qcurve" smooth="yes"/>
      <point x="279" y="548" type="line" smooth="yes"/>
      <point x="279" y="606"/>
      <point x="291" y="624" type="qcurve"/>
      <point x="309" y="648"/>
      <point x="348" y="648" type="qcurve" smooth="yes"/>
      <point x="372" y="648" type="line"/>
      <point x="372" y="664" type="line"/>
      <point x="97" y="664" type="line"/>
    </contour>
  </outline>
</glyph>
<glyph name="K" format="2">
  <advance width="698"/>
  <unicode hex="004B"/>
  <outline>
    <contour>
      <point x="287" y="368" type="line"/>
      <point x="386" y="467" type="line"/>
      <point x="410" y="491" type="line"/>
      <point x="433" y="512"/>
      <point x="472" y="554" type="qcurve"/>
      <point x="473" y="556"/>
      <point x="480" y="563" type="qcurve" smooth="yes"/>
      <point x="482" y="565" type="line"/>
      <point x="484" y="566"/>
      <point x="484" y="567" type="qcurve"/>
      <point x="518" y="601"/>
      <point x="545" y="620" type="qcurve"/>
      <point x="565" y="636"/>
      <point x="588" y="642" type="qcurve"/>
      <point x="605" y="648"/>
      <point x="625" y="648" type="qcurve"/>
      <point x="625" y="664" type="line"/>
      <point x="387" y="664" type="line"/>
      <point x="387" y="648" type="line"/>
      <point x="402" y="648" type="line" smooth="yes"/>
      <point x="427" y="648"/>
      <point x="436" y="639" type="qcurve" smooth="yes"/>
      <point x="446" y="629"/>
      <point x="446" y="618" type="qcurve" smooth="yes"/>
      <point x="446" y="605"/>
      <point x="434" y="582" type="qcurve"/>
      <point x="403" y="539"/>
      <point x="262" y="405" type="qcurve" smooth="yes"/>
      <point x="217" y="361"/>
      <point x="197" y="345" type="qcurve"/>
      <point x="196" y="344" type="line"/>
      <point x="196" y="548" type="line" smooth="yes"/>
      <point x="196" y="596"/>
      <point x="203" y="613" type="qcurve"/>
      <point x="207" y="629"/>
      <point x="222" y="637" type="qcurve"/>
      <point x="249" y="648"/>
      <point x="267" y="648" type="qcurve" smooth="yes"/>
      <point x="289" y="648" type="line"/>
      <point x="289" y="664" type="line"/>
      <point x="15" y="664" type="line"/>
      <point x="15" y="648" type="line"/>
      <point x="38" y="648" type="line" smooth="yes"/>
      <point x="62" y="648"/>
      <point x="81" y="636" type="qcurve" smooth="yes"/>
      <point x="99" y="625"/>
      <point x="100" y="616" type="qcurve"/>
      <point x="108" y="598"/>
      <point x="108" y="548" type="qcurve" smooth="yes"/>
      <point x="108" y="116" type="line" smooth="yes"/>
      <point x="108" y="56"/>
      <point x="95" y="40" type="qcurve"/>
      <point x="79" y="16"/>
      <point x="38" y="16" type="qcurve" smooth="yes"/>
      <point x="15" y="16" type="line"/>
      <point x="15" y="0" type="line"/>
      <point x="289" y="0" type="line"/>
      <point x="289" y="16" type="line"/>
      <point x="267" y="16" type="line" smooth="yes"/>
      <point x="245" y="16"/>
      <point x="222" y="28" type="qcurve" smooth="yes"/>
      <point x="207" y="36"/>
      <point x="203" y="49" type="qcurve"/>
      <point x="196" y="66"/>
      <point x="196" y="116" type="qcurve" smooth="yes"/>
      <point x="196" y="332" type="line"/>
      <point x="419" y="106" type="line" smooth="yes"/>
      <point x="447" y="77"/>
      <point x="449" y="72" type="qcurve" smooth="yes"/>
      <point x="454" y="59"/>
      <point x="454" y="51" type="qcurve" smooth="yes"/>
      <point x="454" y="39"/>
      <point x="441" y="28" type="qcurve"/>
      <point x="431" y="16"/>
      <point x="402" y="16" type="qcurve"/>
      <point x="402" y="0" type="line"/>
      <point x="704" y="0" type="line"/>
      <point x="704" y="16" type="line"/>
      <point x="662" y="19"/>
      <point x="623" y="43" type="qcurve"/>
      <point x="585" y="63"/>
      <point x="526" y="126" type="qcurve"/>
    </contour>
  </outline>
</glyph>
<glyph name="L" format="2">
  <advance width="592"/>
  <unicode hex="004C"/>
  <outline>
    <contour>
      <point x="545" y="184" type="line"/>
      <point x="522" y="122"/>
      <point x="499" y="95" type="qcurve" smooth="yes"/>
      <point x="474" y="66"/>
      <point x="446" y="55" type="qcurve"/>
      <point x="410" y="44"/>
      <point x="345" y="44" type="qcurve" smooth="yes"/>
      <point x="298" y="44" type="line" smooth="yes"/>
      <point x="243" y="44"/>
      <point x="226" y="49" type="qcurve"/>
      <point x="213" y="54"/>
      <point x="209" y="64" type="qcurve" smooth="yes"/>
      <point x="202" y="82"/>
      <point x="202" y="120" type="qcurve" smooth="yes"/>
      <point x="202" y="536" type="line" smooth="yes"/>
      <point x="202" y="595"/>
      <point x="209" y="612" type="qcurve"/>
      <point x="217" y="627"/>
      <point x="236" y="639" type="qcurve"/>
      <point x="249" y="645"/>
      <point x="262" y="646" type="qcurve"/>
      <point x="265" y="646" type="line"/>
      <point x="265" y="646" type="line"/>
      <point x="278" y="647"/>
      <point x="281" y="647" type="qcurve" smooth="yes"/>
      <point x="286" y="647" type="line"/>
      <point x="294" y="647" type="line"/>
      <point x="298" y="647" type="line"/>
      <point x="306" y="648" type="line"/>
      <point x="306" y="664" type="line"/>
      <point x="20" y="664" type="line"/>
      <point x="20" y="648" type="line"/>
      <point x="44" y="648" type="line" smooth="yes"/>
      <point x="83" y="648"/>
      <point x="99" y="626" type="qcurve"/>
      <point x="113" y="609"/>
      <point x="113" y="548" type="qcurve" smooth="yes"/>
      <point x="113" y="116" type="line" smooth="yes"/>
      <point x="113" y="66"/>
      <point x="104" y="43" type="qcurve"/>
      <point x="83" y="16"/>
      <point x="44" y="16" type="qcurve" smooth="yes"/>
      <point x="20" y="16" type="line"/>
      <point x="20" y="0" type="line"/>
      <point x="515" y="0" type="line"/>
      <point x="565" y="181" type="line"/>
    </contour>
  </outline>
</glyph>
<glyph name="M" format="2">
  <advance width="869"/>
  <unicode hex="004D"/>
  <outline>
    <contour>
      <point x="395" y="0" type="line"/>
      <point x="407" y="0" type="line"/>
      <point x="658" y="559" type="line"/>
      <point x="658" y="116" type="line" smooth="yes"/>
      <point x="658" y="58"/>
      <point x="648" y="42" type="qcurve"/>
      <point x="628" y="16"/>
      <point x="589" y="16" type="qcurve" smooth="yes"/>
      <point x="565" y="16" type="line"/>
      <point x="565" y="0" type="line"/>
      <point x="841" y="0" type="line"/>
      <point x="841" y="16" type="line"/>
      <point x="818" y="16" type="line" smooth="yes"/>
      <point x="781" y="16"/>
      <point x="761" y="37" type="qcurve"/>
      <point x="747" y="54"/>
      <point x="747" y="116" type="qcurve" smooth="yes"/>
      <point x="747" y="548" type="line" smooth="yes"/>
      <point x="747" y="605"/>
      <point x="758" y="622" type="qcurve" smooth="yes"/>
      <point x="776" y="648"/>
      <point x="818" y="648" type="qcurve" smooth="yes"/>
      <point x="841" y="648" type="line"/>
      <point x="841" y="664" type="line"/>
      <point x="659" y="664" type="line"/>
      <point x="427" y="147" type="line"/>
      <point x="194" y="664" type="line"/>
      <point x="8" y="664" type="line"/>
      <point x="8" y="648" type="line"/>
      <point x="52" y="648"/>
      <point x="66" y="638" type="qcurve"/>
      <point x="84" y="628"/>
      <point x="90" y="614" type="qcurve"/>
      <point x="100" y="597"/>
      <point x="100" y="548" type="qcurve" smooth="yes"/>
      <point x="100" y="116" type="line" smooth="yes"/>
      <point x="100" y="56"/>
      <point x="90" y="42" type="qcurve" smooth="yes"/>
      <point x="70" y="16"/>
      <point x="31" y="16" type="qcurve" smooth="yes"/>
      <point x="8" y="16" type="line"/>
      <point x="8" y="0" type="line"/>
      <point x="236" y="0" type="line"/>
      <point x="236" y="16" type="line"/>
      <point x="213" y="16" type="line" smooth="yes"/>
      <point x="175" y="16"/>
      <point x="157" y="37" type="qcurve" smooth="yes"/>
      <point x="143" y="54"/>
      <point x="143" y="116" type="qcurve" smooth="yes"/>
      <point x="143" y="559" type="line"/>
    </contour>
  </outline>
</glyph>
<glyph name="N" format="2">
  <advance width="703"/>
  <unicode hex="004E"/>
  <outline>
    <contour>
      <point x="-18" y="664" type="line"/>
      <point x="-18" y="644" type="line"/>
      <point x="15" y="644"/>
      <point x="24" y="640" type="qcurve"/>
      <point x="46" y="633"/>
      <point x="66" y="620" type="qcurve"/>
      <point x="83" y="607"/>
      <point x="108" y="576" type="qcurve"/>
      <point x="108" y="116" type="line" smooth="yes"/>
      <point x="108" y="58"/>
      <point x="98" y="42" type="qcurve" smooth="yes"/>
      <point x="80" y="16"/>
      <point x="39" y="16" type="qcurve" smooth="yes"/>
      <point x="15" y="16" type="line"/>
      <point x="15" y="0" type="line"/>
      <point x="244" y="0" type="line"/>
      <point x="244" y="16" type="line"/>
      <point x="221" y="16" type="line" smooth="yes"/>
      <point x="183" y="16"/>
      <point x="165" y="37" type="qcurve" smooth="yes"/>
      <point x="152" y="53"/>
      <point x="152" y="116" type="qcurve" smooth="yes"/>
      <point x="152" y="523" type="line"/>
      <point x="583" y="-11" type="line"/>
      <point x="600" y="-11" type="line"/>
      <point x="600" y="548" type="line" smooth="yes"/>
      <point x="600" y="604"/>
      <point x="610" y="622" type="qcurve"/>
      <point x="630" y="648"/>
      <point x="670" y="648" type="qcurve" smooth="yes"/>
      <point x="693" y="648" type="line"/>
      <point x="693" y="664" type="line"/>
      <point x="464" y="664" type="line"/>
      <point x="464" y="648" type="line"/>
      <point x="487" y="648" type="line" smooth="yes"/>
      <point x="528" y="648"/>
      <point x="544" y="627" type="qcurve" smooth="yes"/>
      <point x="558" y="608"/>
      <point x="558" y="548" type="qcurve" smooth="yes"/>
      <point x="558" y="160" type="line"/>
      <point x="152" y="664" type="line"/>
    </contour>
  </outline>
</glyph>
<glyph name="O" format="2">
  <advance width="693"/>
  <unicode hex="004F"/>
  <outline>
    <contour>
      <point x="347" y="648" type="qcurve" smooth="yes"/>
      <point x="439" y="648"/>
      <point x="493" y="581" type="qcurve"/>
      <point x="558" y="495"/>
      <point x="558" y="323" type="qcurve" smooth="yes"/>
      <point x="558" y="166"/>
      <point x="500" y="90" type="qcurve"/>
      <point x="437" y="16"/>
      <point x="348" y="16" type="qcurve" smooth="yes"/>
      <point x="260" y="16"/>
      <point x="212" y="83" type="qcurve"/>
      <point x="143" y="172"/>
      <point x="143" y="337" type="qcurve" smooth="yes"/>
      <point x="143" y="502"/>
      <point x="209" y="581" type="qcurve"/>
      <point x="261" y="648"/>
    </contour>
    <contour>
      <point x="356" y="680" type="qcurve" smooth="yes"/>
      <point x="231" y="680"/>
      <point x="139" y="593" type="qcurve"/>
      <point x="35" y="492"/>
      <point x="35" y="334" type="qcurve" smooth="yes"/>
      <point x="35" y="181"/>
      <point x="125" y="82" type="qcurve"/>
      <point x="219" y="-16"/>
      <point x="350" y="-16" type="qcurve" smooth="yes"/>
      <point x="484" y="-16"/>
      <point x="574" y="84" type="qcurve" smooth="yes"/>
      <point x="667" y="186"/>
      <point x="667" y="336" type="qcurve" smooth="yes"/>
      <point x="667" y="482"/>
      <point x="574" y="582" type="qcurve" smooth="yes"/>
      <point x="482" y="680"/>
    </contour>
  </outline>
</glyph>
<glyph name="P" format="2">
  <advance width="531"/>
  <unicode hex="0050"/>
  <outline>
    <contour>
      <point x="199" y="338" type="line"/>
      <point x="199" y="615" type="line"/>
      <point x="237" y="624"/>
      <point x="261" y="624" type="qcurve" smooth="yes"/>
      <point x="302" y="624"/>
      <point x="330" y="606" type="qcurve"/>
      <point x="363" y="587"/>
      <point x="378" y="550" type="qcurve" smooth="yes"/>
      <point x="395" y="510"/>
      <point x="395" y="470" type="qcurve" smooth="yes"/>
      <point x="395" y="408"/>
      <point x="360" y="368" type="qcurve" smooth="yes"/>
      <point x="326" y="328"/>
      <point x="276" y="328" type="qcurve" smooth="yes"/>
      <point x="263" y="328"/>
      <point x="243" y="331" type="qcurve"/>
      <point x="242" y="332"/>
      <point x="237" y="332" type="qcurve"/>
      <point x="231" y="333" type="line"/>
      <point x="215" y="335"/>
      <point x="209" y="336" type="qcurve"/>
    </contour>
    <contour>
      <point x="199" y="310" type="line"/>
      <point x="211" y="309"/>
      <point x="232" y="304" type="qcurve"/>
      <point x="233" y="304" type="line"/>
      <point x="250" y="300"/>
      <point x="257" y="300" type="qcurve"/>
      <point x="273" y="296"/>
      <point x="306" y="296" type="qcurve" smooth="yes"/>
      <point x="402" y="296"/>
      <point x="451" y="347" type="qcurve"/>
      <point x="504" y="399"/>
      <point x="504" y="480" type="qcurve" smooth="yes"/>
      <point x="504" y="538"/>
      <point x="470" y="584" type="qcurve"/>
      <point x="436" y="627"/>
      <point x="386" y="646" type="qcurve" smooth="yes"/>
      <point x="340" y="664"/>
      <point x="251" y="664" type="qcurve" smooth="yes"/>
      <point x="16" y="664" type="line"/>
      <point x="16" y="648" type="line"/>
      <point x="41" y="648" type="line" smooth="yes"/>
      <point x="78" y="648"/>
      <point x="97" y="626" type="qcurve"/>
      <point x="109" y="613"/>
      <point x="109" y="548" type="qcurve" smooth="yes"/>
      <point x="109" y="116" type="line" smooth="yes"/>
      <point x="109" y="57"/>
      <point x="99" y="44" type="qcurve"/>
      <point x="83" y="16"/>
      <point x="41" y="16" type="qcurve" smooth="yes"/>
      <point x="16" y="16" type="line"/>
      <point x="16" y="0" type="line"/>
      <point x="292" y="0" type="line"/>
      <point x="292" y="16" type="line"/>
      <point x="266" y="16" type="line" smooth="yes"/>
      <point x="230" y="16"/>
      <point x="212" y="38" type="qcurve"/>
      <point x="199" y="52"/>
      <point x="199" y="116" type="qcurve" smooth="yes"/>
    </contour>
  </outline>
</glyph>
<glyph name="Q" format="2">
  <advance width="698"/>
  <unicode hex="0051"/>
  <outline>
    <contour>
      <point x="350" y="644" type="line"/>
      <point x="405" y="644"/>
      <point x="451" y="614" type="qcurve"/>
      <point x="496" y="582"/>
      <point x="523" y="520" type="qcurve" smooth="yes"/>
      <point x="558" y="436"/>
      <point x="558" y="317" type="qcurve" smooth="yes"/>
      <point x="558" y="159"/>
      <point x="494" y="80" type="qcurve"/>
      <point x="437" y="12"/>
      <point x="350" y="12" type="qcurve" smooth="yes"/>
      <point x="263" y="12"/>
      <point x="212" y="80" type="qcurve"/>
      <point x="143" y="169"/>
      <point x="143" y="332" type="qcurve" smooth="yes"/>
      <point x="143" y="497"/>
      <point x="210" y="579" type="qcurve" smooth="yes"/>
      <point x="264" y="644"/>
      <point x="350" y="644" type="qcurve"/>
    </contour>
    <contour>
      <point x="422" y="-8" type="line"/>
      <point x="527" y="25"/>
      <point x="599" y="117" type="qcurve"/>
      <point x="667" y="211"/>
      <point x="667" y="332" type="qcurve" smooth="yes"/>
      <point x="667" y="481"/>
      <point x="574" y="581" type="qcurve" smooth="yes"/>
      <point x="483" y="680"/>
      <point x="356" y="680" type="qcurve" smooth="yes"/>
      <point x="224" y="680"/>
      <point x="129" y="582" type="qcurve" smooth="yes"/>
      <point x="35" y="485"/>
      <point x="35" y="334" type="qcurve" smooth="yes"/>
      <point x="35" y="241"/>
      <point x="68" y="170" type="qcurve"/>
      <point x="97" y="103"/>
      <point x="157" y="52" type="qcurve" smooth="yes"/>
      <point x="193" y="20"/>
      <point x="263" y="-8" type="qcurve"/>
      <point x="310" y="-55"/>
      <point x="378" y="-101" type="qcurve" smooth="yes"/>
      <point x="440" y="-143"/>
      <point x="519" y="-169" type="qcurve"/>
      <point x="592" y="-195"/>
      <point x="658" y="-196" type="qcurve"/>
      <point x="658" y="-180" type="line"/>
      <point x="584" y="-174"/>
      <point x="529" y="-134" type="qcurve" smooth="yes"/>
      <point x="471" y="-93"/>
      <point x="422" y="-8" type="qcurve"/>
    </contour>
  </outline>
</glyph>
<glyph name="R" format="2">
  <advance width="643"/>
  <unicode hex="0052"/>
  <outline>
    <contour>
      <point x="197" y="344" type="line"/>
      <point x="197" y="616" type="line"/>
      <point x="247" y="628"/>
      <point x="272" y="628" type="qcurve" smooth="yes"/>
      <point x="334" y="628"/>
      <point x="373" y="590" type="qcurve" smooth="yes"/>
      <point x="410" y="553"/>
      <point x="410" y="489" type="qcurve" smooth="yes"/>
      <point x="410" y="425"/>
      <point x="363" y="385" type="qcurve" smooth="yes"/>
      <point x="313" y="344"/>
      <point x="224" y="344" type="qcurve" smooth="yes"/>
      <point x="213" y="344" type="line"/>
    </contour>
    <contour>
      <point x="655" y="0" type="line"/>
      <point x="655" y="16" type="line"/>
      <point x="599" y="22"/>
      <point x="570" y="44" type="qcurve" smooth="yes"/>
      <point x="534" y="70"/>
      <point x="491" y="133" type="qcurve" smooth="yes"/>
      <point x="358" y="325" type="line"/>
      <point x="442" y="345"/>
      <point x="480" y="389" type="qcurve" smooth="yes"/>
      <point x="519" y="433"/>
      <point x="519" y="494" type="qcurve" smooth="yes"/>
      <point x="519" y="552"/>
      <point x="485" y="592" type="qcurve" smooth="yes"/>
      <point x="452" y="632"/>
      <point x="402" y="649" type="qcurve"/>
      <point x="354" y="664"/>
      <point x="251" y="664" type="qcurve" smooth="yes"/>
      <point x="15" y="664" type="line"/>
      <point x="15" y="648" type="line"/>
      <point x="40" y="648" type="line" smooth="yes"/>
      <point x="79" y="648"/>
      <point x="95" y="626" type="qcurve"/>
      <point x="108" y="612"/>
      <point x="108" y="548" type="qcurve" smooth="yes"/>
      <point x="108" y="116" type="line" smooth="yes"/>
      <point x="108" y="58"/>
      <point x="99" y="44" type="qcurve" smooth="yes"/>
      <point x="80" y="16"/>
      <point x="40" y="16" type="qcurve" smooth="yes"/>
      <point x="15" y="16" type="line"/>
      <point x="15" y="0" type="line"/>
      <point x="291" y="0" type="line"/>
      <point x="291" y="16" type="line"/>
      <point x="266" y="16" type="line" smooth="yes"/>
      <point x="228" y="16"/>
      <point x="212" y="38" type="qcurve"/>
      <point x="197" y="55"/>
      <point x="197" y="116" type="qcurve" smooth="yes"/>
      <point x="197" y="312" type="line"/>
      <point x="212" y="312" type="line"/>
      <point x="214" y="311"/>
      <point x="224" y="311" type="qcurve" smooth="yes"/>
      <point x="260" y="311"/>
      <point x="263" y="312" type="qcurve"/>
      <point x="482" y="0" type="line"/>
    </contour>
  </outline>
</glyph>
<glyph name="S" format="2">
  <advance width="531"/>
  <unicode hex="0053"/>
  <outline>
    <contour>
      <point x="437" y="680" type="line"/>
      <point x="422" y="680" type="line"/>
      <point x="419" y="657"/>
      <point x="410" y="648" type="qcurve"/>
      <point x="399" y="640"/>
      <point x="390" y="640" type="qcurve" smooth="yes"/>
      <point x="375" y="640"/>
      <point x="352" y="653" type="qcurve"/>
      <point x="297" y="680"/>
      <point x="244" y="680" type="qcurve" smooth="yes"/>
      <point x="165" y="680"/>
      <point x="111" y="629" type="qcurve"/>
      <point x="59" y="577"/>
      <point x="59" y="505" type="qcurve" smooth="yes"/>
      <point x="59" y="463"/>
      <point x="76" y="430" type="qcurve" smooth="yes"/>
      <point x="94" y="395"/>
      <point x="128" y="367" type="qcurve" smooth="yes"/>
      <point x="163" y="340"/>
      <point x="244" y="292" type="qcurve" smooth="yes"/>
      <point x="305" y="257"/>
      <point x="345" y="231" type="qcurve"/>
      <point x="370" y="209"/>
      <point x="383" y="184" type="qcurve"/>
      <point x="395" y="156"/>
      <point x="395" y="134" type="qcurve" smooth="yes"/>
      <point x="395" y="88"/>
      <point x="361" y="57" type="qcurve"/>
      <point x="328" y="24"/>
      <point x="269" y="24" type="qcurve" smooth="yes"/>
      <point x="221" y="24"/>
      <point x="177" y="48" type="qcurve" smooth="yes"/>
      <point x="136" y="71"/>
      <point x="114" y="106" type="qcurve" smooth="yes"/>
      <point x="94" y="138"/>
      <point x="81" y="212" type="qcurve"/>
      <point x="66" y="212" type="line"/>
      <point x="66" y="-16" type="line"/>
      <point x="81" y="-16" type="line"/>
      <point x="86" y="10"/>
      <point x="91" y="16" type="qcurve"/>
      <point x="104" y="24"/>
      <point x="110" y="24" type="qcurve" smooth="yes"/>
      <point x="127" y="24"/>
      <point x="169" y="8" type="qcurve" smooth="yes"/>
      <point x="219" y="-10"/>
      <point x="230" y="-11" type="qcurve" smooth="yes"/>
      <point x="267" y="-16"/>
      <point x="282" y="-16" type="qcurve" smooth="yes"/>
      <point x="375" y="-16"/>
      <point x="428" y="39" type="qcurve"/>
      <point x="484" y="95"/>
      <point x="484" y="169" type="qcurve" smooth="yes"/>
      <point x="484" y="208"/>
      <point x="465" y="246" type="qcurve" smooth="yes"/>
      <point x="449" y="280"/>
      <point x="412" y="309" type="qcurve" smooth="yes"/>
      <point x="379" y="336"/>
      <point x="289" y="385" type="qcurve"/>
      <point x="181" y="447"/>
      <point x="152" y="483" type="qcurve" smooth="yes"/>
      <point x="132" y="508"/>
      <point x="132" y="538" type="qcurve" smooth="yes"/>
      <point x="132" y="577"/>
      <point x="164" y="609" type="qcurve" smooth="yes"/>
      <point x="194" y="640"/>
      <point x="244" y="640" type="qcurve" smooth="yes"/>
      <point x="292" y="640"/>
      <point x="329" y="618" type="qcurve"/>
      <point x="371" y="596"/>
      <point x="392" y="556" type="qcurve" smooth="yes"/>
      <point x="413" y="518"/>
      <point x="422" y="452" type="qcurve"/>
      <point x="437" y="452" type="line"/>
    </contour>
  </outline>
</glyph>
<glyph name="T" format="2">
  <advance width="596"/>
  <unicode hex="0054"/>
  <outline>
    <contour>
      <point x="561" y="664" type="line"/>
      <point x="39" y="664" type="line"/>
      <point x="31" y="510" type="line"/>
      <point x="50" y="510" type="line"/>
      <point x="52" y="551"/>
      <point x="69" y="582" type="qcurve"/>
      <point x="89" y="608"/>
      <point x="113" y="617" type="qcurve"/>
      <point x="126" y="624"/>
      <point x="175" y="624" type="qcurve" smooth="yes"/>
      <point x="252" y="624" type="line"/>
      <point x="252" y="116" type="line" smooth="yes"/>
      <point x="252" y="59"/>
      <point x="241" y="42" type="qcurve"/>
      <point x="223" y="16"/>
      <point x="183" y="16" type="qcurve" smooth="yes"/>
      <point x="158" y="16" type="line"/>
      <point x="158" y="0" type="line"/>
      <point x="434" y="0" type="line"/>
      <point x="434" y="16" type="line"/>
      <point x="410" y="16" type="line" smooth="yes"/>
      <point x="373" y="16"/>
      <point x="355" y="37" type="qcurve" smooth="yes"/>
      <point x="341" y="54"/>
      <point x="341" y="116" type="qcurve" smooth="yes"/>
      <point x="341" y="624" type="line"/>
      <point x="434" y="624" type="line" smooth="yes"/>
      <point x="477" y="624"/>
      <point x="497" y="611" type="qcurve"/>
      <point x="520" y="597"/>
      <point x="538" y="569" type="qcurve"/>
      <point x="545" y="552"/>
      <point x="551" y="510" type="qcurve"/>
      <point x="570" y="510" type="line"/>
    </contour>
  </outline>
</glyph>
<glyph name="U" format="2">
  <advance width="707"/>
  <unicode hex="0055"/>
  <outline>
    <contour>
      <point x="461" y="648" type="line"/>
      <point x="485" y="648" type="line" smooth="yes"/>
      <point x="524" y="648"/>
      <point x="540" y="626" type="qcurve"/>
      <point x="554" y="610"/>
      <point x="554" y="548" type="qcurve" smooth="yes"/>
      <point x="554" y="279" type="line" smooth="yes"/>
      <point x="554" y="172"/>
      <point x="535" y="129" type="qcurve" smooth="yes"/>
      <point x="515" y="85"/>
      <point x="467" y="57" type="qcurve"/>
      <point x="414" y="28"/>
      <point x="355" y="28" type="qcurve" smooth="yes"/>
      <point x="304" y="28"/>
      <point x="271" y="46" type="qcurve" smooth="yes"/>
      <point x="235" y="65"/>
      <point x="218" y="92" type="qcurve" smooth="yes"/>
      <point x="199" y="123"/>
      <point x="193" y="170" type="qcurve"/>
      <point x="186" y="212"/>
      <point x="186" y="259" type="qcurve" smooth="yes"/>
      <point x="186" y="548" type="line" smooth="yes"/>
      <point x="186" y="602"/>
      <point x="197" y="622" type="qcurve"/>
      <point x="217" y="648"/>
      <point x="254" y="648" type="qcurve" smooth="yes"/>
      <point x="279" y="648" type="line"/>
      <point x="279" y="664" type="line"/>
      <point x="4" y="664" type="line"/>
      <point x="4" y="648" type="line"/>
      <point x="29" y="648" type="line" smooth="yes"/>
      <point x="67" y="648"/>
      <point x="80" y="629" type="qcurve"/>
      <point x="97" y="607"/>
      <point x="97" y="548" type="qcurve" smooth="yes"/>
      <point x="97" y="288" type="line" smooth="yes"/>
      <point x="97" y="166"/>
      <point x="113" y="124" type="qcurve"/>
      <point x="134" y="61"/>
      <point x="189" y="22" type="qcurve" smooth="yes"/>
      <point x="245" y="-16"/>
      <point x="348" y="-16" type="qcurve" smooth="yes"/>
      <point x="449" y="-16"/>
      <point x="501" y="24" type="qcurve"/>
      <point x="557" y="64"/>
      <point x="578" y="120" type="qcurve"/>
      <point x="596" y="173"/>
      <point x="596" y="276" type="qcurve" smooth="yes"/>
      <point x="596" y="548" type="line" smooth="yes"/>
      <point x="596" y="603"/>
      <point x="606" y="616" type="qcurve" smooth="yes"/>
      <point x="629" y="648"/>
      <point x="665" y="648" type="qcurve" smooth="yes"/>
      <point x="689" y="648" type="line"/>
      <point x="689" y="664" type="line"/>
      <point x="461" y="664" type="line"/>
    </contour>
  </outline>
</glyph>
<glyph name="V" format="2">
  <advance width="707"/>
  <unicode hex="0056"/>
  <outline>
    <contour>
      <point x="693" y="664" type="line"/>
      <point x="495" y="664" type="line"/>
      <point x="495" y="648" type="line"/>
      <point x="496" y="647"/>
      <point x="503" y="647" type="qcurve"/>
      <point x="537" y="641"/>
      <point x="549" y="628" type="qcurve"/>
      <point x="563" y="614"/>
      <point x="563" y="601" type="qcurve" smooth="yes"/>
      <point x="563" y="577"/>
      <point x="540" y="523" type="qcurve"/>
      <point x="387" y="139" type="line"/>
      <point x="222" y="527" type="line"/>
      <point x="202" y="577"/>
      <point x="202" y="604" type="qcurve" smooth="yes"/>
      <point x="202" y="621"/>
      <point x="214" y="633" type="qcurve"/>
      <point x="228" y="644"/>
      <point x="272" y="648" type="qcurve"/>
      <point x="272" y="664" type="line"/>
      <point x="11" y="664" type="line"/>
      <point x="11" y="648" type="line"/>
      <point x="43" y="646"/>
      <point x="56" y="637" type="qcurve"/>
      <point x="75" y="628"/>
      <point x="86" y="612" type="qcurve"/>
      <point x="93" y="601"/>
      <point x="113" y="556" type="qcurve"/>
      <point x="355" y="-16" type="line"/>
      <point x="373" y="-16" type="line"/>
      <point x="598" y="546" type="line"/>
      <point x="618" y="599"/>
      <point x="640" y="624" type="qcurve"/>
      <point x="659" y="640"/>
      <point x="693" y="648" type="qcurve"/>
    </contour>
  </outline>
</glyph>
<glyph name="W" format="2">
  <advance width="917"/>
  <unicode hex="0057"/>
  <outline>
    <contour>
      <point x="902" y="664" type="line"/>
      <point x="707" y="664" type="line"/>
      <point x="707" y="648" type="line"/>
      <point x="741" y="648"/>
      <point x="754" y="641" type="qcurve"/>
      <point x="766" y="636"/>
      <point x="772" y="627" type="qcurve"/>
      <point x="778" y="615"/>
      <point x="778" y="605" type="qcurve" smooth="yes"/>
      <point x="778" y="578"/>
      <point x="758" y="519" type="qcurve"/>
      <point x="643" y="154" type="line"/>
      <point x="520" y="514" type="line"/>
      <point x="500" y="575"/>
      <point x="500" y="603" type="qcurve" smooth="yes"/>
      <point x="500" y="626"/>
      <point x="510" y="636" type="qcurve"/>
      <point x="524" y="648"/>
      <point x="550" y="648" type="qcurve" smooth="yes"/>
      <point x="566" y="648" type="line"/>
      <point x="566" y="664" type="line"/>
      <point x="318" y="664" type="line"/>
      <point x="318" y="648" type="line"/>
      <point x="337" y="648"/>
      <point x="346" y="645" type="qcurve"/>
      <point x="357" y="642"/>
      <point x="368" y="632" type="qcurve"/>
      <point x="378" y="625"/>
      <point x="383" y="619" type="qcurve"/>
      <point x="385" y="616" type="line"/>
      <point x="387" y="613" type="line"/>
      <point x="404" y="579"/>
      <point x="407" y="571" type="qcurve"/>
      <point x="422" y="525" type="line"/>
      <point x="439" y="474" type="line"/>
      <point x="336" y="158" type="line"/>
      <point x="209" y="530" type="line"/>
      <point x="189" y="593"/>
      <point x="189" y="608" type="qcurve" smooth="yes"/>
      <point x="189" y="624"/>
      <point x="202" y="637" type="qcurve"/>
      <point x="218" y="648"/>
      <point x="239" y="648" type="qcurve" smooth="yes"/>
      <point x="252" y="648" type="line"/>
      <point x="252" y="664" type="line"/>
      <point x="15" y="664" type="line"/>
      <point x="15" y="648" type="line"/>
      <point x="44" y="648"/>
      <point x="59" y="639" type="qcurve"/>
      <point x="76" y="631"/>
      <point x="85" y="610" type="qcurve"/>
      <point x="86" y="607"/>
      <point x="91" y="595" type="qcurve"/>
      <point x="96" y="584"/>
      <point x="98" y="576" type="qcurve"/>
      <point x="108" y="547" type="line"/>
      <point x="113" y="536" type="line"/>
      <point x="298" y="-16" type="line"/>
      <point x="323" y="-16" type="line"/>
      <point x="462" y="410" type="line"/>
      <point x="608" y="-16" type="line"/>
      <point x="633" y="-16" type="line"/>
      <point x="802" y="522" type="line"/>
      <point x="824" y="589"/>
      <point x="832" y="604" type="qcurve"/>
      <point x="843" y="627"/>
      <point x="861" y="639" type="qcurve"/>
      <point x="878" y="648"/>
      <point x="902" y="648" type="qcurve"/>
    </contour>
  </outline>
</glyph>
<glyph name="X" format="2">
  <advance width="697"/>
  <unicode hex="0058"/>
  <outline>
    <contour>
      <point x="397" y="364" type="line"/>
      <point x="526" y="536" type="line" smooth="yes"/>
      <point x="572" y="597"/>
      <point x="588" y="608" type="qcurve"/>
      <point x="603" y="625"/>
      <point x="635" y="639" type="qcurve" smooth="yes"/>
      <point x="650" y="646"/>
      <point x="678" y="648" type="qcurve"/>
      <point x="678" y="664" type="line"/>
      <point x="446" y="664" type="line"/>
      <point x="446" y="648" type="line"/>
      <point x="484" y="648"/>
      <point x="491" y="644" type="qcurve"/>
      <point x="501" y="639"/>
      <point x="509" y="628" type="qcurve"/>
      <point x="515" y="621"/>
      <point x="515" y="609" type="qcurve" smooth="yes"/>
      <point x="515" y="602"/>
      <point x="510" y="589" type="qcurve"/>
      <point x="507" y="580"/>
      <point x="486" y="551" type="qcurve" smooth="yes"/>
      <point x="373" y="401" type="line"/>
      <point x="273" y="553" type="line" smooth="yes"/>
      <point x="249" y="591"/>
      <point x="249" y="609" type="qcurve" smooth="yes"/>
      <point x="249" y="622"/>
      <point x="264" y="635" type="qcurve"/>
      <point x="280" y="647"/>
      <point x="316" y="648" type="qcurve"/>
      <point x="316" y="664" type="line"/>
      <point x="20" y="664" type="line"/>
      <point x="20" y="648" type="line"/>
      <point x="67" y="647"/>
      <point x="104" y="623" type="qcurve"/>
      <point x="137" y="599"/>
      <point x="190" y="519" type="qcurve" smooth="yes"/>
      <point x="316" y="325" type="line"/>
      <point x="167" y="128" type="line" smooth="yes"/>
      <point x="138" y="89"/>
      <point x="107" y="61" type="qcurve"/>
      <point x="80" y="40"/>
      <point x="50" y="26" type="qcurve"/>
      <point x="39" y="19"/>
      <point x="9" y="16" type="qcurve"/>
      <point x="9" y="0" type="line"/>
      <point x="239" y="0" type="line"/>
      <point x="239" y="16" type="line"/>
      <point x="203" y="18"/>
      <point x="189" y="28" type="qcurve"/>
      <point x="176" y="39"/>
      <point x="176" y="53" type="qcurve" smooth="yes"/>
      <point x="176" y="62"/>
      <point x="180" y="74" type="qcurve"/>
      <point x="180" y="75"/>
      <point x="183" y="79" type="qcurve"/>
      <point x="186" y="84"/>
      <point x="190" y="89" type="qcurve"/>
      <point x="197" y="101"/>
      <point x="200" y="104" type="qcurve"/>
      <point x="200" y="105"/>
      <point x="201" y="106" type="qcurve"/>
      <point x="203" y="107"/>
      <point x="203" y="108" type="qcurve"/>
      <point x="206" y="111" type="line"/>
      <point x="340" y="288" type="line"/>
      <point x="447" y="123" type="line"/>
      <point x="474" y="87"/>
      <point x="474" y="78" type="qcurve"/>
      <point x="480" y="66"/>
      <point x="480" y="55" type="qcurve" smooth="yes"/>
      <point x="480" y="47"/>
      <point x="473" y="36" type="qcurve"/>
      <point x="463" y="26"/>
      <point x="455" y="22" type="qcurve"/>
      <point x="445" y="18"/>
      <point x="416" y="16" type="qcurve"/>
      <point x="416" y="0" type="line"/>
      <point x="689" y="0" type="line"/>
      <point x="689" y="16" type="line"/>
      <point x="646" y="19"/>
      <point x="619" y="43" type="qcurve"/>
      <point x="588" y="69"/>
      <point x="535" y="155" type="qcurve"/>
    </contour>
  </outline>
</glyph>
<glyph name="Y" format="2">
  <advance width="697"/>
  <unicode hex="0059"/>
  <outline>
    <contour>
      <point x="464" y="664" type="line"/>
      <point x="464" y="648" type="line"/>
      <point x="490" y="648"/>
      <point x="503" y="642" type="qcurve"/>
      <point x="513" y="638"/>
      <point x="521" y="625" type="qcurve"/>
      <point x="529" y="616"/>
      <point x="529" y="600" type="qcurve" smooth="yes"/>
      <point x="529" y="575"/>
      <point x="500" y="530" type="qcurve"/>
      <point x="374" y="325" type="line"/>
      <point x="242" y="539" type="line" smooth="yes"/>
      <point x="213" y="586"/>
      <point x="213" y="604" type="qcurve" smooth="yes"/>
      <point x="213" y="626"/>
      <point x="232" y="637" type="qcurve"/>
      <point x="256" y="648"/>
      <point x="273" y="648" type="qcurve" smooth="yes"/>
      <point x="288" y="648" type="line"/>
      <point x="288" y="664" type="line"/>
      <point x="14" y="664" type="line"/>
      <point x="14" y="648" type="line"/>
      <point x="26" y="648"/>
      <point x="41" y="643" type="qcurve"/>
      <point x="70" y="631"/>
      <point x="88" y="614" type="qcurve"/>
      <point x="99" y="602"/>
      <point x="130" y="552" type="qcurve" smooth="yes"/>
      <point x="306" y="265" type="line"/>
      <point x="306" y="116" type="line" smooth="yes"/>
      <point x="306" y="58"/>
      <point x="296" y="42" type="qcurve"/>
      <point x="278" y="16"/>
      <point x="236" y="16" type="qcurve" smooth="yes"/>
      <point x="213" y="16" type="line"/>
      <point x="213" y="0" type="line"/>
      <point x="487" y="0" type="line"/>
      <point x="487" y="16" type="line"/>
      <point x="466" y="16" type="line" smooth="yes"/>
      <point x="426" y="16"/>
      <point x="408" y="37" type="qcurve"/>
      <point x="395" y="53"/>
      <point x="395" y="116" type="qcurve" smooth="yes"/>
      <point x="395" y="279" type="line"/>
      <point x="553" y="532" type="line"/>
      <point x="578" y="578"/>
      <point x="599" y="603" type="qcurve" smooth="yes"/>
      <point x="616" y="624"/>
      <point x="643" y="637" type="qcurve"/>
      <point x="671" y="648"/>
      <point x="679" y="648" type="qcurve" smooth="yes"/>
      <point x="691" y="648" type="line"/>
      <point x="691" y="664" type="line"/>
    </contour>
  </outline>
</glyph>
<glyph name="Z" format="2">
  <advance width="592"/>
  <unicode hex="005A"/>
  <outline>
    <contour>
      <point x="563" y="664" type="line"/>
      <point x="93" y="664" type="line"/>
      <point x="73" y="502" type="line"/>
      <point x="90" y="502" type="line"/>
      <point x="102" y="567"/>
      <point x="113" y="584" type="qcurve"/>
      <point x="124" y="604"/>
      <point x="148" y="617" type="qcurve"/>
      <point x="176" y="628"/>
      <point x="222" y="628" type="qcurve" smooth="yes"/>
      <point x="429" y="628" type="line"/>
      <point x="11" y="16" type="line"/>
      <point x="11" y="0" type="line"/>
      <point x="539" y="0" type="line"/>
      <point x="570" y="173" type="line"/>
      <point x="554" y="176" type="line"/>
      <point x="529" y="94"/>
      <point x="496" y="64" type="qcurve"/>
      <point x="468" y="36"/>
      <point x="402" y="36" type="qcurve" smooth="yes"/>
      <point x="133" y="36" type="line"/>
    </contour>
  </outline>
</glyph>
<glyph name="bracketleft" format="2">
  <advance width="323"/>
  <unicode hex="005B"/>
  <outline>
    <contour>
      <point x="284" y="-200" type="line"/>
      <point x="284" y="-164" type="line"/>
      <point x="148" y="-164" type="line"/>
      <point x="148" y="644" type="line"/>
      <point x="284" y="644" type="line"/>
      <point x="284" y="680" type="line"/>
      <point x="78" y="680" type="line"/>
      <point x="78" y="-200" type="line"/>
    </contour>
  </outline>
</glyph>
<glyph name="backslash" format="2">
  <advance width="275"/>
  <unicode hex="005C"/>
  <outline>
    <contour>
      <point x="41" y="696" type="line"/>
      <point x="1" y="696" type="line"/>
      <point x="230" y="-12" type="line"/>
      <point x="269" y="-12" type="line"/>
    </contour>
  </outline>
</glyph>
<glyph name="bracketright" format="2">
  <advance width="318"/>
  <unicode hex="005D"/>
  <outline>
    <contour>
      <point x="36" y="680" type="line"/>
      <point x="36" y="644" type="line"/>
      <point x="172" y="644" type="line"/>
      <point x="172" y="-164" type="line"/>
      <point x="36" y="-164" type="line"/>
      <point x="36" y="-200" type="line"/>
      <point x="241" y="-200" type="line"/>
      <point x="241" y="680" type="line"/>
    </contour>
  </outline>
</glyph>
<glyph name="asciicircum" format="2">
  <advance width="454"/>
  <unicode hex="005E"/>
  <outline>
    <contour>
      <point x="236" y="676" type="line"/>
      <point x="221" y="676" type="line"/>
      <point x="20" y="328" type="line"/>
      <point x="64" y="328" type="line"/>
      <point x="229" y="613" type="line"/>
      <point x="394" y="328" type="line"/>
      <point x="437" y="328" type="line"/>
    </contour>
  </outline>
</glyph>
<glyph name="underscore" format="2">
  <advance width="476"/>
  <unicode hex="005F"/>
  <outline>
    <contour>
      <point x="495" y="-212" type="line"/>
      <point x="495" y="-172" type="line"/>
      <point x="-8" y="-172" type="line"/>
      <point x="-8" y="-212" type="line"/>
    </contour>
  </outline>
</glyph>
<glyph name="a" format="2">
  <advance width="436"/>
  <unicode hex="0061"/>
  <outline>
    <contour>
      <point x="275" y="96" type="line"/>
      <point x="217" y="48"/>
      <point x="180" y="48" type="qcurve" smooth="yes"/>
      <point x="155" y="48"/>
      <point x="133" y="71" type="qcurve" smooth="yes"/>
      <point x="113" y="92"/>
      <point x="113" y="128" type="qcurve" smooth="yes"/>
      <point x="113" y="157"/>
      <point x="129" y="179" type="qcurve" smooth="yes"/>
      <point x="146" y="204"/>
      <point x="183" y="223" type="qcurve" smooth="yes"/>
      <point x="214" y="240"/>
      <point x="275" y="264" type="qcurve"/>
    </contour>
    <contour>
      <point x="275" y="65" type="qcurve"/>
      <point x="278" y="21"/>
      <point x="289" y="6" type="qcurve" smooth="yes"/>
      <point x="303" y="-12"/>
      <point x="326" y="-12" type="qcurve" smooth="yes"/>
      <point x="372" y="-12"/>
      <point x="426" y="59" type="qcurve"/>
      <point x="426" y="84" type="line"/>
      <point x="404" y="61"/>
      <point x="388" y="51" type="qcurve"/>
      <point x="385" y="48"/>
      <point x="375" y="48" type="qcurve" smooth="yes"/>
      <point x="370" y="48"/>
      <point x="363" y="53" type="qcurve" smooth="yes"/>
      <point x="357" y="58"/>
      <point x="355" y="73" type="qcurve" smooth="yes"/>
      <point x="352" y="90"/>
      <point x="352" y="152" type="qcurve" smooth="yes"/>
      <point x="352" y="305" type="line" smooth="yes"/>
      <point x="352" y="372"/>
      <point x="345" y="392" type="qcurve" smooth="yes"/>
      <point x="331" y="427"/>
      <point x="302" y="440" type="qcurve"/>
      <point x="264" y="460"/>
      <point x="209" y="460" type="qcurve" smooth="yes"/>
      <point x="136" y="460"/>
      <point x="93" y="425" type="qcurve" smooth="yes"/>
      <point x="50" y="391"/>
      <point x="50" y="347" type="qcurve" smooth="yes"/>
      <point x="50" y="328"/>
      <point x="60" y="313" type="qcurve"/>
      <point x="72" y="300"/>
      <point x="89" y="300" type="qcurve" smooth="yes"/>
      <point x="107" y="300"/>
      <point x="117" y="312" type="qcurve" smooth="yes"/>
      <point x="128" y="323"/>
      <point x="128" y="346" type="qcurve"/>
      <point x="127" y="374" type="line"/>
      <point x="127" y="396"/>
      <point x="145" y="412" type="qcurve" smooth="yes"/>
      <point x="161" y="428"/>
      <point x="194" y="428" type="qcurve" smooth="yes"/>
      <point x="235" y="428"/>
      <point x="254" y="404" type="qcurve" smooth="yes"/>
      <point x="275" y="379"/>
      <point x="275" y="313" type="qcurve" smooth="yes"/>
      <point x="275" y="296" type="line"/>
      <point x="159" y="252"/>
      <point x="117" y="225" type="qcurve" smooth="yes"/>
      <point x="69" y="195"/>
      <point x="50" y="161" type="qcurve"/>
      <point x="35" y="139"/>
      <point x="35" y="104" type="qcurve" smooth="yes"/>
      <point x="35" y="52"/>
      <point x="64" y="20" type="qcurve"/>
      <point x="98" y="-12"/>
      <point x="138" y="-12" type="qcurve" smooth="yes"/>
      <point x="170" y="-12"/>
      <point x="192" y="1" type="qcurve" smooth="yes"/>
      <point x="207" y="9"/>
    </contour>
  </outline>
</glyph>
<glyph name="b" format="2">
  <advance width="476"/>
  <unicode hex="0062"/>
  <outline>
    <contour>
      <point x="152" y="339" type="line"/>
      <point x="182" y="371"/>
      <point x="200" y="379" type="qcurve"/>
      <point x="222" y="392"/>
      <point x="252" y="392" type="qcurve" smooth="yes"/>
      <point x="302" y="392"/>
      <point x="338" y="346" type="qcurve" smooth="yes"/>
      <point x="376" y="299"/>
      <point x="376" y="212" type="qcurve" smooth="yes"/>
      <point x="376" y="119"/>
      <point x="338" y="69" type="qcurve" smooth="yes"/>
      <point x="302" y="20"/>
      <point x="256" y="20" type="qcurve" smooth="yes"/>
      <point x="224" y="20"/>
      <point x="202" y="33" type="qcurve"/>
      <point x="173" y="46"/>
      <point x="152" y="70" type="qcurve"/>
    </contour>
    <contour>
      <point x="152" y="371" type="qcurve"/>
      <point x="152" y="696" type="line"/>
      <point x="131" y="696" type="line"/>
      <point x="4" y="640" type="line"/>
      <point x="11" y="624" type="line"/>
      <point x="33" y="632"/>
      <point x="41" y="632" type="qcurve" smooth="yes"/>
      <point x="53" y="632"/>
      <point x="59" y="626" type="qcurve" smooth="yes"/>
      <point x="67" y="620"/>
      <point x="70" y="602" type="qcurve" smooth="yes"/>
      <point x="74" y="575"/>
      <point x="74" y="508" type="qcurve" smooth="yes"/>
      <point x="74" y="41" type="line"/>
      <point x="108" y="20"/>
      <point x="153" y="2" type="qcurve"/>
      <point x="195" y="-12"/>
      <point x="231" y="-12" type="qcurve" smooth="yes"/>
      <point x="310" y="-12"/>
      <point x="376" y="50" type="qcurve" smooth="yes"/>
      <point x="454" y="124"/>
      <point x="454" y="241" type="qcurve" smooth="yes"/>
      <point x="454" y="344"/>
      <point x="402" y="402" type="qcurve"/>
      <point x="356" y="460"/>
      <point x="287" y="460" type="qcurve" smooth="yes"/>
      <point x="214" y="460"/>
    </contour>
  </outline>
</glyph>
<glyph name="c" format="2">
  <advance width="429"/>
  <unicode hex="0063"/>
  <outline>
    <contour>
      <point x="402" y="173" type="line"/>
      <point x="391" y="180" type="line"/>
      <point x="366" y="120"/>
      <point x="340" y="98" type="qcurve" smooth="yes"/>
      <point x="303" y="68"/>
      <point x="256" y="68" type="qcurve" smooth="yes"/>
      <point x="188" y="68"/>
      <point x="152" y="129" type="qcurve"/>
      <point x="113" y="186"/>
      <point x="113" y="268" type="qcurve" smooth="yes"/>
      <point x="113" y="346"/>
      <point x="150" y="392" type="qcurve" smooth="yes"/>
      <point x="180" y="428"/>
      <point x="227" y="428" type="qcurve" smooth="yes"/>
      <point x="257" y="428"/>
      <point x="272" y="413" type="qcurve"/>
      <point x="287" y="399"/>
      <point x="292" y="370" type="qcurve"/>
      <point x="294" y="342"/>
      <point x="303" y="331" type="qcurve"/>
      <point x="315" y="312"/>
      <point x="345" y="312" type="qcurve" smooth="yes"/>
      <point x="366" y="312"/>
      <point x="376" y="324" type="qcurve"/>
      <point x="387" y="335"/>
      <point x="387" y="353" type="qcurve" smooth="yes"/>
      <point x="387" y="391"/>
      <point x="346" y="426" type="qcurve" smooth="yes"/>
      <point x="308" y="460"/>
      <point x="241" y="460" type="qcurve" smooth="yes"/>
      <point x="159" y="460"/>
      <point x="95" y="395" type="qcurve"/>
      <point x="35" y="329"/>
      <point x="35" y="224" type="qcurve" smooth="yes"/>
      <point x="35" y="116"/>
      <point x="90" y="52" type="qcurve" smooth="yes"/>
      <point x="144" y="-12"/>
      <point x="220" y="-12" type="qcurve" smooth="yes"/>
      <point x="280" y="-12"/>
      <point x="333" y="35" type="qcurve" smooth="yes"/>
      <point x="384" y="82"/>
      <point x="402" y="173" type="qcurve"/>
    </contour>
  </outline>
</glyph>
<glyph name="d" format="2">
  <advance width="482"/>
  <unicode hex="0064"/>
  <outline>
    <contour>
      <point x="337" y="93" type="line"/>
      <point x="298" y="48"/>
      <point x="256" y="48" type="qcurve" smooth="yes"/>
      <point x="207" y="48"/>
      <point x="165" y="99" type="qcurve" smooth="yes"/>
      <point x="124" y="149"/>
      <point x="124" y="246" type="qcurve" smooth="yes"/>
      <point x="124" y="342"/>
      <point x="167" y="391" type="qcurve"/>
      <point x="195" y="428"/>
      <point x="239" y="428" type="qcurve" smooth="yes"/>
      <point x="264" y="428"/>
      <point x="284" y="415" type="qcurve" smooth="yes"/>
      <point x="306" y="401"/>
      <point x="320" y="375" type="qcurve" smooth="yes"/>
      <point x="335" y="348"/>
      <point x="337" y="313" type="qcurve"/>
    </contour>
    <contour>
      <point x="337" y="60" type="qcurve"/>
      <point x="337" y="-12" type="line"/>
      <point x="358" y="-12" type="line"/>
      <point x="484" y="44" type="line"/>
      <point x="480" y="60" type="line"/>
      <point x="451" y="52"/>
      <point x="446" y="52" type="qcurve" smooth="yes"/>
      <point x="435" y="52"/>
      <point x="429" y="59" type="qcurve"/>
      <point x="422" y="63"/>
      <point x="418" y="82" type="qcurve" smooth="yes"/>
      <point x="415" y="97"/>
      <point x="415" y="176" type="qcurve" smooth="yes"/>
      <point x="415" y="696" type="line"/>
      <point x="394" y="696" type="line"/>
      <point x="267" y="640" type="line"/>
      <point x="273" y="624" type="line"/>
      <point x="299" y="632"/>
      <point x="306" y="632" type="qcurve" smooth="yes"/>
      <point x="317" y="632"/>
      <point x="323" y="626" type="qcurve" smooth="yes"/>
      <point x="330" y="619"/>
      <point x="333" y="602" type="qcurve" smooth="yes"/>
      <point x="337" y="581"/>
      <point x="337" y="508" type="qcurve" smooth="yes"/>
      <point x="337" y="419" type="line"/>
      <point x="299" y="460"/>
      <point x="243" y="460" type="qcurve" smooth="yes"/>
      <point x="149" y="460"/>
      <point x="94" y="381" type="qcurve"/>
      <point x="35" y="301"/>
      <point x="35" y="206" type="qcurve" smooth="yes"/>
      <point x="35" y="111"/>
      <point x="88" y="49" type="qcurve" smooth="yes"/>
      <point x="140" y="-12"/>
      <point x="212" y="-12" type="qcurve" smooth="yes"/>
      <point x="244" y="-12"/>
      <point x="275" y="5" type="qcurve" smooth="yes"/>
      <point x="304" y="21"/>
    </contour>
  </outline>
</glyph>
<glyph name="e" format="2">
  <advance width="436"/>
  <unicode hex="0065"/>
  <outline>
    <contour>
      <point x="104" y="308" type="line"/>
      <point x="110" y="364"/>
      <point x="140" y="397" type="qcurve"/>
      <point x="171" y="428"/>
      <point x="212" y="428" type="qcurve" smooth="yes"/>
      <point x="237" y="428"/>
      <point x="261" y="413" type="qcurve"/>
      <point x="286" y="396"/>
      <point x="297" y="369" type="qcurve" smooth="yes"/>
      <point x="305" y="350"/>
      <point x="306" y="308" type="qcurve"/>
    </contour>
    <contour>
      <point x="104" y="276" type="line"/>
      <point x="402" y="276" type="line"/>
      <point x="402" y="361"/>
      <point x="356" y="410" type="qcurve" smooth="yes"/>
      <point x="309" y="460"/>
      <point x="236" y="460" type="qcurve" smooth="yes"/>
      <point x="147" y="460"/>
      <point x="93" y="396" type="qcurve"/>
      <point x="35" y="335"/>
      <point x="35" y="218" type="qcurve" smooth="yes"/>
      <point x="35" y="112"/>
      <point x="90" y="51" type="qcurve" smooth="yes"/>
      <point x="147" y="-12"/>
      <point x="224" y="-12" type="qcurve" smooth="yes"/>
      <point x="296" y="-12"/>
      <point x="346" y="41" type="qcurve"/>
      <point x="393" y="94"/>
      <point x="402" y="163" type="qcurve"/>
      <point x="391" y="172" type="line"/>
      <point x="368" y="113"/>
      <point x="338" y="91" type="qcurve"/>
      <point x="304" y="68"/>
      <point x="263" y="68" type="qcurve" smooth="yes"/>
      <point x="198" y="68"/>
      <point x="152" y="123" type="qcurve" smooth="yes"/>
      <point x="104" y="182"/>
      <point x="104" y="276" type="qcurve"/>
    </contour>
  </outline>
</glyph>
<glyph name="f" format="2">
  <advance width="318"/>
  <unicode hex="0066"/>
  <outline>
    <contour>
      <point x="197" y="416" type="line"/>
      <point x="311" y="416" type="line"/>
      <point x="311" y="448" type="line"/>
      <point x="197" y="448" type="line"/>
      <point x="197" y="481" type="line" smooth="yes"/>
      <point x="197" y="589"/>
      <point x="204" y="614" type="qcurve"/>
      <point x="210" y="639"/>
      <point x="227" y="652" type="qcurve" smooth="yes"/>
      <point x="242" y="664"/>
      <point x="263" y="664" type="qcurve" smooth="yes"/>
      <point x="282" y="664"/>
      <point x="297" y="655" type="qcurve"/>
      <point x="309" y="645"/>
      <point x="330" y="619" type="qcurve"/>
      <point x="347" y="592"/>
      <point x="360" y="584" type="qcurve"/>
      <point x="376" y="576"/>
      <point x="383" y="576" type="qcurve" smooth="yes"/>
      <point x="398" y="576"/>
      <point x="410" y="589" type="qcurve"/>
      <point x="422" y="601"/>
      <point x="422" y="616" type="qcurve" smooth="yes"/>
      <point x="422" y="642"/>
      <point x="394" y="664" type="qcurve"/>
      <point x="348" y="696"/>
      <point x="302" y="696" type="qcurve" smooth="yes"/>
      <point x="251" y="696"/>
      <point x="204" y="667" type="qcurve"/>
      <point x="164" y="639"/>
      <point x="140" y="592" type="qcurve"/>
      <point x="120" y="544"/>
      <point x="120" y="478" type="qcurve" smooth="yes"/>
      <point x="120" y="448" type="line"/>
      <point x="35" y="448" type="line"/>
      <point x="35" y="416" type="line"/>
      <point x="120" y="416" type="line"/>
      <point x="120" y="120" type="line" smooth="yes"/>
      <point x="120" y="67"/>
      <point x="113" y="54" type="qcurve"/>
      <point x="107" y="35"/>
      <point x="90" y="26" type="qcurve"/>
      <point x="79" y="16"/>
      <point x="55" y="16" type="qcurve" smooth="yes"/>
      <point x="35" y="16" type="line"/>
      <point x="35" y="0" type="line"/>
      <point x="298" y="0" type="line"/>
      <point x="298" y="16" type="line"/>
      <point x="258" y="16" type="line" smooth="yes"/>
      <point x="227" y="16"/>
      <point x="212" y="38" type="qcurve"/>
      <point x="197" y="55"/>
      <point x="197" y="120" type="qcurve" smooth="yes"/>
    </contour>
  </outline>
</glyph>
<glyph name="g" format="2">
  <advance width="482"/>
  <unicode hex="0067"/>
  <outline>
    <contour>
      <point x="138" y="0" type="line"/>
      <point x="185" y="-6"/>
      <point x="306" y="-8" type="qcurve" smooth="yes"/>
      <point x="379" y="-10"/>
      <point x="406" y="-20" type="qcurve"/>
      <point x="429" y="-30"/>
      <point x="429" y="-56" type="qcurve" smooth="yes"/>
      <point x="429" y="-91"/>
      <point x="390" y="-122" type="qcurve"/>
      <point x="347" y="-152"/>
      <point x="259" y="-152" type="qcurve" smooth="yes"/>
      <point x="172" y="-152"/>
      <point x="120" y="-123" type="qcurve" smooth="yes"/>
      <point x="93" y="-107"/>
      <point x="93" y="-83" type="qcurve" smooth="yes"/>
      <point x="93" y="-63"/>
      <point x="104" y="-45" type="qcurve" smooth="yes"/>
      <point x="112" y="-30"/>
      <point x="138" y="0" type="qcurve"/>
    </contour>
    <contour>
      <point x="229" y="436" type="line"/>
      <point x="266" y="436"/>
      <point x="293" y="404" type="qcurve" smooth="yes"/>
      <point x="328" y="361"/>
      <point x="328" y="283" type="qcurve" smooth="yes"/>
      <point x="328" y="221"/>
      <point x="303" y="196" type="qcurve"/>
      <point x="281" y="168"/>
      <point x="242" y="168" type="qcurve" smooth="yes"/>
      <point x="207" y="168"/>
      <point x="176" y="200" type="qcurve"/>
      <point x="143" y="244"/>
      <point x="143" y="319" type="qcurve" smooth="yes"/>
      <point x="143" y="380"/>
      <point x="167" y="408" type="qcurve" smooth="yes"/>
      <point x="192" y="436"/>
      <point x="229" y="436" type="qcurve"/>
    </contour>
    <contour>
      <point x="148" y="163" type="line"/>
      <point x="93" y="118"/>
      <point x="79" y="98" type="qcurve"/>
      <point x="65" y="75"/>
      <point x="65" y="58" type="qcurve" smooth="yes"/>
      <point x="65" y="41"/>
      <point x="76" y="31" type="qcurve"/>
      <point x="87" y="19"/>
      <point x="113" y="4" type="qcurve"/>
      <point x="69" y="-43"/>
      <point x="68" y="-48" type="qcurve"/>
      <point x="41" y="-83"/>
      <point x="35" y="-97" type="qcurve"/>
      <point x="30" y="-112"/>
      <point x="30" y="-120" type="qcurve" smooth="yes"/>
      <point x="30" y="-147"/>
      <point x="65" y="-170" type="qcurve" smooth="yes"/>
      <point x="128" y="-212"/>
      <point x="219" y="-212" type="qcurve" smooth="yes"/>
      <point x="336" y="-212"/>
      <point x="410" y="-141" type="qcurve" smooth="yes"/>
      <point x="461" y="-92"/>
      <point x="461" y="-37" type="qcurve" smooth="yes"/>
      <point x="461" y="3"/>
      <point x="434" y="31" type="qcurve" smooth="yes"/>
      <point x="407" y="58"/>
      <point x="362" y="64" type="qcurve" smooth="yes"/>
      <point x="341" y="67"/>
      <point x="233" y="69" type="qcurve"/>
      <point x="178" y="71"/>
      <point x="165" y="72" type="qcurve"/>
      <point x="147" y="75"/>
      <point x="134" y="83" type="qcurve"/>
      <point x="127" y="90"/>
      <point x="127" y="99" type="qcurve" smooth="yes"/>
      <point x="127" y="108"/>
      <point x="135" y="122" type="qcurve" smooth="yes"/>
      <point x="143" y="134"/>
      <point x="169" y="154" type="qcurve"/>
      <point x="199" y="144"/>
      <point x="236" y="144" type="qcurve" smooth="yes"/>
      <point x="311" y="144"/>
      <point x="358" y="188" type="qcurve" smooth="yes"/>
      <point x="406" y="232"/>
      <point x="406" y="292" type="qcurve" smooth="yes"/>
      <point x="406" y="345"/>
      <point x="380" y="380" type="qcurve"/>
      <point x="436" y="380" type="line" smooth="yes"/>
      <point x="449" y="380"/>
      <point x="460" y="382" type="qcurve" smooth="yes"/>
      <point x="464" y="383"/>
      <point x="464" y="385" type="qcurve"/>
      <point x="467" y="390"/>
      <point x="467" y="403" type="qcurve" smooth="yes"/>
      <point x="467" y="415"/>
      <point x="464" y="419" type="qcurve"/>
      <point x="464" y="422"/>
      <point x="460" y="423" type="qcurve"/>
      <point x="459" y="424"/>
      <point x="437" y="424" type="qcurve" smooth="yes"/>
      <point x="346" y="424" type="line"/>
      <point x="300" y="460"/>
      <point x="238" y="460" type="qcurve" smooth="yes"/>
      <point x="163" y="460"/>
      <point x="113" y="412" type="qcurve"/>
      <point x="65" y="363"/>
      <point x="65" y="298" type="qcurve" smooth="yes"/>
      <point x="65" y="257"/>
      <point x="86" y="219" type="qcurve" smooth="yes"/>
      <point x="107" y="183"/>
      <point x="148" y="163" type="qcurve"/>
    </contour>
  </outline>
</glyph>
<glyph name="h" format="2">
  <advance width="482"/>
  <unicode hex="0068"/>
  <outline>
    <contour>
      <point x="152" y="696" type="line"/>
      <point x="130" y="696" type="line"/>
      <point x="4" y="640" type="line"/>
      <point x="11" y="624" type="line"/>
      <point x="37" y="632"/>
      <point x="41" y="632" type="qcurve" smooth="yes"/>
      <point x="56" y="632"/>
      <point x="59" y="626" type="qcurve"/>
      <point x="67" y="620"/>
      <point x="70" y="602" type="qcurve" smooth="yes"/>
      <point x="74" y="575"/>
      <point x="74" y="508" type="qcurve" smooth="yes"/>
      <point x="74" y="100" type="line" smooth="yes"/>
      <point x="74" y="62"/>
      <point x="68" y="44" type="qcurve"/>
      <point x="61" y="30"/>
      <point x="54" y="25" type="qcurve" smooth="yes"/>
      <point x="38" y="16"/>
      <point x="8" y="16" type="qcurve"/>
      <point x="8" y="0" type="line"/>
      <point x="221" y="0" type="line"/>
      <point x="221" y="16" type="line"/>
      <point x="192" y="16"/>
      <point x="174" y="24" type="qcurve"/>
      <point x="161" y="32"/>
      <point x="157" y="43" type="qcurve"/>
      <point x="152" y="50"/>
      <point x="152" y="100" type="qcurve" smooth="yes"/>
      <point x="152" y="336" type="line"/>
      <point x="188" y="375"/>
      <point x="212" y="388" type="qcurve" smooth="yes"/>
      <point x="236" y="400"/>
      <point x="259" y="400" type="qcurve" smooth="yes"/>
      <point x="279" y="400"/>
      <point x="298" y="389" type="qcurve" smooth="yes"/>
      <point x="313" y="379"/>
      <point x="322" y="354" type="qcurve"/>
      <point x="329" y="328"/>
      <point x="329" y="258" type="qcurve" smooth="yes"/>
      <point x="329" y="100" type="line" smooth="yes"/>
      <point x="329" y="86"/>
      <point x="328" y="59" type="qcurve"/>
      <point x="328" y="54" type="line"/>
      <point x="324" y="34"/>
      <point x="311" y="26" type="qcurve"/>
      <point x="302" y="16"/>
      <point x="269" y="16" type="qcurve" smooth="yes"/>
      <point x="259" y="16" type="line"/>
      <point x="259" y="0" type="line"/>
      <point x="473" y="0" type="line"/>
      <point x="473" y="16" type="line"/>
      <point x="439" y="16"/>
      <point x="429" y="23" type="qcurve"/>
      <point x="418" y="33"/>
      <point x="414" y="42" type="qcurve" smooth="yes"/>
      <point x="407" y="59"/>
      <point x="407" y="100" type="qcurve" smooth="yes"/>
      <point x="407" y="259" type="line" smooth="yes"/>
      <point x="407" y="343"/>
      <point x="398" y="373" type="qcurve"/>
      <point x="388" y="419"/>
      <point x="358" y="439" type="qcurve"/>
      <point x="333" y="460"/>
      <point x="296" y="460" type="qcurve" smooth="yes"/>
      <point x="268" y="460"/>
      <point x="234" y="443" type="qcurve"/>
      <point x="203" y="426"/>
      <point x="152" y="366" type="qcurve"/>
    </contour>
  </outline>
</glyph>
<glyph name="i" format="2">
  <advance width="271"/>
  <unicode hex="0069"/>
  <outline>
    <contour>
      <point x="178" y="460" type="line"/>
      <point x="158" y="460" type="line"/>
      <point x="31" y="404" type="line"/>
      <point x="38" y="388" type="line"/>
      <point x="51" y="395"/>
      <point x="68" y="395" type="qcurve" smooth="yes"/>
      <point x="81" y="395"/>
      <point x="87" y="389" type="qcurve" smooth="yes"/>
      <point x="92" y="383"/>
      <point x="97" y="367" type="qcurve"/>
      <point x="100" y="348"/>
      <point x="100" y="272" type="qcurve" smooth="yes"/>
      <point x="100" y="100" type="line" smooth="yes"/>
      <point x="100" y="61"/>
      <point x="95" y="44" type="qcurve"/>
      <point x="88" y="31"/>
      <point x="77" y="23" type="qcurve"/>
      <point x="71" y="16"/>
      <point x="35" y="16" type="qcurve"/>
      <point x="35" y="0" type="line"/>
      <point x="244" y="0" type="line"/>
      <point x="244" y="16" type="line"/>
      <point x="210" y="16"/>
      <point x="202" y="23" type="qcurve"/>
      <point x="187" y="31"/>
      <point x="184" y="44" type="qcurve"/>
      <point x="178" y="58"/>
      <point x="178" y="100" type="qcurve" smooth="yes"/>
    </contour>
    <contour>
      <point x="138" y="696" type="line"/>
      <point x="120" y="696"/>
      <point x="104" y="682" type="qcurve"/>
      <point x="89" y="666"/>
      <point x="89" y="646" type="qcurve" smooth="yes"/>
      <point x="89" y="628"/>
      <point x="104" y="611" type="qcurve"/>
      <point x="119" y="596"/>
      <point x="138" y="596" type="qcurve" smooth="yes"/>
      <point x="159" y="596"/>
      <point x="172" y="611" type="qcurve"/>
      <point x="186" y="625"/>
      <point x="186" y="646" type="qcurve" smooth="yes"/>
      <point x="186" y="668"/>
      <point x="172" y="682" type="qcurve"/>
      <point x="155" y="696"/>
      <point x="138" y="696" type="qcurve"/>
    </contour>
  </outline>
</glyph>
<glyph name="j" format="2">
  <advance width="275"/>
  <unicode hex="006A"/>
  <outline>
    <contour>
      <point x="179" y="460" type="line"/>
      <point x="158" y="460" type="line"/>
      <point x="32" y="404" type="line"/>
      <point x="38" y="388" type="line"/>
      <point x="52" y="395"/>
      <point x="68" y="395" type="qcurve" smooth="yes"/>
      <point x="81" y="395"/>
      <point x="87" y="389" type="qcurve" smooth="yes"/>
      <point x="92" y="383"/>
      <point x="97" y="367" type="qcurve" smooth="yes"/>
      <point x="103" y="345"/>
      <point x="103" y="272" type="qcurve" smooth="yes"/>
      <point x="103" y="-42" type="line" smooth="yes"/>
      <point x="103" y="-102"/>
      <point x="97" y="-133" type="qcurve"/>
      <point x="89" y="-156"/>
      <point x="80" y="-163" type="qcurve" smooth="yes"/>
      <point x="70" y="-172"/>
      <point x="59" y="-172" type="qcurve" smooth="yes"/>
      <point x="43" y="-172"/>
      <point x="20" y="-151" type="qcurve" smooth="yes"/>
      <point x="-3" y="-129"/>
      <point x="-11" y="-126" type="qcurve" smooth="yes"/>
      <point x="-25" y="-120"/>
      <point x="-38" y="-120" type="qcurve" smooth="yes"/>
      <point x="-55" y="-120"/>
      <point x="-65" y="-133" type="qcurve"/>
      <point x="-77" y="-144"/>
      <point x="-77" y="-162" type="qcurve" smooth="yes"/>
      <point x="-77" y="-180"/>
      <point x="-56" y="-196" type="qcurve"/>
      <point x="-39" y="-212"/>
      <point x="8" y="-212" type="qcurve" smooth="yes"/>
      <point x="85" y="-212"/>
      <point x="131" y="-157" type="qcurve"/>
      <point x="179" y="-103"/>
      <point x="179" y="13" type="qcurve" smooth="yes"/>
    </contour>
    <contour>
      <point x="138" y="696" type="qcurve" smooth="yes"/>
      <point x="120" y="696"/>
      <point x="104" y="682" type="qcurve"/>
      <point x="90" y="665"/>
      <point x="90" y="646" type="qcurve" smooth="yes"/>
      <point x="90" y="625"/>
      <point x="104" y="611" type="qcurve" smooth="yes"/>
      <point x="119" y="596"/>
      <point x="138" y="596" type="qcurve" smooth="yes"/>
      <point x="158" y="596"/>
      <point x="173" y="611" type="qcurve"/>
      <point x="187" y="628"/>
      <point x="187" y="646" type="qcurve" smooth="yes"/>
      <point x="187" y="665"/>
      <point x="173" y="682" type="qcurve"/>
      <point x="154" y="696"/>
    </contour>
  </outline>
</glyph>
<glyph name="k" format="2">
  <advance width="489"/>
  <unicode hex="006B"/>
  <outline>
    <contour>
      <point x="158" y="696" type="line"/>
      <point x="138" y="696" type="line"/>
      <point x="11" y="640" type="line"/>
      <point x="20" y="624" type="line"/>
      <point x="42" y="632"/>
      <point x="48" y="632" type="qcurve" smooth="yes"/>
      <point x="61" y="632"/>
      <point x="68" y="626" type="qcurve"/>
      <point x="73" y="621"/>
      <point x="78" y="602" type="qcurve"/>
      <point x="81" y="586"/>
      <point x="81" y="508" type="qcurve" smooth="yes"/>
      <point x="81" y="100" type="line" smooth="yes"/>
      <point x="81" y="60"/>
      <point x="74" y="42" type="qcurve" smooth="yes"/>
      <point x="69" y="29"/>
      <point x="59" y="25" type="qcurve"/>
      <point x="44" y="16"/>
      <point x="11" y="16" type="qcurve"/>
      <point x="11" y="0" type="line"/>
      <point x="229" y="0" type="line"/>
      <point x="229" y="16" type="line"/>
      <point x="195" y="17"/>
      <point x="182" y="23" type="qcurve"/>
      <point x="170" y="28"/>
      <point x="165" y="42" type="qcurve"/>
      <point x="158" y="60"/>
      <point x="158" y="100" type="qcurve" smooth="yes"/>
      <point x="158" y="250" type="line"/>
      <point x="292" y="74" type="line"/>
      <point x="311" y="47"/>
      <point x="311" y="37" type="qcurve" smooth="yes"/>
      <point x="311" y="27"/>
      <point x="303" y="22" type="qcurve"/>
      <point x="297" y="18"/>
      <point x="279" y="16" type="qcurve"/>
      <point x="279" y="0" type="line"/>
      <point x="487" y="0" type="line"/>
      <point x="487" y="24" type="line"/>
      <point x="456" y="24"/>
      <point x="447" y="28" type="qcurve" smooth="yes"/>
      <point x="428" y="37"/>
      <point x="410" y="53" type="qcurve"/>
      <point x="407" y="57"/>
      <point x="384" y="85" type="qcurve"/>
      <point x="383" y="87"/>
      <point x="376" y="97" type="qcurve"/>
      <point x="370" y="104"/>
      <point x="365" y="111" type="qcurve"/>
      <point x="348" y="130" type="line"/>
      <point x="233" y="279" type="line"/>
      <point x="345" y="383" type="line"/>
      <point x="374" y="412"/>
      <point x="401" y="424" type="qcurve" smooth="yes"/>
      <point x="427" y="435"/>
      <point x="464" y="436" type="qcurve"/>
      <point x="464" y="448" type="line"/>
      <point x="279" y="448" type="line"/>
      <point x="279" y="432" type="line"/>
      <point x="298" y="431"/>
      <point x="306" y="424" type="qcurve"/>
      <point x="312" y="417"/>
      <point x="312" y="407" type="qcurve" smooth="yes"/>
      <point x="312" y="401"/>
      <point x="309" y="396" type="qcurve"/>
      <point x="303" y="385"/>
      <point x="268" y="354" type="qcurve"/>
      <point x="158" y="250" type="line"/>
    </contour>
  </outline>
</glyph>
<glyph name="l" format="2">
  <advance width="275"/>
  <unicode hex="006C"/>
  <outline>
    <contour>
      <point x="178" y="696" type="line"/>
      <point x="158" y="696" type="line"/>
      <point x="31" y="640" type="line"/>
      <point x="39" y="624" type="line"/>
      <point x="61" y="632"/>
      <point x="68" y="632" type="qcurve" smooth="yes"/>
      <point x="81" y="632"/>
      <point x="87" y="626" type="qcurve" smooth="yes"/>
      <point x="95" y="616"/>
      <point x="98" y="602" type="qcurve"/>
      <point x="100" y="552"/>
      <point x="100" y="508" type="qcurve" smooth="yes"/>
      <point x="100" y="100" type="line" smooth="yes"/>
      <point x="100" y="61"/>
      <point x="95" y="44" type="qcurve"/>
      <point x="88" y="31"/>
      <point x="77" y="23" type="qcurve" smooth="yes"/>
      <point x="67" y="16"/>
      <point x="35" y="16" type="qcurve"/>
      <point x="35" y="0" type="line"/>
      <point x="248" y="0" type="line"/>
      <point x="248" y="16" type="line"/>
      <point x="212" y="16"/>
      <point x="202" y="23" type="qcurve"/>
      <point x="187" y="31"/>
      <point x="184" y="44" type="qcurve"/>
      <point x="178" y="58"/>
      <point x="178" y="100" type="qcurve" smooth="yes"/>
    </contour>
  </outline>
</glyph>
<glyph name="m" format="2">
  <advance width="759"/>
  <unicode hex="006D"/>
  <outline>
    <contour>
      <point x="158" y="364" type="line"/>
      <point x="158" y="460" type="line"/>
      <point x="139" y="460" type="line"/>
      <point x="11" y="404" type="line"/>
      <point x="19" y="388" type="line"/>
      <point x="30" y="395"/>
      <point x="49" y="395" type="qcurve" smooth="yes"/>
      <point x="62" y="395"/>
      <point x="68" y="389" type="qcurve"/>
      <point x="77" y="382"/>
      <point x="77" y="367" type="qcurve"/>
      <point x="81" y="354"/>
      <point x="81" y="272" type="qcurve" smooth="yes"/>
      <point x="81" y="100" type="line" smooth="yes"/>
      <point x="81" y="58"/>
      <point x="75" y="44" type="qcurve" smooth="yes"/>
      <point x="68" y="28"/>
      <point x="58" y="23" type="qcurve"/>
      <point x="47" y="16"/>
      <point x="15" y="16" type="qcurve"/>
      <point x="15" y="0" type="line"/>
      <point x="229" y="0" type="line"/>
      <point x="229" y="16" type="line"/>
      <point x="191" y="16"/>
      <point x="183" y="23" type="qcurve"/>
      <point x="170" y="29"/>
      <point x="165" y="43" type="qcurve"/>
      <point x="158" y="61"/>
      <point x="158" y="100" type="qcurve" smooth="yes"/>
      <point x="158" y="339" type="line"/>
      <point x="181" y="367"/>
      <point x="220" y="386" type="qcurve" smooth="yes"/>
      <point x="250" y="400"/>
      <point x="271" y="400" type="qcurve" smooth="yes"/>
      <point x="308" y="400"/>
      <point x="329" y="370" type="qcurve" smooth="yes"/>
      <point x="346" y="347"/>
      <point x="346" y="292" type="qcurve" smooth="yes"/>
      <point x="346" y="100" type="line" smooth="yes"/>
      <point x="346" y="61"/>
      <point x="342" y="51" type="qcurve"/>
      <point x="337" y="34"/>
      <point x="323" y="25" type="qcurve"/>
      <point x="311" y="16"/>
      <point x="275" y="16" type="qcurve"/>
      <point x="275" y="0" type="line"/>
      <point x="491" y="0" type="line"/>
      <point x="491" y="16" type="line"/>
      <point x="462" y="16"/>
      <point x="446" y="24" type="qcurve"/>
      <point x="433" y="31"/>
      <point x="427" y="43" type="qcurve"/>
      <point x="422" y="51"/>
      <point x="422" y="100" type="qcurve" smooth="yes"/>
      <point x="422" y="313" type="line"/>
      <point x="422" y="334" type="line"/>
      <point x="424" y="339" type="line"/>
      <point x="459" y="372"/>
      <point x="484" y="387" type="qcurve"/>
      <point x="504" y="400"/>
      <point x="534" y="400" type="qcurve" smooth="yes"/>
      <point x="573" y="400"/>
      <point x="592" y="369" type="qcurve"/>
      <point x="604" y="347"/>
      <point x="604" y="292" type="qcurve" smooth="yes"/>
      <point x="604" y="100" type="line" smooth="yes"/>
      <point x="604" y="66"/>
      <point x="602" y="52" type="qcurve"/>
      <point x="598" y="35"/>
      <point x="588" y="27" type="qcurve"/>
      <point x="568" y="16"/>
      <point x="544" y="16" type="qcurve" smooth="yes"/>
      <point x="535" y="16" type="line"/>
      <point x="535" y="0" type="line"/>
      <point x="747" y="0" type="line"/>
      <point x="747" y="16" type="line"/>
      <point x="723" y="16"/>
      <point x="705" y="24" type="qcurve"/>
      <point x="692" y="32"/>
      <point x="688" y="42" type="qcurve" smooth="yes"/>
      <point x="681" y="59"/>
      <point x="681" y="100" type="qcurve" smooth="yes"/>
      <point x="681" y="293" type="line" smooth="yes"/>
      <point x="681" y="353"/>
      <point x="671" y="382" type="qcurve"/>
      <point x="656" y="422"/>
      <point x="630" y="442" type="qcurve"/>
      <point x="603" y="460"/>
      <point x="570" y="460" type="qcurve" smooth="yes"/>
      <point x="536" y="460"/>
      <point x="500" y="442" type="qcurve"/>
      <point x="466" y="422"/>
      <point x="420" y="364" type="qcurve"/>
      <point x="410" y="411"/>
      <point x="381" y="436" type="qcurve"/>
      <point x="350" y="460"/>
      <point x="311" y="460" type="qcurve" smooth="yes"/>
      <point x="281" y="460"/>
      <point x="262" y="450" type="qcurve"/>
      <point x="238" y="440"/>
      <point x="214" y="420" type="qcurve"/>
      <point x="213" y="419" type="line"/>
      <point x="209" y="415" type="line"/>
      <point x="202" y="407"/>
      <point x="196" y="401" type="qcurve" smooth="yes"/>
      <point x="187" y="392" type="line" smooth="yes"/>
      <point x="175" y="380"/>
      <point x="169" y="375" type="qcurve"/>
    </contour>
  </outline>
</glyph>
<glyph name="n" format="2">
  <advance width="489"/>
  <unicode hex="006E"/>
  <outline>
    <contour>
      <point x="152" y="365" type="qcurve"/>
      <point x="152" y="460" type="line"/>
      <point x="132" y="460" type="line"/>
      <point x="4" y="404" type="line"/>
      <point x="11" y="388" type="line"/>
      <point x="24" y="395"/>
      <point x="41" y="395" type="qcurve" smooth="yes"/>
      <point x="56" y="395"/>
      <point x="59" y="389" type="qcurve"/>
      <point x="66" y="384"/>
      <point x="70" y="366" type="qcurve" smooth="yes"/>
      <point x="74" y="345"/>
      <point x="74" y="272" type="qcurve" smooth="yes"/>
      <point x="74" y="100" type="line" smooth="yes"/>
      <point x="74" y="50"/>
      <point x="61" y="34" type="qcurve"/>
      <point x="52" y="16"/>
      <point x="18" y="16" type="qcurve" smooth="yes"/>
      <point x="8" y="16" type="line"/>
      <point x="8" y="0" type="line"/>
      <point x="221" y="0" type="line"/>
      <point x="221" y="16" type="line"/>
      <point x="182" y="16"/>
      <point x="174" y="23" type="qcurve"/>
      <point x="161" y="31"/>
      <point x="157" y="44" type="qcurve"/>
      <point x="152" y="51"/>
      <point x="152" y="100" type="qcurve" smooth="yes"/>
      <point x="152" y="337" type="line"/>
      <point x="208" y="400"/>
      <point x="266" y="400" type="qcurve" smooth="yes"/>
      <point x="302" y="400"/>
      <point x="318" y="373" type="qcurve" smooth="yes"/>
      <point x="332" y="347"/>
      <point x="332" y="284" type="qcurve" smooth="yes"/>
      <point x="332" y="100" type="line" smooth="yes"/>
      <point x="332" y="55"/>
      <point x="331" y="54" type="qcurve"/>
      <point x="327" y="36"/>
      <point x="315" y="26" type="qcurve" smooth="yes"/>
      <point x="304" y="16"/>
      <point x="272" y="16" type="qcurve" smooth="yes"/>
      <point x="263" y="16" type="line"/>
      <point x="263" y="0" type="line"/>
      <point x="476" y="0" type="line"/>
      <point x="476" y="16" type="line"/>
      <point x="442" y="16"/>
      <point x="434" y="23" type="qcurve"/>
      <point x="422" y="30"/>
      <point x="417" y="42" type="qcurve" smooth="yes"/>
      <point x="410" y="60"/>
      <point x="410" y="100" type="qcurve" smooth="yes"/>
      <point x="410" y="291" type="line" smooth="yes"/>
      <point x="410" y="355"/>
      <point x="400" y="381" type="qcurve"/>
      <point x="388" y="419"/>
      <point x="358" y="442" type="qcurve" smooth="yes"/>
      <point x="333" y="460"/>
      <point x="297" y="460" type="qcurve" smooth="yes"/>
      <point x="232" y="460"/>
    </contour>
  </outline>
</glyph>
<glyph name="o" format="2">
  <advance width="476"/>
  <unicode hex="006F"/>
  <outline>
    <contour>
      <point x="231" y="428" type="line"/>
      <point x="280" y="428"/>
      <point x="315" y="381" type="qcurve" smooth="yes"/>
      <point x="365" y="311"/>
      <point x="365" y="193" type="qcurve" smooth="yes"/>
      <point x="365" y="100"/>
      <point x="335" y="59" type="qcurve" smooth="yes"/>
      <point x="305" y="20"/>
      <point x="259" y="20" type="qcurve" smooth="yes"/>
      <point x="201" y="20"/>
      <point x="160" y="91" type="qcurve"/>
      <point x="124" y="163"/>
      <point x="124" y="259" type="qcurve" smooth="yes"/>
      <point x="124" y="322"/>
      <point x="139" y="359" type="qcurve" smooth="yes"/>
      <point x="154" y="396"/>
      <point x="180" y="413" type="qcurve"/>
      <point x="206" y="428"/>
      <point x="231" y="428" type="qcurve"/>
    </contour>
    <contour>
      <point x="244" y="460" type="line"/>
      <point x="193" y="460"/>
      <point x="143" y="431" type="qcurve" smooth="yes"/>
      <point x="95" y="403"/>
      <point x="64" y="342" type="qcurve"/>
      <point x="35" y="276"/>
      <point x="35" y="220" type="qcurve" smooth="yes"/>
      <point x="35" y="135"/>
      <point x="84" y="68" type="qcurve" smooth="yes"/>
      <point x="143" y="-12"/>
      <point x="239" y="-12" type="qcurve" smooth="yes"/>
      <point x="302" y="-12"/>
      <point x="348" y="19" type="qcurve" smooth="yes"/>
      <point x="398" y="53"/>
      <point x="425" y="112" type="qcurve"/>
      <point x="454" y="179"/>
      <point x="454" y="233" type="qcurve" smooth="yes"/>
      <point x="454" y="319"/>
      <point x="402" y="383" type="qcurve"/>
      <point x="343" y="460"/>
      <point x="244" y="460" type="qcurve"/>
    </contour>
  </outline>
</glyph>
<glyph name="p" format="2">
  <advance width="476"/>
  <unicode hex="0070"/>
  <outline>
    <contour>
      <point x="152" y="328" type="line"/>
      <point x="194" y="373"/>
      <point x="207" y="380" type="qcurve" smooth="yes"/>
      <point x="231" y="392"/>
      <point x="253" y="392" type="qcurve" smooth="yes"/>
      <point x="295" y="392"/>
      <point x="325" y="354" type="qcurve" smooth="yes"/>
      <point x="367" y="299"/>
      <point x="367" y="197" type="qcurve" smooth="yes"/>
      <point x="367" y="105"/>
      <point x="329" y="58" type="qcurve" smooth="yes"/>
      <point x="299" y="20"/>
      <point x="253" y="20" type="qcurve" smooth="yes"/>
      <point x="212" y="20"/>
      <point x="187" y="42" type="qcurve" smooth="yes"/>
      <point x="161" y="64"/>
      <point x="155" y="91" type="qcurve" smooth="yes"/>
      <point x="152" y="106"/>
      <point x="152" y="162" type="qcurve" smooth="yes"/>
    </contour>
    <contour>
      <point x="4" y="404" type="line"/>
      <point x="10" y="388" type="line"/>
      <point x="23" y="395"/>
      <point x="38" y="395" type="qcurve" smooth="yes"/>
      <point x="50" y="395"/>
      <point x="59" y="389" type="qcurve" smooth="yes"/>
      <point x="65" y="385"/>
      <point x="70" y="372" type="qcurve" smooth="yes"/>
      <point x="74" y="361"/>
      <point x="74" y="320" type="qcurve" smooth="yes"/>
      <point x="74" y="-104" type="line" smooth="yes"/>
      <point x="74" y="-158"/>
      <point x="68" y="-168" type="qcurve"/>
      <point x="63" y="-181"/>
      <point x="55" y="-185" type="qcurve" smooth="yes"/>
      <point x="31" y="-196"/>
      <point x="9" y="-196" type="qcurve" smooth="yes"/>
      <point x="-4" y="-196" type="line"/>
      <point x="-4" y="-212" type="line"/>
      <point x="221" y="-212" type="line"/>
      <point x="221" y="-196" type="line"/>
      <point x="184" y="-196"/>
      <point x="174" y="-189" type="qcurve" smooth="yes"/>
      <point x="162" y="-181"/>
      <point x="157" y="-170" type="qcurve" smooth="yes"/>
      <point x="152" y="-158"/>
      <point x="152" y="-112" type="qcurve" smooth="yes"/>
      <point x="152" y="30" type="line"/>
      <point x="177" y="7"/>
      <point x="194" y="-1" type="qcurve"/>
      <point x="227" y="-12"/>
      <point x="254" y="-12" type="qcurve" smooth="yes"/>
      <point x="334" y="-12"/>
      <point x="388" y="50" type="qcurve" smooth="yes"/>
      <point x="454" y="127"/>
      <point x="454" y="240" type="qcurve" smooth="yes"/>
      <point x="454" y="344"/>
      <point x="400" y="408" type="qcurve" smooth="yes"/>
      <point x="357" y="460"/>
      <point x="291" y="460" type="qcurve" smooth="yes"/>
      <point x="254" y="460"/>
      <point x="219" y="437" type="qcurve" smooth="yes"/>
      <point x="186" y="414"/>
      <point x="152" y="357" type="qcurve"/>
      <point x="152" y="460" type="line"/>
      <point x="134" y="460" type="line"/>
    </contour>
  </outline>
</glyph>
<glyph name="q" format="2">
  <advance width="482"/>
  <unicode hex="0071"/>
  <outline>
    <contour>
      <point x="337" y="109" type="line"/>
      <point x="321" y="84"/>
      <point x="295" y="69" type="qcurve"/>
      <point x="275" y="56"/>
      <point x="244" y="56" type="qcurve" smooth="yes"/>
      <point x="191" y="56"/>
      <point x="152" y="103" type="qcurve" smooth="yes"/>
      <point x="113" y="150"/>
      <point x="113" y="241" type="qcurve" smooth="yes"/>
      <point x="113" y="336"/>
      <point x="150" y="382" type="qcurve" smooth="yes"/>
      <point x="186" y="428"/>
      <point x="241" y="428" type="qcurve" smooth="yes"/>
      <point x="267" y="428"/>
      <point x="295" y="414" type="qcurve"/>
      <point x="319" y="399"/>
      <point x="328" y="378" type="qcurve" smooth="yes"/>
      <point x="337" y="356"/>
      <point x="337" y="320" type="qcurve" smooth="yes"/>
    </contour>
    <contour>
      <point x="415" y="460" type="line"/>
      <point x="398" y="460" type="line"/>
      <point x="394" y="457"/>
      <point x="362" y="440" type="qcurve" smooth="yes"/>
      <point x="353" y="435" type="line"/>
      <point x="346" y="431" type="line"/>
      <point x="326" y="446"/>
      <point x="305" y="453" type="qcurve"/>
      <point x="288" y="460"/>
      <point x="256" y="460" type="qcurve" smooth="yes"/>
      <point x="166" y="460"/>
      <point x="99" y="389" type="qcurve"/>
      <point x="35" y="319"/>
      <point x="35" y="204" type="qcurve" smooth="yes"/>
      <point x="35" y="106"/>
      <point x="85" y="47" type="qcurve" smooth="yes"/>
      <point x="135" y="-12"/>
      <point x="196" y="-12" type="qcurve" smooth="yes"/>
      <point x="234" y="-12"/>
      <point x="262" y="7" type="qcurve"/>
      <point x="295" y="27"/>
      <point x="337" y="79" type="qcurve"/>
      <point x="337" y="-112" type="line" smooth="yes"/>
      <point x="337" y="-158"/>
      <point x="331" y="-168" type="qcurve"/>
      <point x="327" y="-180"/>
      <point x="317" y="-188" type="qcurve"/>
      <point x="296" y="-196"/>
      <point x="276" y="-196" type="qcurve" smooth="yes"/>
      <point x="267" y="-196" type="line"/>
      <point x="267" y="-212" type="line"/>
      <point x="484" y="-212" type="line"/>
      <point x="484" y="-196" type="line"/>
      <point x="448" y="-196"/>
      <point x="437" y="-189" type="qcurve" smooth="yes"/>
      <point x="424" y="-179"/>
      <point x="420" y="-169" type="qcurve" smooth="yes"/>
      <point x="415" y="-157"/>
      <point x="415" y="-112" type="qcurve" smooth="yes"/>
    </contour>
  </outline>
</glyph>
<glyph name="r" format="2">
  <advance width="330"/>
  <unicode hex="0072"/>
  <outline>
    <contour>
      <point x="152" y="460" type="line"/>
      <point x="132" y="460" type="line"/>
      <point x="4" y="404" type="line"/>
      <point x="9" y="388" type="line"/>
      <point x="22" y="395"/>
      <point x="40" y="395" type="qcurve" smooth="yes"/>
      <point x="53" y="395"/>
      <point x="59" y="389" type="qcurve"/>
      <point x="67" y="383"/>
      <point x="70" y="367" type="qcurve"/>
      <point x="74" y="355"/>
      <point x="74" y="272" type="qcurve" smooth="yes"/>
      <point x="74" y="100" type="line" smooth="yes"/>
      <point x="74" y="64"/>
      <point x="71" y="52" type="qcurve"/>
      <point x="66" y="35"/>
      <point x="55" y="27" type="qcurve"/>
      <point x="35" y="16"/>
      <point x="4" y="16" type="qcurve"/>
      <point x="4" y="0" type="line"/>
      <point x="229" y="0" type="line"/>
      <point x="229" y="16" type="line"/>
      <point x="196" y="16"/>
      <point x="183" y="26" type="qcurve"/>
      <point x="168" y="33"/>
      <point x="160" y="47" type="qcurve"/>
      <point x="152" y="66"/>
      <point x="152" y="100" type="qcurve" smooth="yes"/>
      <point x="152" y="318" type="line"/>
      <point x="174" y="363"/>
      <point x="196" y="382" type="qcurve"/>
      <point x="205" y="392"/>
      <point x="214" y="392" type="qcurve" smooth="yes"/>
      <point x="228" y="392"/>
      <point x="248" y="376" type="qcurve" smooth="yes"/>
      <point x="267" y="360"/>
      <point x="283" y="360" type="qcurve" smooth="yes"/>
      <point x="297" y="360"/>
      <point x="311" y="374" type="qcurve"/>
      <point x="321" y="387"/>
      <point x="321" y="406" type="qcurve" smooth="yes"/>
      <point x="321" y="428"/>
      <point x="305" y="444" type="qcurve"/>
      <point x="291" y="460"/>
      <point x="262" y="460" type="qcurve" smooth="yes"/>
      <point x="206" y="460"/>
      <point x="152" y="359" type="qcurve"/>
    </contour>
  </outline>
</glyph>
<glyph name="s" format="2">
  <advance width="376"/>
  <unicode hex="0073"/>
  <outline>
    <contour>
      <point x="311" y="460" type="line"/>
      <point x="293" y="460" type="line"/>
      <point x="292" y="450"/>
      <point x="284" y="444" type="qcurve"/>
      <point x="281" y="440"/>
      <point x="273" y="440" type="qcurve"/>
      <point x="271" y="440"/>
      <point x="257" y="444" type="qcurve"/>
      <point x="253" y="445" type="line"/>
      <point x="239" y="448" type="line"/>
      <point x="206" y="460"/>
      <point x="178" y="460" type="qcurve" smooth="yes"/>
      <point x="117" y="460"/>
      <point x="84" y="423" type="qcurve"/>
      <point x="46" y="384"/>
      <point x="46" y="330" type="qcurve" smooth="yes"/>
      <point x="46" y="288"/>
      <point x="68" y="259" type="qcurve" smooth="yes"/>
      <point x="89" y="230"/>
      <point x="157" y="197" type="qcurve"/>
      <point x="226" y="162"/>
      <point x="248" y="141" type="qcurve" smooth="yes"/>
      <point x="271" y="118"/>
      <point x="271" y="85" type="qcurve" smooth="yes"/>
      <point x="271" y="58"/>
      <point x="249" y="39" type="qcurve"/>
      <point x="233" y="20"/>
      <point x="196" y="20" type="qcurve" smooth="yes"/>
      <point x="151" y="20"/>
      <point x="113" y="55" type="qcurve" smooth="yes"/>
      <point x="76" y="89"/>
      <point x="61" y="156" type="qcurve"/>
      <point x="46" y="156" type="line"/>
      <point x="46" y="-4" type="line"/>
      <point x="61" y="-12" type="line"/>
      <point x="69" y="8"/>
      <point x="79" y="8" type="qcurve" smooth="yes"/>
      <point x="86" y="8"/>
      <point x="103" y="4" type="qcurve"/>
      <point x="104" y="3" type="line"/>
      <point x="158" y="-12"/>
      <point x="196" y="-12" type="qcurve" smooth="yes"/>
      <point x="253" y="-12"/>
      <point x="296" y="25" type="qcurve" smooth="yes"/>
      <point x="341" y="63"/>
      <point x="341" y="123" type="qcurve" smooth="yes"/>
      <point x="341" y="202"/>
      <point x="244" y="250" type="qcurve" smooth="yes"/>
      <point x="176" y="284" type="line"/>
      <point x="132" y="304"/>
      <point x="118" y="325" type="qcurve" smooth="yes"/>
      <point x="104" y="345"/>
      <point x="104" y="371" type="qcurve" smooth="yes"/>
      <point x="104" y="395"/>
      <point x="125" y="411" type="qcurve" smooth="yes"/>
      <point x="148" y="428"/>
      <point x="178" y="428" type="qcurve" smooth="yes"/>
      <point x="223" y="428"/>
      <point x="248" y="403" type="qcurve"/>
      <point x="278" y="378"/>
      <point x="293" y="308" type="qcurve"/>
      <point x="311" y="308" type="line"/>
    </contour>
  </outline>
</glyph>
<glyph name="t" format="2">
  <advance width="275"/>
  <unicode hex="0074"/>
  <outline>
    <contour>
      <point x="152" y="596" type="line"/>
      <point x="139" y="596" type="line"/>
      <point x="127" y="560"/>
      <point x="108" y="528" type="qcurve" smooth="yes"/>
      <point x="87" y="494"/>
      <point x="59" y="467" type="qcurve"/>
      <point x="30" y="441"/>
      <point x="4" y="431" type="qcurve"/>
      <point x="4" y="416" type="line"/>
      <point x="74" y="416" type="line"/>
      <point x="74" y="110" type="line" smooth="yes"/>
      <point x="74" y="63"/>
      <point x="84" y="37" type="qcurve" smooth="yes"/>
      <point x="93" y="15"/>
      <point x="114" y="1" type="qcurve"/>
      <point x="131" y="-12"/>
      <point x="158" y="-12" type="qcurve" smooth="yes"/>
      <point x="192" y="-12"/>
      <point x="220" y="13" type="qcurve"/>
      <point x="252" y="39"/>
      <point x="267" y="88" type="qcurve"/>
      <point x="244" y="88" type="line"/>
      <point x="238" y="70"/>
      <point x="222" y="58" type="qcurve"/>
      <point x="212" y="48"/>
      <point x="193" y="48" type="qcurve" smooth="yes"/>
      <point x="173" y="48"/>
      <point x="163" y="64" type="qcurve"/>
      <point x="152" y="78"/>
      <point x="152" y="123" type="qcurve" smooth="yes"/>
      <point x="152" y="416" type="line"/>
      <point x="253" y="416" type="line"/>
      <point x="253" y="448" type="line"/>
      <point x="152" y="448" type="line"/>
    </contour>
  </outline>
</glyph>
<glyph name="u" format="2">
  <advance width="482"/>
  <unicode hex="0075"/>
  <outline>
    <contour>
      <point x="410" y="448" type="line"/>
      <point x="263" y="448" type="line"/>
      <point x="263" y="432" type="line"/>
      <point x="307" y="431"/>
      <point x="319" y="417" type="qcurve" smooth="yes"/>
      <point x="332" y="404"/>
      <point x="332" y="364" type="qcurve" smooth="yes"/>
      <point x="332" y="111" type="line"/>
      <point x="301" y="75"/>
      <point x="271" y="61" type="qcurve"/>
      <point x="248" y="48"/>
      <point x="223" y="48" type="qcurve" smooth="yes"/>
      <point x="196" y="48"/>
      <point x="173" y="68" type="qcurve" smooth="yes"/>
      <point x="152" y="88"/>
      <point x="152" y="149" type="qcurve" smooth="yes"/>
      <point x="152" y="448" type="line"/>
      <point x="4" y="448" type="line"/>
      <point x="4" y="432" type="line"/>
      <point x="29" y="432"/>
      <point x="33" y="431" type="qcurve" smooth="yes"/>
      <point x="44" y="430"/>
      <point x="49" y="426" type="qcurve" smooth="yes"/>
      <point x="62" y="417"/>
      <point x="68" y="407" type="qcurve"/>
      <point x="74" y="392"/>
      <point x="74" y="364" type="qcurve" smooth="yes"/>
      <point x="74" y="163" type="line" smooth="yes"/>
      <point x="74" y="96"/>
      <point x="85" y="66" type="qcurve"/>
      <point x="94" y="34"/>
      <point x="121" y="10" type="qcurve" smooth="yes"/>
      <point x="146" y="-12"/>
      <point x="185" y="-12" type="qcurve" smooth="yes"/>
      <point x="222" y="-12"/>
      <point x="248" y="4" type="qcurve" smooth="yes"/>
      <point x="283" y="26"/>
      <point x="332" y="83" type="qcurve"/>
      <point x="332" y="-12" type="line"/>
      <point x="355" y="-12" type="line"/>
      <point x="481" y="44" type="line"/>
      <point x="473" y="60" type="line"/>
      <point x="451" y="52"/>
      <point x="442" y="52" type="qcurve" smooth="yes"/>
      <point x="431" y="52"/>
      <point x="425" y="59" type="qcurve" smooth="yes"/>
      <point x="420" y="63"/>
      <point x="414" y="83" type="qcurve"/>
      <point x="410" y="109"/>
      <point x="410" y="176" type="qcurve" smooth="yes"/>
    </contour>
  </outline>
</glyph>
<glyph name="v" format="2">
  <advance width="489"/>
  <unicode hex="0076"/>
  <outline>
    <contour>
      <point x="6" y="448" type="line"/>
      <point x="6" y="432" type="line"/>
      <point x="29" y="428"/>
      <point x="39" y="423" type="qcurve" smooth="yes"/>
      <point x="50" y="417"/>
      <point x="63" y="404" type="qcurve"/>
      <point x="73" y="390"/>
      <point x="83" y="364" type="qcurve"/>
      <point x="239" y="-12" type="line"/>
      <point x="258" y="-12" type="line"/>
      <point x="411" y="370" type="line"/>
      <point x="424" y="406"/>
      <point x="442" y="421" type="qcurve"/>
      <point x="450" y="430"/>
      <point x="475" y="432" type="qcurve"/>
      <point x="475" y="448" type="line"/>
      <point x="337" y="448" type="line"/>
      <point x="337" y="432" type="line"/>
      <point x="339" y="432"/>
      <point x="349" y="431" type="qcurve"/>
      <point x="354" y="431"/>
      <point x="356" y="431" type="qcurve"/>
      <point x="362" y="431" type="line"/>
      <point x="365" y="430"/>
      <point x="370" y="430" type="qcurve"/>
      <point x="376" y="428"/>
      <point x="383" y="419" type="qcurve" smooth="yes"/>
      <point x="386" y="415"/>
      <point x="386" y="408" type="qcurve" smooth="yes"/>
      <point x="386" y="394"/>
      <point x="376" y="367" type="qcurve"/>
      <point x="273" y="110" type="line"/>
      <point x="170" y="357" type="line" smooth="yes"/>
      <point x="160" y="380"/>
      <point x="160" y="398" type="qcurve" smooth="yes"/>
      <point x="160" y="413"/>
      <point x="170" y="423" type="qcurve" smooth="yes"/>
      <point x="181" y="432"/>
      <point x="199" y="432" type="qcurve" smooth="yes"/>
      <point x="212" y="432" type="line"/>
      <point x="212" y="448" type="line"/>
    </contour>
  </outline>
</glyph>
<glyph name="w" format="2">
  <advance width="707"/>
  <unicode hex="0077"/>
  <outline>
    <contour>
      <point x="5" y="448" type="line"/>
      <point x="5" y="432" type="line"/>
      <point x="36" y="426"/>
      <point x="46" y="413" type="qcurve"/>
      <point x="62" y="397"/>
      <point x="74" y="363" type="qcurve" smooth="yes"/>
      <point x="213" y="-12" type="line"/>
      <point x="222" y="-12" type="line"/>
      <point x="355" y="278" type="line"/>
      <point x="464" y="-12" type="line"/>
      <point x="480" y="-12" type="line"/>
      <point x="622" y="375" type="line"/>
      <point x="642" y="426"/>
      <point x="683" y="432" type="qcurve"/>
      <point x="683" y="448" type="line"/>
      <point x="549" y="448" type="line"/>
      <point x="549" y="432" type="line"/>
      <point x="575" y="431"/>
      <point x="583" y="424" type="qcurve"/>
      <point x="592" y="417"/>
      <point x="592" y="406" type="qcurve" smooth="yes"/>
      <point x="592" y="386"/>
      <point x="584" y="363" type="qcurve" smooth="yes"/>
      <point x="495" y="122" type="line"/>
      <point x="396" y="373" type="line"/>
      <point x="395" y="378" type="line"/>
      <point x="392" y="388"/>
      <point x="392" y="392" type="qcurve" smooth="yes"/>
      <point x="392" y="409"/>
      <point x="402" y="419" type="qcurve"/>
      <point x="418" y="431"/>
      <point x="455" y="432" type="qcurve"/>
      <point x="455" y="448" type="line"/>
      <point x="244" y="448" type="line"/>
      <point x="244" y="432" type="line"/>
      <point x="275" y="430"/>
      <point x="284" y="423" type="qcurve"/>
      <point x="303" y="412"/>
      <point x="313" y="381" type="qcurve"/>
      <point x="338" y="318" type="line"/>
      <point x="248" y="118" type="line"/>
      <point x="157" y="365" type="line"/>
      <point x="148" y="386"/>
      <point x="148" y="402" type="qcurve" smooth="yes"/>
      <point x="148" y="416"/>
      <point x="157" y="423" type="qcurve"/>
      <point x="162" y="431"/>
      <point x="187" y="432" type="qcurve"/>
      <point x="187" y="448" type="line"/>
    </contour>
  </outline>
</glyph>
<glyph name="x" format="2">
  <advance width="476"/>
  <unicode hex="0078"/>
  <outline>
    <contour>
      <point x="12" y="448" type="line"/>
      <point x="12" y="432" type="line"/>
      <point x="47" y="432"/>
      <point x="60" y="419" type="qcurve"/>
      <point x="81" y="405"/>
      <point x="113" y="352" type="qcurve"/>
      <point x="196" y="225" type="line"/>
      <point x="105" y="101" type="line" smooth="yes"/>
      <point x="62" y="42"/>
      <point x="46" y="28" type="qcurve" smooth="yes"/>
      <point x="34" y="18"/>
      <point x="15" y="16" type="qcurve"/>
      <point x="15" y="0" type="line"/>
      <point x="158" y="0" type="line"/>
      <point x="158" y="16" type="line"/>
      <point x="137" y="17"/>
      <point x="124" y="27" type="qcurve" smooth="yes"/>
      <point x="113" y="37"/>
      <point x="113" y="49" type="qcurve" smooth="yes"/>
      <point x="113" y="59"/>
      <point x="145" y="104" type="qcurve" smooth="yes"/>
      <point x="213" y="198" type="line"/>
      <point x="278" y="100" type="line"/>
      <point x="306" y="54"/>
      <point x="306" y="44" type="qcurve" smooth="yes"/>
      <point x="306" y="32"/>
      <point x="297" y="26" type="qcurve"/>
      <point x="287" y="16"/>
      <point x="262" y="16" type="qcurve"/>
      <point x="262" y="0" type="line"/>
      <point x="470" y="0" type="line"/>
      <point x="470" y="16" type="line"/>
      <point x="443" y="18"/>
      <point x="426" y="30" type="qcurve" smooth="yes"/>
      <point x="410" y="42"/>
      <point x="368" y="101" type="qcurve"/>
      <point x="262" y="265" type="line"/>
      <point x="322" y="346" type="line" smooth="yes"/>
      <point x="365" y="405"/>
      <point x="385" y="419" type="qcurve"/>
      <point x="399" y="431"/>
      <point x="424" y="432" type="qcurve"/>
      <point x="424" y="448" type="line"/>
      <point x="282" y="448" type="line"/>
      <point x="282" y="432" type="line"/>
      <point x="298" y="432"/>
      <point x="311" y="424" type="qcurve"/>
      <point x="318" y="412"/>
      <point x="318" y="404" type="qcurve"/>
      <point x="316" y="390"/>
      <point x="282" y="342" type="qcurve" smooth="yes"/>
      <point x="246" y="293" type="line"/>
      <point x="212" y="344" type="line" smooth="yes"/>
      <point x="205" y="355"/>
      <point x="200" y="361" type="qcurve" smooth="yes"/>
      <point x="198" y="364" type="line"/>
      <point x="196" y="367" type="line" smooth="yes"/>
      <point x="194" y="369"/>
      <point x="194" y="370" type="qcurve"/>
      <point x="174" y="394"/>
      <point x="174" y="407" type="qcurve" smooth="yes"/>
      <point x="174" y="418"/>
      <point x="183" y="425" type="qcurve"/>
      <point x="189" y="432"/>
      <point x="209" y="432" type="qcurve"/>
      <point x="209" y="448" type="line"/>
    </contour>
  </outline>
</glyph>
<glyph name="y" format="2">
  <advance width="489"/>
  <unicode hex="0079"/>
  <outline>
    <contour>
      <point x="1" y="448" type="line"/>
      <point x="1" y="432" type="line"/>
      <point x="21" y="426"/>
      <point x="36" y="418" type="qcurve" smooth="yes"/>
      <point x="45" y="413"/>
      <point x="55" y="394" type="qcurve"/>
      <point x="72" y="370"/>
      <point x="77" y="355" type="qcurve"/>
      <point x="236" y="20" type="line"/>
      <point x="204" y="-57" type="line"/>
      <point x="189" y="-97"/>
      <point x="172" y="-114" type="qcurve"/>
      <point x="152" y="-128"/>
      <point x="140" y="-128" type="qcurve" smooth="yes"/>
      <point x="131" y="-128"/>
      <point x="117" y="-121" type="qcurve"/>
      <point x="90" y="-112"/>
      <point x="74" y="-112" type="qcurve" smooth="yes"/>
      <point x="49" y="-112"/>
      <point x="39" y="-125" type="qcurve"/>
      <point x="25" y="-137"/>
      <point x="25" y="-157" type="qcurve" smooth="yes"/>
      <point x="25" y="-178"/>
      <point x="43" y="-196" type="qcurve"/>
      <point x="61" y="-212"/>
      <point x="89" y="-212" type="qcurve" smooth="yes"/>
      <point x="129" y="-212"/>
      <point x="169" y="-179" type="qcurve" smooth="yes"/>
      <point x="212" y="-144"/>
      <point x="236" y="-81" type="qcurve" smooth="yes"/>
      <point x="410" y="364" type="line"/>
      <point x="418" y="390"/>
      <point x="425" y="402" type="qcurve"/>
      <point x="434" y="415"/>
      <point x="446" y="424" type="qcurve"/>
      <point x="452" y="430"/>
      <point x="473" y="432" type="qcurve"/>
      <point x="473" y="448" type="line"/>
      <point x="335" y="448" type="line"/>
      <point x="335" y="432" type="line"/>
      <point x="357" y="432"/>
      <point x="363" y="429" type="qcurve"/>
      <point x="371" y="426"/>
      <point x="375" y="420" type="qcurve"/>
      <point x="377" y="415"/>
      <point x="377" y="407" type="qcurve" smooth="yes"/>
      <point x="377" y="384"/>
      <point x="370" y="366" type="qcurve" smooth="yes"/>
      <point x="274" y="119" type="line"/>
      <point x="168" y="345" type="line"/>
      <point x="153" y="384"/>
      <point x="153" y="398" type="qcurve" smooth="yes"/>
      <point x="153" y="412"/>
      <point x="164" y="423" type="qcurve" smooth="yes"/>
      <point x="173" y="432"/>
      <point x="196" y="432" type="qcurve" smooth="yes"/>
      <point x="204" y="432" type="line"/>
      <point x="204" y="448" type="line"/>
    </contour>
  </outline>
</glyph>
<glyph name="z" format="2">
  <advance width="429"/>
  <unicode hex="007A"/>
  <outline>
    <contour>
      <point x="407" y="136" type="line"/>
      <point x="391" y="136" type="line"/>
      <point x="386" y="85"/>
      <point x="377" y="70" type="qcurve"/>
      <point x="369" y="49"/>
      <point x="348" y="41" type="qcurve"/>
      <point x="332" y="32"/>
      <point x="279" y="32" type="qcurve" smooth="yes"/>
      <point x="125" y="32" type="line"/>
      <point x="415" y="431" type="line"/>
      <point x="415" y="448" type="line"/>
      <point x="55" y="448" type="line"/>
      <point x="55" y="328" type="line"/>
      <point x="69" y="328" type="line"/>
      <point x="72" y="359"/>
      <point x="86" y="387" type="qcurve"/>
      <point x="92" y="404"/>
      <point x="108" y="410" type="qcurve" smooth="yes"/>
      <point x="123" y="416"/>
      <point x="170" y="416" type="qcurve" smooth="yes"/>
      <point x="307" y="416" type="line"/>
      <point x="20" y="17" type="line"/>
      <point x="20" y="0" type="line"/>
      <point x="407" y="0" type="line"/>
    </contour>
  </outline>
</glyph>
<glyph name="braceleft" format="2">
  <advance width="471"/>
  <unicode hex="007B"/>
  <outline>
    <contour>
      <point x="398" y="-196" type="line"/>
      <point x="343" y="-183"/>
      <point x="317" y="-152" type="qcurve" smooth="yes"/>
      <point x="291" y="-123"/>
      <point x="291" y="-84" type="qcurve" smooth="yes"/>
      <point x="291" y="-52"/>
      <point x="301" y="-9" type="qcurve"/>
      <point x="311" y="53"/>
      <point x="311" y="71" type="qcurve" smooth="yes"/>
      <point x="311" y="118"/>
      <point x="273" y="167" type="qcurve" smooth="yes"/>
      <point x="235" y="214"/>
      <point x="167" y="239" type="qcurve"/>
      <point x="239" y="265"/>
      <point x="274" y="312" type="qcurve" smooth="yes"/>
      <point x="311" y="360"/>
      <point x="311" y="407" type="qcurve" smooth="yes"/>
      <point x="311" y="425"/>
      <point x="301" y="487" type="qcurve"/>
      <point x="291" y="530"/>
      <point x="291" y="563" type="qcurve" smooth="yes"/>
      <point x="291" y="602"/>
      <point x="317" y="631" type="qcurve" smooth="yes"/>
      <point x="344" y="663"/>
      <point x="398" y="676" type="qcurve"/>
      <point x="398" y="696" type="line"/>
      <point x="319" y="685"/>
      <point x="267" y="630" type="qcurve"/>
      <point x="217" y="574"/>
      <point x="217" y="507" type="qcurve" smooth="yes"/>
      <point x="217" y="468"/>
      <point x="227" y="425" type="qcurve"/>
      <point x="236" y="373"/>
      <point x="236" y="352" type="qcurve" smooth="yes"/>
      <point x="236" y="316"/>
      <point x="209" y="286" type="qcurve" smooth="yes"/>
      <point x="181" y="255"/>
      <point x="132" y="248" type="qcurve"/>
      <point x="132" y="228" type="line"/>
      <point x="181" y="220"/>
      <point x="209" y="191" type="qcurve"/>
      <point x="236" y="160"/>
      <point x="236" y="125" type="qcurve" smooth="yes"/>
      <point x="236" y="107"/>
      <point x="227" y="54" type="qcurve"/>
      <point x="217" y="11"/>
      <point x="217" y="-29" type="qcurve" smooth="yes"/>
      <point x="217" y="-94"/>
      <point x="267" y="-150" type="qcurve"/>
      <point x="319" y="-205"/>
      <point x="398" y="-216" type="qcurve"/>
    </contour>
  </outline>
</glyph>
<glyph name="bar" format="2">
  <advance width="194"/>
  <unicode hex="007C"/>
  <outline>
    <contour>
      <point x="115" y="696" type="line"/>
      <point x="77" y="696" type="line"/>
      <point x="77" y="-216" type="line"/>
      <point x="115" y="-216" type="line"/>
    </contour>
  </outline>
</glyph>
<glyph name="braceright" format="2">
  <advance width="471"/>
  <unicode hex="007D"/>
  <outline>
    <contour>
      <point x="86" y="676" type="line"/>
      <point x="143" y="663"/>
      <point x="167" y="632" type="qcurve"/>
      <point x="194" y="601"/>
      <point x="194" y="564" type="qcurve" smooth="yes"/>
      <point x="194" y="551"/>
      <point x="184" y="489" type="qcurve"/>
      <point x="174" y="439"/>
      <point x="174" y="409" type="qcurve" smooth="yes"/>
      <point x="174" y="360"/>
      <point x="212" y="313" type="qcurve"/>
      <point x="248" y="266"/>
      <point x="318" y="241" type="qcurve"/>
      <point x="249" y="216"/>
      <point x="210" y="169" type="qcurve"/>
      <point x="174" y="121"/>
      <point x="174" y="73" type="qcurve" smooth="yes"/>
      <point x="174" y="43"/>
      <point x="184" y="-7" type="qcurve"/>
      <point x="194" y="-69"/>
      <point x="194" y="-83" type="qcurve" smooth="yes"/>
      <point x="194" y="-120"/>
      <point x="167" y="-151" type="qcurve"/>
      <point x="143" y="-183"/>
      <point x="86" y="-196" type="qcurve"/>
      <point x="86" y="-216" type="line"/>
      <point x="163" y="-206"/>
      <point x="217" y="-150" type="qcurve"/>
      <point x="267" y="-96"/>
      <point x="267" y="-27" type="qcurve" smooth="yes"/>
      <point x="267" y="5"/>
      <point x="257" y="56" type="qcurve" smooth="yes"/>
      <point x="248" y="100"/>
      <point x="248" y="128" type="qcurve" smooth="yes"/>
      <point x="248" y="164"/>
      <point x="275" y="195" type="qcurve"/>
      <point x="305" y="225"/>
      <point x="352" y="232" type="qcurve"/>
      <point x="352" y="252" type="line"/>
      <point x="303" y="259"/>
      <point x="275" y="290" type="qcurve" smooth="yes"/>
      <point x="248" y="320"/>
      <point x="248" y="355" type="qcurve" smooth="yes"/>
      <point x="248" y="384"/>
      <point x="257" y="427" type="qcurve" smooth="yes"/>
      <point x="267" y="479"/>
      <point x="267" y="508" type="qcurve" smooth="yes"/>
      <point x="267" y="577"/>
      <point x="217" y="631" type="qcurve" smooth="yes"/>
      <point x="167" y="686"/>
      <point x="86" y="696" type="qcurve"/>
    </contour>
  </outline>
</glyph>
<glyph name="asciitilde" format="2">
  <advance width="524"/>
  <unicode hex="007E"/>
  <outline>
    <contour>
      <point x="491" y="332" type="line"/>
      <point x="490" y="290"/>
      <point x="464" y="261" type="qcurve" smooth="yes"/>
      <point x="441" y="236"/>
      <point x="402" y="236" type="qcurve" smooth="yes"/>
      <point x="366" y="236"/>
      <point x="292" y="273" type="qcurve" smooth="yes"/>
      <point x="220" y="309"/>
      <point x="164" y="325" type="qcurve"/>
      <point x="146" y="332"/>
      <point x="121" y="332" type="qcurve" smooth="yes"/>
      <point x="81" y="332"/>
      <point x="46" y="297" type="qcurve"/>
      <point x="15" y="262"/>
      <point x="11" y="196" type="qcurve"/>
      <point x="31" y="196" type="line"/>
      <point x="41" y="244"/>
      <point x="64" y="264" type="qcurve" smooth="yes"/>
      <point x="87" y="284"/>
      <point x="119" y="284" type="qcurve" smooth="yes"/>
      <point x="150" y="284"/>
      <point x="222" y="254" type="qcurve" smooth="yes"/>
      <point x="318" y="213"/>
      <point x="350" y="204" type="qcurve" smooth="yes"/>
      <point x="382" y="196"/>
      <point x="397" y="196" type="qcurve" smooth="yes"/>
      <point x="445" y="196"/>
      <point x="476" y="232" type="qcurve"/>
      <point x="508" y="265"/>
      <point x="511" y="332" type="qcurve"/>
    </contour>
  </outline>
</glyph>
<glyph name="guillemotleft" format="2">
  <advance width="546"/>
  <unicode hex="00AB"/>
  <outline>
    <contour>
      <point x="457" y="137" type="qcurve" smooth="yes"/>
      <point x="457" y="152"/>
      <point x="446" y="176" type="qcurve"/>
      <point x="363" y="339" type="line"/>
      <point x="440" y="493" type="line" smooth="yes"/>
      <point x="442" y="496"/>
      <point x="443" y="499" type="qcurve" smooth="yes"/>
      <point x="448" y="507"/>
      <point x="450" y="510" type="qcurve"/>
      <point x="451" y="511"/>
      <point x="451" y="512" type="qcurve"/>
      <point x="452" y="515"/>
      <point x="453" y="516" type="qcurve"/>
      <point x="453" y="519"/>
      <point x="455" y="522" type="qcurve"/>
      <point x="456" y="529"/>
      <point x="456" y="539" type="qcurve" smooth="yes"/>
      <point x="456" y="557"/>
      <point x="445" y="571" type="qcurve" smooth="yes"/>
      <point x="433" y="584"/>
      <point x="417" y="584" type="qcurve" smooth="yes"/>
      <point x="392" y="584"/>
      <point x="368" y="540" type="qcurve" smooth="yes"/>
      <point x="290" y="393" type="line" smooth="yes"/>
      <point x="270" y="355"/>
      <point x="270" y="338" type="qcurve" smooth="yes"/>
      <point x="270" y="325"/>
      <point x="290" y="286" type="qcurve" smooth="yes"/>
      <point x="365" y="142" type="line"/>
      <point x="380" y="117"/>
      <point x="392" y="102" type="qcurve"/>
      <point x="405" y="91"/>
      <point x="417" y="91" type="qcurve" smooth="yes"/>
      <point x="432" y="91"/>
      <point x="446" y="105" type="qcurve"/>
      <point x="457" y="119"/>
    </contour>
    <contour>
      <point x="256" y="137" type="qcurve" smooth="yes"/>
      <point x="256" y="157"/>
      <point x="244" y="176" type="qcurve"/>
      <point x="161" y="339" type="line"/>
      <point x="239" y="493" type="line"/>
      <point x="250" y="514" type="line"/>
      <point x="255" y="527"/>
      <point x="255" y="539" type="qcurve" smooth="yes"/>
      <point x="255" y="558"/>
      <point x="243" y="571" type="qcurve" smooth="yes"/>
      <point x="231" y="584"/>
      <point x="214" y="584" type="qcurve" smooth="yes"/>
      <point x="191" y="584"/>
      <point x="167" y="540" type="qcurve" smooth="yes"/>
      <point x="87" y="393" type="line"/>
      <point x="68" y="353"/>
      <point x="68" y="338" type="qcurve" smooth="yes"/>
      <point x="68" y="322"/>
      <point x="87" y="286" type="qcurve" smooth="yes"/>
      <point x="165" y="142" type="line"/>
      <point x="178" y="116"/>
      <point x="192" y="102" type="qcurve" smooth="yes"/>
      <point x="203" y="91"/>
      <point x="215" y="91" type="qcurve" smooth="yes"/>
      <point x="230" y="91"/>
      <point x="244" y="105" type="qcurve"/>
      <point x="256" y="119"/>
    </contour>
  </outline>
</glyph>
<glyph name="guillemotright" format="2">
  <advance width="546"/>
  <unicode hex="00BB"/>
  <outline>
    <contour>
      <point x="161" y="98" type="qcurve"/>
      <point x="174" y="112"/>
      <point x="188" y="138" type="qcurve" smooth="yes"/>
      <point x="264" y="282" type="line" smooth="yes"/>
      <point x="283" y="318"/>
      <point x="283" y="334" type="qcurve" smooth="yes"/>
      <point x="283" y="353"/>
      <point x="264" y="389" type="qcurve" smooth="yes"/>
      <point x="185" y="536" type="line" smooth="yes"/>
      <point x="161" y="580"/>
      <point x="136" y="580" type="qcurve" smooth="yes"/>
      <point x="121" y="580"/>
      <point x="109" y="567" type="qcurve" smooth="yes"/>
      <point x="96" y="554"/>
      <point x="96" y="535" type="qcurve" smooth="yes"/>
      <point x="96" y="528"/>
      <point x="99" y="519" type="qcurve" smooth="yes"/>
      <point x="100" y="514"/>
      <point x="104" y="504" type="qcurve"/>
      <point x="109" y="498"/>
      <point x="113" y="489" type="qcurve" smooth="yes"/>
      <point x="191" y="335" type="line"/>
      <point x="108" y="172" type="line" smooth="yes"/>
      <point x="95" y="148"/>
      <point x="95" y="133" type="qcurve" smooth="yes"/>
      <point x="95" y="115"/>
      <point x="107" y="101" type="qcurve"/>
      <point x="121" y="87"/>
      <point x="136" y="87" type="qcurve" smooth="yes"/>
      <point x="148" y="87"/>
    </contour>
    <contour>
      <point x="362" y="98" type="qcurve"/>
      <point x="375" y="112"/>
      <point x="389" y="138" type="qcurve" smooth="yes"/>
      <point x="464" y="282" type="line"/>
      <point x="484" y="315"/>
      <point x="484" y="334" type="qcurve" smooth="yes"/>
      <point x="484" y="347"/>
      <point x="480" y="358" type="qcurve"/>
      <point x="477" y="363"/>
      <point x="475" y="369" type="qcurve" smooth="yes"/>
      <point x="470" y="380" type="line"/>
      <point x="465" y="389" type="line"/>
      <point x="386" y="536" type="line" smooth="yes"/>
      <point x="362" y="580"/>
      <point x="338" y="580" type="qcurve" smooth="yes"/>
      <point x="321" y="580"/>
      <point x="311" y="567" type="qcurve"/>
      <point x="298" y="554"/>
      <point x="298" y="535" type="qcurve" smooth="yes"/>
      <point x="298" y="525"/>
      <point x="301" y="517" type="qcurve"/>
      <point x="301" y="511"/>
      <point x="306" y="504" type="qcurve" smooth="yes"/>
      <point x="307" y="502"/>
      <point x="309" y="498" type="qcurve" smooth="yes"/>
      <point x="311" y="494"/>
      <point x="314" y="489" type="qcurve" smooth="yes"/>
      <point x="392" y="335" type="line"/>
      <point x="310" y="172" type="line"/>
      <point x="297" y="153"/>
      <point x="297" y="133" type="qcurve" smooth="yes"/>
      <point x="297" y="114"/>
      <point x="309" y="100" type="qcurve" smooth="yes"/>
      <point x="322" y="87"/>
      <point x="338" y="87" type="qcurve" smooth="yes"/>
      <point x="348" y="87"/>
    </contour>
  </outline>
</glyph>
<glyph name="uni1200" format="2">
  <advance width="538"/>
  <unicode hex="1200"/>
  <outline>
    <contour>
      <point x="324" y="57" type="curve" smooth="yes"/>
      <point x="455" y="156"/>
      <point x="482" y="315"/>
      <point x="482" y="469" type="curve" smooth="yes"/>
      <point x="482" y="494"/>
      <point x="485" y="688"/>
      <point x="443" y="688" type="curve" smooth="yes"/>
      <point x="432" y="688"/>
      <point x="318" y="659"/>
      <point x="318" y="647" type="curve" smooth="yes"/>
      <point x="318" y="641"/>
      <point x="323" y="638"/>
      <point x="327" y="635" type="curve" smooth="yes"/>
      <point x="338" y="626"/>
      <point x="342" y="577"/>
      <point x="343" y="564" type="curve" smooth="yes"/>
      <point x="346" y="527"/>
      <point x="346" y="490"/>
      <point x="346" y="453" type="curve" smooth="yes"/>
      <point x="346" y="385"/>
      <point x="335" y="315"/>
      <point x="326" y="247" type="curve" smooth="yes"/>
      <point x="320" y="200"/>
      <point x="302" y="32"/>
      <point x="227" y="32" type="curve" smooth="yes"/>
      <point x="180" y="32"/>
      <point x="166" y="100"/>
      <point x="166" y="136" type="curve" smooth="yes"/>
      <point x="166" y="266"/>
      <point x="202" y="396"/>
      <point x="202" y="525" type="curve" smooth="yes"/>
      <point x="202" y="548"/>
      <point x="201" y="606"/>
      <point x="167" y="606" type="curve" smooth="yes"/>
      <point x="152" y="606"/>
      <point x="48" y="576"/>
      <point x="48" y="563" type="curve" smooth="yes"/>
      <point x="48" y="550"/>
      <point x="65" y="549"/>
      <point x="65" y="526" type="curve" smooth="yes"/>
      <point x="65" y="518"/>
      <point x="63" y="508"/>
      <point x="62" y="500" type="curve" smooth="yes"/>
      <point x="56" y="426"/>
      <point x="47" y="353"/>
      <point x="38" y="279" type="curve" smooth="yes"/>
      <point x="34" y="246"/>
      <point x="29" y="212"/>
      <point x="29" y="179" type="curve" smooth="yes"/>
      <point x="29" y="84"/>
      <point x="65" y="0"/>
      <point x="173" y="0" type="curve" smooth="yes"/>
      <point x="229" y="0"/>
      <point x="280" y="24"/>
    </contour>
  </outline>
</glyph>
